STARTFONT 2.1
COMMENT
COMMENT Converted from OpenType font "bsk1.ttf" by "otf2bdf 3.0".
COMMENT
FONT -FreeType-Libre Baskerville-Medium-I-Normal--58-580-72-72-P-346-ISO10646-1
SIZE 58 72 72
FONTBOUNDINGBOX 106 70 -17 -15
STARTPROPERTIES 19
FOUNDRY "FreeType"
FAMILY_NAME "Libre Baskerville"
WEIGHT_NAME "Medium"
SLANT "I"
SETWIDTH_NAME "Normal"
ADD_STYLE_NAME ""
PIXEL_SIZE 58
POINT_SIZE 580
RESOLUTION_X 72
RESOLUTION_Y 72
SPACING "P"
AVERAGE_WIDTH 346
CHARSET_REGISTRY "ISO10646"
CHARSET_ENCODING "1"
FONT_ASCENT 56
FONT_DESCENT 15
COPYRIGHT "Copyright (c) 2012, Pablo Impallari (www.impallari.com|impallari@gmail.com), Copyright (c) 2012, Rodrigo Fuenzalida (www.rfuenzalida.com|hello@rfuenzalida.com), with Reserved Font Name Libre Baskerville."
_OTF_FONTFILE "bsk1.ttf"
_OTF_PSNAME "LibreBaskerville-Italic"
ENDPROPERTIES
CHARS 442
STARTCHAR 0020
ENCODING 32
SWIDTH 275 0
DWIDTH 16 0
BBX 0 0 0 0
BITMAP
ENDCHAR
STARTCHAR 0021
ENCODING 33
SWIDTH 310 0
DWIDTH 18 0
BBX 15 46 3 -1
BITMAP
0010
007C
00FE
00FE
00FE
01FE
01FE
01FC
01FC
01FC
01FC
01F8
01F8
01F0
03F0
03F0
03E0
03E0
03C0
03C0
03C0
0380
0380
0380
0780
0700
0700
0700
0600
0600
0600
0600
0600
0800
0000
0000
0000
0000
1000
7E00
7E00
FF00
FF00
7E00
7E00
1000
ENDCHAR
STARTCHAR 0022
ENCODING 34
SWIDTH 362 0
DWIDTH 21 0
BBX 16 16 9 32
BITMAP
1C0E
3E1F
3E3F
7E3E
7C3E
7C3E
783C
787C
7878
7078
F070
E070
E070
C060
C060
C040
ENDCHAR
STARTCHAR 0023
ENCODING 35
SWIDTH 672 0
DWIDTH 39 0
BBX 34 44 4 0
BITMAP
000F00F000
000E00F000
000E00E000
000E00E000
000E00E000
001E00E000
001E01E000
001E01E000
001C01E000
001C01E000
001C01C000
001C01C000
003C01C000
003C03C000
3FFFFFFFC0
3FFFFFFF80
7FFFFFFF80
0038038000
0078038000
0078078000
0078078000
0070078000
0070078000
0070070000
00F0070000
00F0070000
FFFFFFFF00
FFFFFFFF00
FFFFFFFF00
00E00E0000
01E00E0000
01E00E0000
01E01E0000
01C01E0000
01C01E0000
01C01E0000
01C01C0000
03C01C0000
03C01C0000
03C03C0000
03803C0000
03803C0000
03803C0000
0780380000
ENDCHAR
STARTCHAR 0024
ENCODING 36
SWIDTH 586 0
DWIDTH 34 0
BBX 32 58 1 -8
BITMAP
00000780
00000700
00000700
00000700
00000F00
00000E00
0001FFC0
0007FFF0
001FFFF8
003F1E7C
007C1C3E
00F81C1E
00F83C1E
01F83C1F
01F0381E
01F0383E
01F0787E
01F878FC
01F870F0
01FC7000
01FEF000
00FFF000
00FFE000
007FE000
003FF000
001FF800
000FFE00
0007FF00
0003FF80
0003FFC0
0003FFC0
0003BFE0
00039FE0
00078FF0
0F0707F0
3F8703F0
3E0703F0
7C0F01F0
7C0E01F0
F80E01F0
F80E01F0
F81E01E0
F81C03E0
781C03C0
7C1C0780
3E3C0F00
1F383E00
0FF8FC00
07FFF800
01FFC000
00780000
00700000
00700000
00F00000
00E00000
00E00000
00E00000
01E00000
ENDCHAR
STARTCHAR 0025
ENCODING 37
SWIDTH 689 0
DWIDTH 40 0
BBX 39 46 1 -1
BITMAP
0001000000
000FC0001E
003860001C
0070700038
0070700070
00E07000F0
01E07001E0
01C07001C0
01C0F00380
03C0F00700
0380E00F00
0380E01E00
0381C03C00
0381C03800
0383807000
01C700F000
00FE01E000
007803C000
0000078000
0000070000
00000E0000
00001E0000
00003C0000
0000780000
0000700000
0000E00000
0001E00000
0003C01E00
0007807F80
000F00F380
000E01E1C0
001E01C1C0
003C0381C0
00780781C0
00F00701C0
00E00701C0
01E00F03C0
03C00E0380
07800E0380
0F000E0780
1E000E0700
1C000E0E00
3C00071E00
780007BC00
F00003F000
0000004000
ENDCHAR
STARTCHAR 0026
ENCODING 38
SWIDTH 896 0
DWIDTH 52 0
BBX 50 46 3 -1
BITMAP
00001000000000
0001FF0001F000
0007FF8007FC00
000FFFC007FE00
001FFFE00FCF00
003FFFE00FC780
003E03E00F8380
003C00E00783C0
007800E00303C0
007800600003C0
007800000003C0
007800000007C0
00780000000F80
00380000003F80
00380007FFFF00
003E003FFFFF00
01FFC0FFFFFC00
03FFE1FFFFF800
0FDFE3E07FE000
1F07E3C01E0000
1E03E7800F0000
3C01C700070000
3C000707078000
7C00070F838000
7C00070F83C000
7800078FC3C000
7C00038F83C000
FC0001FF83C000
FC0001FF03C000
FC00007C03C000
7E00000003C000
7E000000078000
7F000000078000
7F0000000F8000
3F8000001F0000
3FC000003F0000
1FF00000FE0000
1FFC0001FE0000
0FFF000FFC0000
07FFFFFFF80000
03FFFFFFF00000
01FFFFFFC00000
007FFFFF800000
001FFFFE000000
0003FFF0000000
00000C00000000
ENDCHAR
STARTCHAR 0027
ENCODING 39
SWIDTH 206 0
DWIDTH 12 0
BBX 7 16 9 32
BITMAP
1C
3E
3E
7E
7C
7C
78
78
78
70
F0
E0
E0
C0
C0
C0
ENDCHAR
STARTCHAR 0028
ENCODING 40
SWIDTH 344 0
DWIDTH 20 0
BBX 24 59 2 -11
BITMAP
000006
00000F
00001E
00003C
000078
0000F0
0001E0
0003C0
000780
000F00
001F00
003E00
003C00
007C00
00F800
01F000
01F000
03E000
07E000
07C000
0FC000
0F8000
1F8000
1F0000
1F0000
3F0000
3E0000
7E0000
7E0000
7C0000
7C0000
FC0000
FC0000
FC0000
FC0000
F80000
F80000
F80000
F80000
F80000
F80000
F80000
F80000
F80000
F80000
780000
780000
780000
7C0000
3C0000
3C0000
1E0000
1E0000
0E0000
0F0000
070000
078000
038000
010000
ENDCHAR
STARTCHAR 0029
ENCODING 41
SWIDTH 327 0
DWIDTH 19 0
BBX 25 59 -7 -11
BITMAP
00006000
0000E000
0000F000
00007800
00007800
00003C00
00003C00
00003E00
00001E00
00001E00
00001F00
00001F00
00000F00
00000F00
00000F80
00000F80
00000F80
00000F80
00000F80
00000F80
00000F80
00000F80
00000F80
00001F80
00001F80
00001F80
00001F00
00001F00
00003F00
00003F00
00003E00
00003E00
00007E00
00007C00
0000FC00
0000FC00
0000F800
0001F800
0001F000
0003E000
0003E000
0007C000
0007C000
000F8000
001F0000
001F0000
003E0000
007C0000
00780000
00F00000
01E00000
03C00000
03800000
07000000
0E000000
1C000000
38000000
F0000000
60000000
ENDCHAR
STARTCHAR 002A
ENCODING 42
SWIDTH 534 0
DWIDTH 31 0
BBX 25 24 6 20
BITMAP
0001C000
0003E000
0703E000
0F83E000
0F83C000
0FC3C000
07C38000
03E70000
00E60700
00761F80
003CFF80
381FFF80
7FFF9F00
FFDE0000
7E1B0000
3819C000
0031E000
0070F800
0070FC00
00F07C00
01F07C00
01F03800
01F00000
00E00000
ENDCHAR
STARTCHAR 002B
ENCODING 43
SWIDTH 586 0
DWIDTH 34 0
BBX 27 27 3 6
BITMAP
000E0000
000E0000
000E0000
000E0000
000E0000
000E0000
000E0000
000E0000
000E0000
000E0000
000E0000
000E0000
FFFFFFE0
FFFFFFE0
FFFFFFE0
000E0000
000E0000
000E0000
000E0000
000E0000
000E0000
000E0000
000E0000
000E0000
000E0000
000E0000
000E0000
ENDCHAR
STARTCHAR 002C
ENCODING 44
SWIDTH 258 0
DWIDTH 15 0
BBX 10 17 -2 -10
BITMAP
0F00
1F80
3FC0
3FC0
3FC0
3FC0
1FC0
0380
0380
0700
0700
0E00
1C00
3800
7000
E000
4000
ENDCHAR
STARTCHAR 002D
ENCODING 45
SWIDTH 465 0
DWIDTH 27 0
BBX 20 5 3 14
BITMAP
3FFFF0
7FFFE0
7FFFE0
7FFFE0
FFFFE0
ENDCHAR
STARTCHAR 002E
ENCODING 46
SWIDTH 258 0
DWIDTH 15 0
BBX 8 9 0 -1
BITMAP
10
7E
FE
FF
FF
FF
FF
7E
10
ENDCHAR
STARTCHAR 002F
ENCODING 47
SWIDTH 396 0
DWIDTH 23 0
BBX 29 44 -2 0
BITMAP
00000078
000000F0
000001E0
000001E0
000003C0
00000380
00000780
00000700
00000F00
00000E00
00001E00
00003C00
00003C00
00007800
00007800
0000F000
0000E000
0001E000
0001C000
0003C000
00078000
00078000
000F0000
000F0000
001E0000
001C0000
003C0000
00380000
00780000
00F00000
00F00000
01E00000
01E00000
03C00000
03C00000
07800000
0F000000
0F000000
1E000000
1E000000
3C000000
3C000000
78000000
F8000000
ENDCHAR
STARTCHAR 0030
ENCODING 48
SWIDTH 655 0
DWIDTH 38 0
BBX 32 46 4 -1
BITMAP
00000400
00007FC0
0001FFE0
0007F3F8
000F80F8
001F007C
003E007E
007E003E
00FC003E
01F8003F
03F8003F
03F0003F
07F0003F
0FE0003F
0FE0003F
1FC0003F
1FC0003F
1FC0007F
3F80007F
3F80007F
7F80007F
7F00007F
7F00007F
7F0000FE
FF0000FE
FE0000FE
FE0000FC
FE0001FC
FE0001FC
FE0001F8
FE0003F8
FE0003F0
FE0007F0
FC0007E0
FC000FC0
7C000FC0
7C001F80
7E001F00
3E003E00
3E007C00
1F00F800
1F81F000
0FC7E000
07FFC000
01FF0000
00300000
ENDCHAR
STARTCHAR 0031
ENCODING 49
SWIDTH 465 0
DWIDTH 27 0
BBX 25 45 0 0
BITMAP
00000380
00000700
00000F00
00001F00
00007F00
0000FE00
0003FE00
001FFE00
01FFFE00
01FFFC00
01C0FC00
0000FC00
0000FC00
0001F800
0001F800
0001F800
0001F000
0003F000
0003F000
0003F000
0003E000
0007E000
0007E000
0007E000
000FC000
000FC000
000FC000
000FC000
001F8000
001F8000
001F8000
001F8000
003F0000
003F0000
003F0000
003F0000
007F0000
007F0000
00FF0000
00FF0000
01FF8000
07FFC000
FFFFFC00
FFFFFC00
FFFFF800
ENDCHAR
STARTCHAR 0032
ENCODING 50
SWIDTH 620 0
DWIDTH 36 0
BBX 33 45 1 0
BITMAP
0000040000
0001FFE000
0007FFF800
001FC3FC00
003F00FE00
007C007F00
00F8007F00
01F8003F80
01F0003F80
03F0003F80
03F0003F80
03F0003F80
03F0003F80
03F0003F80
03F8003F80
03FC007F00
01FF807F00
00FF807E00
007F00FE00
000001FC00
000001FC00
000003F800
000007F000
000007E000
00000FC000
00001F8000
00003F0000
00007E0000
0000FC0000
0001F80000
0003F00000
0007C00000
000F800000
003F000000
007C000000
00F8000C00
01F0001C00
03C0003800
0F8000F800
1FFFFFF800
3FFFFFF000
7FFFFFF000
FFFFFFE000
FFFFFFE000
FFFFFFE000
ENDCHAR
STARTCHAR 0033
ENCODING 51
SWIDTH 620 0
DWIDTH 36 0
BBX 32 46 1 -1
BITMAP
00000800
0001FFC0
0007FFF0
001FE3F8
003F00FC
007E007E
007C007E
00FC007F
00F8007F
00F8007F
00F8007F
00FC007F
00FE007E
007F807E
003F007C
000000FC
000001F8
000003F0
000007E0
00001FC0
0000FF00
000FF800
003FFE00
003FFF80
00001FE0
00000FF0
000007F0
000003F8
000003F8
07C003F8
1FE001FC
3FE001FC
3F8001FC
7F0001FC
7E0001F8
FE0001F8
FC0003F8
FC0003F0
7C0007E0
7E0007E0
7E000FC0
3F003F80
1FE1FE00
0FFFF800
03FFE000
00180000
ENDCHAR
STARTCHAR 0034
ENCODING 52
SWIDTH 586 0
DWIDTH 34 0
BBX 31 45 1 0
BITMAP
0000001C
0000003C
00000078
000000F8
000001F8
000003F8
000007F0
00000FF0
00001FF0
00003FF0
00007BE0
0000F3E0
0001E7E0
0007C7E0
000F87C0
001F0FC0
003E0FC0
007C0FC0
00F80F80
01F01F80
03E01F80
07801F80
0F001F00
1E003F00
3C003F00
7FFFFFFE
FFFFFFFC
FFFFFFFC
FFFFFFFC
00007E00
0000FC00
0000FC00
0000FC00
0000FC00
0001F800
0001F800
0001F800
0001F800
0003F000
0003F000
0003F000
0003F000
0007E000
0007E000
0007E000
ENDCHAR
STARTCHAR 0035
ENCODING 53
SWIDTH 603 0
DWIDTH 35 0
BBX 32 46 2 -1
BITMAP
00060007
000FFFFF
000FFFFE
000FFFFC
001FFFFC
001FFFF0
001C7FC0
003C0000
00380000
00380000
00780000
00700000
00700000
00F00000
00E00000
00E00000
01E00000
01DFF800
01FFFE00
03FFFF80
03E01FC0
038007E0
070007F0
000003F8
000001F8
000001F8
000001FC
000001FC
000001FC
1F0001FC
3F8001FC
7FC001FC
7E0001FC
FC0001FC
FC0003F8
F80003F8
F80003F0
F80007F0
F8000FE0
FC001FC0
7E003F80
7F007F00
3FC3FC00
0FFFF800
03FFC000
00100000
ENDCHAR
STARTCHAR 0036
ENCODING 54
SWIDTH 637 0
DWIDTH 37 0
BBX 32 46 4 -1
BITMAP
00000100
00003FF0
0001FFFC
0003F87E
000FC03F
001F803F
003F003F
007E003F
00FC001F
01F8000E
03F00000
03E00000
07E00000
0FC00000
0FC00000
1F800000
1F800000
3F87F000
3F3FFE00
3FFFFF00
7FF03F80
7FC00FC0
7F800FE0
7F8007E0
FF0007F0
FE0007F0
FE0007F0
FE0007F0
FC0003F0
FC0007F0
FC0007F0
FC0007F0
FC0007F0
FC0007F0
7C0007E0
7C000FE0
7C000FE0
7C001FC0
3E001F80
3E003F80
1F007F00
0F80FE00
07C3F800
03FFF000
00FFC000
00080000
ENDCHAR
STARTCHAR 0037
ENCODING 55
SWIDTH 517 0
DWIDTH 30 0
BBX 31 48 4 -1
BITMAP
01800000
01800000
03C00000
03FFFFFE
03FFFFFC
07FFFFFC
07FFFFF8
07FFFFF0
0F800070
0E0000E0
1E0001C0
1C0003C0
18000380
38000780
00000F00
00000F00
00001E00
00003C00
00007C00
00007800
0000F800
0001F000
0001E000
0003E000
0007C000
000FC000
000F8000
001F8000
003F0000
003E0000
007E0000
00FC0000
01FC0000
01F80000
03F80000
07F00000
07F00000
0FE00000
1FC00000
1FC00000
3F800000
7F800000
7F000000
FE000000
FE000000
FC000000
F8000000
20000000
ENDCHAR
STARTCHAR 0038
ENCODING 56
SWIDTH 637 0
DWIDTH 37 0
BBX 33 46 2 -1
BITMAP
0000080000
0001FFC000
0007FFF000
001FC3FC00
003F007E00
007C003E00
00FC003F00
00F8001F00
01F8001F80
01F8001F80
01F8001F80
03F8001F00
03F8001F00
01F8003F00
01FC003E00
01FE007E00
01FF00FC00
00FF81F800
007FE7E000
003FFFC000
001FFC0000
000FFF0000
001FFF8000
007DFFC000
01F07FE000
07E03FE000
0FC00FF000
1F8007F800
3F0007F800
3F0003F800
7E0001F800
7E0001F800
7E0001FC00
7C0001F800
FC0001F800
7C0001F800
7C0001F800
7E0001F000
7E0003F000
7E0003E000
3F0007C000
1F801F8000
0FF0FF0000
07FFFC0000
01FFF00000
000C000000
ENDCHAR
STARTCHAR 0039
ENCODING 57
SWIDTH 637 0
DWIDTH 37 0
BBX 32 46 3 -1
BITMAP
00001000
0003FF00
000FFFC0
003FC7E0
007F01F0
00FE00F8
01FC007C
03F8007C
03F0003E
07F0003E
07E0003E
0FE0003E
0FE0003F
0FE0003F
0FE0003F
0FC0003F
0FC0003F
0FC0007F
0FE0007F
0FE0007F
0FE000FF
07E000FE
07F001FE
03F003FE
01FC0FFE
00FFFFFE
007FFCFC
000FE1FC
000001F8
000001F8
000003F8
000003F0
000007F0
000007E0
00000FC0
00000FC0
78001F80
FC003F00
FC007E00
FC00FC00
FC01F800
FC07F000
7E1FC000
3FFF8000
0FFE0000
00800000
ENDCHAR
STARTCHAR 003A
ENCODING 58
SWIDTH 310 0
DWIDTH 18 0
BBX 13 26 1 -1
BITMAP
01E0
03F0
07F0
07F8
07F8
07F0
07F0
01E0
0000
0000
0000
0000
0000
0000
0000
0000
0000
1000
7E00
FE00
FF00
FF00
FF00
FE00
7E00
1000
ENDCHAR
STARTCHAR 003B
ENCODING 59
SWIDTH 310 0
DWIDTH 18 0
BBX 15 35 -1 -10
BITMAP
0078
00FC
01FC
01FE
01FE
01FC
01FC
0078
0000
0000
0000
0000
0000
0000
0000
0000
0000
0000
0F00
1F80
3FC0
3FC0
3FC0
3FC0
1FC0
0380
0380
0700
0700
0E00
1C00
3800
7000
E000
4000
ENDCHAR
STARTCHAR 003C
ENCODING 60
SWIDTH 620 0
DWIDTH 36 0
BBX 27 31 3 4
BITMAP
00000020
000000E0
000003E0
00000FE0
00003F80
0000FE00
0003F800
000FE000
003F8000
00FE0000
03F80000
0FE00000
1F800000
7E000000
F8000000
E0000000
F8000000
7E000000
3F800000
0FE00000
03F80000
00FE0000
003F8000
000FE000
0003F800
0000FE00
00003F80
00000FC0
000003E0
000000E0
00000020
ENDCHAR
STARTCHAR 003D
ENCODING 61
SWIDTH 637 0
DWIDTH 37 0
BBX 30 13 4 14
BITMAP
0FFFFFFC
1FFFFFFC
1FFFFFF8
00000000
00000000
00000000
00000000
00000000
00000000
00000000
7FFFFFE0
FFFFFFE0
FFFFFFE0
ENDCHAR
STARTCHAR 003E
ENCODING 62
SWIDTH 620 0
DWIDTH 36 0
BBX 27 31 7 4
BITMAP
80000000
E0000000
F8000000
FE000000
3F800000
0FE00000
03F80000
00FE0000
003F0000
000FC000
0003F000
0000FC00
00003F00
00000FC0
000003E0
000000E0
000003E0
00000FC0
00003F00
0000FC00
0003F000
000FE000
003F8000
00FE0000
03F80000
0FE00000
3F800000
FE000000
F8000000
E0000000
80000000
ENDCHAR
STARTCHAR 003F
ENCODING 63
SWIDTH 465 0
DWIDTH 27 0
BBX 20 46 8 -1
BITMAP
002000
07FE00
1FFF80
3F0FC0
7C03E0
7801E0
F800F0
F000F0
F800F0
FE00F0
FF00F0
FF80F0
7F01F0
3F03E0
0007E0
001FC0
003FC0
00FF80
01FF00
07FC00
0FF800
1FE000
3FC000
3F0000
7E0000
780000
F00000
F00000
E02000
E03000
F0E000
7FE000
3FC000
1F0000
000000
000000
000000
000000
100000
7C0000
FE0000
FE0000
FE0000
FE0000
7C0000
100000
ENDCHAR
STARTCHAR 0040
ENCODING 64
SWIDTH 1034 0
DWIDTH 60 0
BBX 53 53 4 -8
BITMAP
00000004000000
000007FFF80000
00003FFFFF0000
0000FFE07FC000
0003FC0003F000
000FF00000FC00
001F8000003E00
003F0000001F00
00FE0000000F80
01F80000000780
03F000000003C0
03E000000001E0
07C000000000E0
0FC000000000E0
0F80007F002070
1F0001FF87C070
3F0007FFC7C030
3E000FC0EFC038
3E001F806FC038
7E003F006F8038
7C007E007F8038
7C00FC003F8038
FC00FC003F0038
FC01F8003F0038
F801F8007F0038
F803F0007F0030
F803F0007E0030
F803F0007E0070
F807E000FE0070
F807E000FC0060
F807E000FC00E0
F807E001FC00E0
F807E001FC01C0
FC07E003FC0380
7C03E007F80380
7C03E00EF80700
7E01F01CF80E00
3E01F8387C3C00
3E00FFF07FF800
1F007FE03FF000
1F801F801F8000
0F800000000000
0FC00000000000
07E00000000000
03F00000000000
01F80000000700
00FE0000000F00
003F0000003C00
001FE00001F800
0007FC000FE000
0001FFFFFF8000
00007FFFFC0000
000003FFC00000
ENDCHAR
STARTCHAR 0041
ENCODING 65
SWIDTH 758 0
DWIDTH 44 0
BBX 46 45 -6 0
BITMAP
00000000007C
0000000000FC
0000000001F8
0000000003F8
0000000007F8
000000000FF8
000000000FF8
000000001FF0
000000003DF0
0000000079F0
00000000F3F0
00000001F3E0
00000001E3E0
00000003C3E0
0000000787E0
0000000F07E0
0000001E07C0
0000003E07C0
0000003C0FC0
000000780FC0
000000F00F80
000001E01F80
000003C01F80
000007801F80
00000F801F00
00000FFFFF00
00001FFFFF00
00003FFFFF00
000078003F00
0000F0003E00
0001E0007E00
0001C0007E00
000380007E00
000700007C00
000E00007C00
001E0000FC00
003C0000FC00
00780000FC00
00F00000F800
01E00001F800
03E00001F800
0FE00003FC00
3FFC000FFF00
FFFE007FFFE0
FFFE007FFFC0
ENDCHAR
STARTCHAR 0042
ENCODING 66
SWIDTH 741 0
DWIDTH 43 0
BBX 42 44 -2 0
BITMAP
001FFFFF8000
001FFFFFF000
0007FFFFFC00
0000FF00FE00
0000FE003F00
0000FE001F80
0000FC001F80
0000FC001FC0
0000FC000FC0
0000FC000FC0
0001F8000FC0
0001F8001FC0
0001F8001F80
0001F8001F80
0003F0003F80
0003F0007F00
0003F000FE00
0007E003FC00
0007E00FF000
0007FFFF8000
0007FFF80000
000FFFFF8000
000FC01FE000
000FC003F000
000F8001F800
001F8000FC00
001F8000FE00
001F80007E00
003F00007F00
003F00007F00
003F00007F00
003F00007F00
007E00007F00
007E00007F00
007E0000FE00
007E0000FE00
00FC0001FE00
00FC0003FC00
01FC0007F800
01FE000FF000
03FF007FE000
7FFFFFFF8000
7FFFFFFE0000
FFFFFFE00000
ENDCHAR
STARTCHAR 0043
ENCODING 67
SWIDTH 724 0
DWIDTH 42 0
BBX 40 46 4 -1
BITMAP
0000008000
00001FFE07
0000FFFF8E
0003FF0FFE
0007F003FE
001FC001FE
003F0000FE
007E00007C
00FC00007C
01F800003C
03F000003C
07F000003C
07E0000038
0FC0000018
0FC0000018
1FC0000000
1F80000000
3F80000000
3F00000000
7F00000000
7F00000000
7F00000000
7F00000000
7E00000000
FE00000000
FE00000000
FE00000000
FE00000000
FE00000000
FE00000000
FE00000000
FF00000000
7F00000080
7F000000E0
7F000001C0
3F80000380
3F80000780
3FC0000F00
1FC0001E00
0FF0003C00
07F800F800
03FFFFF000
01FFFFE000
00FFFF8000
001FFE0000
0000C00000
ENDCHAR
STARTCHAR 0044
ENCODING 68
SWIDTH 827 0
DWIDTH 48 0
BBX 48 44 -2 0
BITMAP
001FFFFF8000
001FFFFFF800
0003FFFFFE00
0000FF00FF80
00007E003FC0
00007E000FE0
0000FC0007F0
0000FC0003F8
0000FC0001FC
0001FC0000FC
0001F80000FE
0001F800007E
0001F800007E
0003F000007F
0003F000007F
0003F000007F
0003F000007F
0007E000007F
0007E000007F
0007E000007F
0007E000007F
000FC000007F
000FC000007F
000FC000007F
001F8000007E
001F800000FE
001F800000FE
001F800000FC
003F000001FC
003F000001FC
003F000003F8
003F000003F8
007E000007F0
007E00000FE0
007E00001FC0
007E00001FC0
00FC00007F80
00FC0000FF00
01FC0001FE00
01FE0007F800
03FF003FF000
7FFFFFFFC000
7FFFFFFE0000
FFFFFFE00000
ENDCHAR
STARTCHAR 0045
ENCODING 69
SWIDTH 741 0
DWIDTH 43 0
BBX 43 44 -2 0
BITMAP
001FFFFFFFE0
001FFFFFFFE0
001FFFFFFFE0
0001FE001FE0
0000FE0007E0
0000FE0003E0
0000FC0001E0
0000FC0001E0
0000FC0000E0
0000FC0000E0
0000F80000E0
0001F8000060
0001F8000000
0001F8038000
0003F0030000
0003F0070000
0003F0070000
0003E00F0000
0007E03F0000
0007FFFE0000
0007FFFE0000
0007FFFE0000
000FC07E0000
000FC03E0000
000FC01C0000
001F801C0000
001F801C0000
001F801C0000
001F001C0000
003F00180000
003F00000000
003F00000000
003E00000380
007E00000380
007E00000700
007E00000700
00FC00000E00
00FC00001E00
00FC00003E00
01FE00007C00
03FF0001FC00
1FFFE03FFC00
7FFFFFFFF800
FFFFFFFFF800
ENDCHAR
STARTCHAR 0046
ENCODING 70
SWIDTH 655 0
DWIDTH 38 0
BBX 43 44 -2 0
BITMAP
001FFFFFFFE0
001FFFFFFFE0
001FFFFFFFE0
0001FE001FE0
0000FE0007E0
0000FE0003E0
0000FC0001E0
0000FC0001E0
0000FC0000E0
0000FC0000E0
0001F80000E0
0001F8000060
0001F8000000
0001F8018000
0003F0038000
0003F0038000
0003F0070000
0003E00F0000
0007E01F0000
0007FFFF0000
0007FFFE0000
000FFFFE0000
000FC07E0000
000FC03E0000
000FC01C0000
001F801C0000
001F801C0000
001F801C0000
001F001C0000
003F00180000
003F00180000
003F00000000
007E00000000
007E00000000
007E00000000
007E00000000
00FC00000000
00FC00000000
01FE00000000
01FE00000000
03FF00000000
7FFFF8000000
7FFFF8000000
FFFFF8000000
ENDCHAR
STARTCHAR 0047
ENCODING 71
SWIDTH 810 0
DWIDTH 47 0
BBX 42 46 4 -1
BITMAP
000000200000
00001FFF81C0
00007FFFE1C0
0001FF87FBC0
0007F0007F80
000FC0003F80
003F80001F80
007F00000F80
00FE00000F80
01FC00000780
03F800000700
03F000000700
07E000000300
0FE000000000
0FC000000000
1FC000000000
1F8000000000
3F8000000000
3F8000000000
3F0000000000
7F0000000000
7F0000000000
7F0000000000
7F0000000000
FE0000000000
FE00007FFF80
FE00007FFF80
FE00007FFF80
FE00000FFC00
FE000007F800
FE000007F000
FE000003F000
7F000003F000
7F000003E000
7F000003E000
3F000007E000
3F800007C000
3F800007C000
1FC0000FC000
0FC0001FC000
07E0003F8000
03F800FF8000
01FF07FF8000
00FFFFF80000
001FFFC00000
0000C0000000
ENDCHAR
STARTCHAR 0048
ENCODING 72
SWIDTH 913 0
DWIDTH 53 0
BBX 59 44 -2 0
BITMAP
001FFFFC00FFFFE0
001FFFFC00FFFFC0
001FFFFC01FFFFC0
0000FF80000FFC00
0000FF000007F800
0000FE000007F000
0000FE000007E000
0000FC000007E000
0000FC00000FE000
0000FC00000FC000
0001F800000FC000
0001F800000FC000
0001F800001F8000
0001F800001F8000
0003F000001F8000
0003F000001F8000
0003F000003F0000
0003F000003F0000
0007E000003F0000
0007E000007E0000
0007FFFFFFFE0000
000FFFFFFFFE0000
000FFFFFFFFE0000
000FC00000FC0000
000FC00000FC0000
001F800000FC0000
001F800001FC0000
001F800001F80000
001F000001F80000
003F000001F80000
003F000003F00000
003F000003F00000
007E000003F00000
007E000003F00000
007E000007E00000
007E000007E00000
00FC000007E00000
00FC00000FE00000
01FC00000FE00000
01FE00001FE00000
07FE00003FF00000
7FFFF007FFFF0000
7FFFE007FFFF0000
FFFFE007FFFF0000
ENDCHAR
STARTCHAR 0049
ENCODING 73
SWIDTH 413 0
DWIDTH 24 0
BBX 30 44 -2 0
BITMAP
001FFFFC
001FFFFC
001FFFFC
0000FF80
0000FF00
0000FE00
0000FE00
0000FC00
0000FC00
0000FC00
0001F800
0001F800
0001F800
0001F800
0003F000
0003F000
0003F000
0003F000
0007E000
0007E000
0007E000
000FC000
000FC000
000FC000
000FC000
001F8000
001F8000
001F8000
001F8000
003F0000
003F0000
003F0000
007E0000
007E0000
007E0000
007E0000
00FC0000
00FC0000
01FC0000
01FE0000
07FE0000
7FFFF000
7FFFE000
FFFFE000
ENDCHAR
STARTCHAR 004A
ENCODING 74
SWIDTH 551 0
DWIDTH 32 0
BBX 37 45 -1 -1
BITMAP
00003FFFF8
00003FFFF8
00003FFFF8
000001FF80
000000FF00
000000FE00
000000FC00
000000FC00
000001FC00
000001F800
000001F800
000001F800
000003F000
000003F000
000003F000
000003F000
000007E000
000007E000
000007E000
000007E000
00000FC000
00000FC000
00000FC000
00001F8000
00001F8000
00001F8000
00001F8000
00003F0000
00003F0000
00003F0000
00003F0000
1E007E0000
7F007E0000
7F007E0000
FF00FC0000
FF00FC0000
FF01FC0000
FC01F80000
F803F80000
F807F00000
FC0FE00000
7E3FC00000
3FFF000000
1FFE000000
0080000000
ENDCHAR
STARTCHAR 004B
ENCODING 75
SWIDTH 827 0
DWIDTH 48 0
BBX 50 44 -1 0
BITMAP
003FFFF87FFFC0
003FFFF87FFFC0
003FFFF87FFFC0
0001FF000FFE00
0001FE0007F800
0001FC0007E000
0001FC000FC000
0001F8001F8000
0001F8003E0000
0001F8007C0000
0003F001F00000
0003F003E00000
0003F00F800000
0003F01F000000
0007E07C000000
0007E0F8000000
0007E3E0000000
0007E7C0000000
000FCF00000000
000FFF80000000
000FFF80000000
001FFFC0000000
001FDFE0000000
001F8FF0000000
001F87F8000000
003F03F8000000
003F01FC000000
003F01FE000000
007E00FF000000
007E007F800000
007E003F800000
007E003FC00000
00FC001FE00000
00FC000FF00000
00FC0007F80000
00FC0003F80000
01F80003FC0000
01F80001FE0000
03F80001FF0000
03FC0000FF8000
0FFC0001FFC000
FFFFE01FFFFC00
FFFFE01FFFF800
FFFFE01FFFF800
ENDCHAR
STARTCHAR 004C
ENCODING 76
SWIDTH 706 0
DWIDTH 41 0
BBX 39 44 -1 0
BITMAP
003FFFF800
003FFFF800
003FFFF800
0001FF0000
0001FE0000
0001FC0000
0001FC0000
0001F80000
0001F80000
0001F80000
0003F00000
0003F00000
0003F00000
0003F00000
0007E00000
0007E00000
0007E00000
0007C00000
000FC00000
000FC00000
000FC00000
001F800000
001F800000
001F800000
001F800000
003F000000
003F000000
003F000000
003E000000
007E000000
007E000000
007E00000E
007C00001C
00FC00001C
00FC00003C
00FC000038
01F8000078
01F80000F0
01FC0001F0
03FC0007F0
07FE001FE0
FFFFFFFFE0
FFFFFFFFE0
FFFFFFFFC0
ENDCHAR
STARTCHAR 004D
ENCODING 77
SWIDTH 1017 0
DWIDTH 59 0
BBX 64 44 -2 0
BITMAP
001FFF8000001FFF
001FFFC000001FFF
001FFFC000003FFE
0000FFC000007FF0
0000FFC000007FE0
00007FC00000FFC0
0000FFC00001FFC0
0000FFC00001FF80
0000FFC00003DF80
0000E7E000079F80
0000E7E00007BF00
0001E7E0000F3F00
0001C7E0001E3F00
0001C7E0001E7E00
0003C7E0003C7E00
0003C7E0003C7E00
000387E000787E00
000383F000F0FC00
000783F000F0FC00
000783F001E0FC00
000703F003C1F800
000703F003C1F800
000F03F00781F800
000E03F00F01F800
000E03F00F03F000
001E03F01E03F000
001E01F83C03F000
001C01F83C03F000
001C01F87807E000
003C01F8F807E000
003C01F8F007E000
003801F9E00FC000
007801F9E00FC000
007801FBC00FC000
007000FF800FC000
007000FF801F8000
00F000FF001F8000
00F000FE001F8000
01F000FE003F8000
03F800FC007F8000
0FFC00FC00FFC000
7FFF80F80FFFFE00
7FFF80700FFFFE00
FFFF80700FFFFC00
ENDCHAR
STARTCHAR 004E
ENCODING 78
SWIDTH 844 0
DWIDTH 49 0
BBX 54 44 -1 0
BITMAP
00FFFC0001FFFC
00FFFC0003FFF8
01FFFE0003FFF8
000FFE00007FC0
0003FF00003F80
0001FF00001F00
0000FF80001F00
0000FF80001E00
0000FFC0001E00
0000FFC0001C00
0000EFC0001C00
0001EFE0003C00
0001E7E0003C00
0001C7F0003800
0003C7F0007800
0003C3F8007800
000383F8007000
000381FC007000
000781FC00F000
000780FC00F000
000700FE00E000
0007007E00E000
000F007F01E000
000F007F01E000
000E003F81C000
001E003F81C000
001E001F83C000
001C001FC38000
001C000FC38000
003C000FE78000
003C0007E78000
00380007F70000
00380003F70000
00780003FF0000
00780003FF0000
00700001FE0000
00F00001FE0000
00F00000FE0000
01F80000FC0000
03F800007C0000
0FFC00007C0000
7FFFC0003C0000
7FFF8000380000
FFFF8000380000
ENDCHAR
STARTCHAR 004F
ENCODING 79
SWIDTH 827 0
DWIDTH 48 0
BBX 41 46 4 -1
BITMAP
000000400000
00001FFE0000
0000FFFFC000
0003FE0FE000
0007F003F000
001FC001F800
003F0000FC00
007E00007E00
00FC00007E00
01F800003F00
03F000003F00
07F000003F80
07E000003F80
0FE000003F80
0FC000003F80
1FC000003F80
1F8000003F80
3F8000003F80
3F8000003F80
3F0000003F80
7F0000003F80
7F0000003F80
7F0000003F80
7F0000003F80
FE0000003F80
FE0000003F80
FE0000007F00
FE0000007F00
FE0000007F00
FE000000FE00
FE000000FE00
7E000000FC00
7F000001FC00
7F000001F800
7F000003F000
3F000007F000
3F800007E000
1F80000FC000
1FC0001F8000
0FC0003F0000
07E0007E0000
03F001F80000
01FE1FF00000
00FFFFC00000
001FFE000000
000080000000
ENDCHAR
STARTCHAR 0050
ENCODING 80
SWIDTH 672 0
DWIDTH 39 0
BBX 42 44 -1 0
BITMAP
003FFFFF0000
003FFFFFF000
007FFFFFFC00
0003FE01FE00
0001FC007F00
0001FC003F80
0001FC001F80
0001F8001FC0
0001F8000FC0
0001F8000FC0
0001F0000FC0
0003F0001FC0
0003F0001FC0
0003F0001F80
0003E0003F80
0007E0007F00
0007E000FE00
0007C001FC00
000FC007F800
000FC03FF000
000FFFFFC000
000FFFFE0000
001FFFE00000
001F80000000
001F80000000
003F00000000
003F00000000
003F00000000
003E00000000
007E00000000
007E00000000
007E00000000
007C00000000
00FC00000000
00FC00000000
00FC00000000
01F800000000
01F800000000
03FC00000000
03FC00000000
0FFE00000000
7FFFF0000000
FFFFF0000000
FFFFE0000000
ENDCHAR
STARTCHAR 0051
ENCODING 81
SWIDTH 827 0
DWIDTH 48 0
BBX 42 60 4 -15
BITMAP
000000400000
00001FFF0000
0000FFFFC000
0001FF0FF000
0007F001F800
001FC000FC00
003F00007E00
007E00003E00
00FC00003F00
01F800003F80
03F800001F80
03F000001F80
07E000001FC0
0FE000001FC0
0FC000001FC0
1FC000001FC0
1F8000001FC0
3F8000001FC0
3F8000001FC0
3F0000001FC0
7F0000001FC0
7F0000001FC0
7F0000001FC0
7F0000001FC0
FE0000001FC0
FE0000003F80
FE0000003F80
FE0000003F80
FE0000007F00
FE0000007F00
FE0000007F00
7E000000FE00
7F000000FC00
7F000001FC00
7F000001F800
3F000003F000
3F800007F000
1F80000FE000
1FC0001FC000
0FE0003F8000
07F0007F0000
03F801FC0000
01FFFFF00000
00FFFFC00000
003FFF800000
0001FE000000
0003F8000000
001FE0000000
007F80000000
03FFC00000C0
0FFFF80001C0
3FFFFE000380
7FCFFF800380
FF01FFE00F00
FE00FFFFFF00
FC003FFFFE00
F8001FFFFC00
200007FFF000
000001FFC000
000000080000
ENDCHAR
STARTCHAR 0052
ENCODING 82
SWIDTH 758 0
DWIDTH 44 0
BBX 43 44 -1 0
BITMAP
003FFFFF0000
003FFFFFE000
007FFFFFF800
0003FE01FC00
0001FC007E00
0001FC003F00
0001FC003F80
0001F8001F80
0001F8001F80
0001F8001F80
0001F0001F80
0003F0001F80
0003F0003F80
0003F0003F00
0007E0007F00
0007E000FE00
0007E001FC00
0007C007F800
000FC01FF000
000FFFFFC000
000FFFFF0000
000FFFF80000
001F81F80000
001F81F80000
001F81FC0000
003F00FC0000
003F00FE0000
003F00FE0000
003E007E0000
007E007F0000
007E003F0000
007E003F8000
00FC003F8000
00FC001F8000
00FC001FC000
00FC000FC000
01F8000FE000
01F8000FE000
03FC0007F000
07FC0007F800
0FFE0003FC00
7FFFF003FFE0
FFFFF003FFC0
FFFFE001FFC0
ENDCHAR
STARTCHAR 0053
ENCODING 83
SWIDTH 603 0
DWIDTH 35 0
BBX 33 46 1 -1
BITMAP
0000040000
0000FFC000
0003FFF180
000FF1F980
001F003F80
003E001F00
007C001F00
007C000F00
00F8000F00
00F8000E00
00F8000E00
01F8000600
01FC000600
00FC000000
00FE000000
00FF000000
00FF800000
007FC00000
003FF00000
003FF80000
001FFC0000
000FFF0000
0003FF8000
0001FFC000
0000FFE000
00003FE000
00001FF000
00000FF000
000007F800
000003F800
000001F800
300001F800
300000F800
380000F800
380000F800
380000F000
780000F000
7C0001F000
7C0001E000
7E0003C000
7F0007C000
EF800F8000
E7F07E0000
C1FFFC0000
C07FF00000
0006000000
ENDCHAR
STARTCHAR 0054
ENCODING 84
SWIDTH 775 0
DWIDTH 45 0
BBX 44 44 5 0
BITMAP
07FFFFFFFFF0
0FFFFFFFFFF0
0FFFFFFFFFF0
1FF01FF80FE0
1F800FF003E0
1F000FE001E0
3E000FC001E0
38000FC000E0
70000FC000E0
70001F8000E0
E0001F8000E0
C0001F8000E0
00001F800000
00003F000000
00003F000000
00003F000000
00003E000000
00007E000000
00007E000000
00007E000000
0000FC000000
0000FC000000
0000FC000000
0000FC000000
0001F8000000
0001F8000000
0001F8000000
0003F0000000
0003F0000000
0003F0000000
0003F0000000
0007E0000000
0007E0000000
0007E0000000
0007C0000000
000FC0000000
000FC0000000
001FC0000000
001FC0000000
003FC0000000
007FE0000000
0FFFFF000000
0FFFFF000000
1FFFFF000000
ENDCHAR
STARTCHAR 0055
ENCODING 85
SWIDTH 810 0
DWIDTH 47 0
BBX 44 45 7 -1
BITMAP
7FFFE00FFFF0
FFFFE00FFFE0
FFFFE00FFFE0
0FFC0000FF00
07F800007E00
07F000003C00
07F000003C00
07E000003800
07E000007800
07E000007800
0FC000007800
0FC000007000
0FC000007000
0FC000007000
1F800000F000
1F800000F000
1F800000E000
1F800000E000
3F000000E000
3F000001E000
3F000001E000
7E000001C000
7E000001C000
7E000003C000
7E000003C000
FC0000038000
FC0000078000
FC0000078000
FC0000070000
FC00000F0000
F800000F0000
F800000E0000
F800001E0000
F800001C0000
FC00003C0000
FC0000380000
FC0000780000
7E0000F00000
7E0001E00000
3F0003C00000
1FC00F800000
0FF07F000000
07FFFC000000
01FFF0000000
000600000000
ENDCHAR
STARTCHAR 0056
ENCODING 86
SWIDTH 758 0
DWIDTH 44 0
BBX 46 45 6 -1
BITMAP
0FFFF801FFFC
0FFFF801FFFC
0FFFF803FFFC
00FF80003FC0
007F00003F80
007E00003E00
007E00003C00
007E00007800
007C0000F000
007C0001E000
00FC0003C000
00FC00038000
00F800070000
00F8000F0000
01F8001E0000
01F8003C0000
01F800780000
01F000F00000
03F000E00000
03F001E00000
03F003C00000
03F007800000
03E00F000000
07E01E000000
07E01C000000
07E03C000000
07C078000000
0FC0F0000000
0FC1E0000000
0FC3C0000000
0FC7C0000000
0F8780000000
1F8F00000000
1F9E00000000
1FBC00000000
1F7800000000
3FF800000000
3FF000000000
3FE000000000
3FC000000000
7F8000000000
7F0000000000
7F0000000000
7E0000000000
FC0000000000
ENDCHAR
STARTCHAR 0057
ENCODING 87
SWIDTH 1068 0
DWIDTH 62 0
BBX 64 45 6 -1
BITMAP
0FFFF07FFF807FFF
0FFFF0FFFF807FFF
0FFFF0FFFF80FFFF
00FF800FF8000FF0
007F0007F0000FC0
007E0007E0000F80
007E0007E0001F00
007E0007C0003E00
007C000FC0003C00
00FC000FC0007800
00FC000FC000F000
00FC000F8001E000
00F8001F8001C000
00F8003F8003C000
01F8007F80078000
01F800FF800F0000
01F000FF001E0000
01F001FF001C0000
03F003FF003C0000
03F007BF00780000
03F00F3E00F00000
03E00F3E00E00000
07E01E7E01E00000
07E03C7E03C00000
07E0787C07800000
07C0F07C0F000000
07C0F0FC0F000000
0FC1E0FC1E000000
0FC3C0FC3C000000
0FC780F878000000
0F8781F8F0000000
1F8F01F8F0000000
1F9E01F9E0000000
1FBC01F3C0000000
1F7801F780000000
3F7803FF80000000
3FF003FF00000000
3FE003FE00000000
3FC003FC00000000
3FC007F800000000
7F8007F800000000
7F0007F000000000
7E0007E000000000
7E000FC000000000
FC000FC000000000
ENDCHAR
STARTCHAR 0058
ENCODING 88
SWIDTH 775 0
DWIDTH 45 0
BBX 49 44 -2 0
BITMAP
007FFFE03FFF80
007FFFE03FFF80
00FFFFC03FFF80
000FFE0007F800
0007FE0007F000
0003FC0007C000
0001FE000F8000
0000FE000F0000
0000FE001E0000
00007E003C0000
00007F00780000
00003F00F00000
00003F81E00000
00001F81C00000
00001FC3C00000
00000FC7800000
00000FEF000000
00000FFE000000
000007FC000000
000007F8000000
000003F8000000
000003F8000000
000003FC000000
000007FC000000
00000FFC000000
00001EFE000000
00003C7E000000
0000787F000000
0000F03F000000
0001E03F800000
0003C01F800000
0003801FC00000
0007800FC00000
000F000FE00000
001E0007E00000
003C0007F00000
007C0007F00000
00F80007F80000
01F80003FC0000
03F80007FE0000
07F8000FFF0000
3FFF807FFFF000
FFFF80FFFFF000
FFFF80FFFFE000
ENDCHAR
STARTCHAR 0059
ENCODING 89
SWIDTH 689 0
DWIDTH 40 0
BBX 40 44 5 0
BITMAP
7FFF803FFF
FFFF807FFF
FFFF807FFF
0FF80007F0
07F00007E0
03F00007C0
03F80007C0
01F8000780
01FC000F00
00FC001E00
00FC001E00
007E003C00
007E007800
007F00F000
003F00F000
003F81E000
001F83C000
001F838000
000FC78000
000FCF0000
000FFE0000
0007FC0000
0007FC0000
0003F80000
0003F00000
0003F00000
0003F00000
0003F00000
0007E00000
0007E00000
0007E00000
000FE00000
000FC00000
000FC00000
000FC00000
001F800000
001F800000
001F800000
003F800000
007F800000
00FFC00000
1FFFFE0000
1FFFFE0000
1FFFFC0000
ENDCHAR
STARTCHAR 005A
ENCODING 90
SWIDTH 672 0
DWIDTH 39 0
BBX 40 44 0 0
BITMAP
000FFFFFFF
001FFFFFFF
001FFFFFFE
003F8003FE
003E0003FC
007C0007F8
0070000FF0
00F0001FE0
00E0001FE0
01C0003FC0
0180007F80
020000FF00
000001FF00
000001FE00
000003FC00
000007F800
00000FF000
00001FF000
00001FE000
00003FC000
00007F8000
0000FF8000
0000FF0000
0001FE0000
0003FC0000
0007F80000
000FF80000
000FF00000
001FE00000
003FC00000
007FC00000
00FF800060
00FF0000E0
01FE0000C0
03FC0001C0
07FC0003C0
07F8000780
0FF0000F80
1FE0001F80
3FE0007F00
7FC003FF00
7FFFFFFE00
FFFFFFFE00
FFFFFFFE00
ENDCHAR
STARTCHAR 005B
ENCODING 91
SWIDTH 362 0
DWIDTH 21 0
BBX 29 56 -1 -9
BITMAP
0001FFF8
0001FFF8
0003FFF0
0003E000
0003E000
0003E000
0007E000
0007C000
0007C000
000FC000
000F8000
000F8000
000F8000
001F8000
001F0000
001F0000
001F0000
003F0000
003E0000
003E0000
003E0000
007C0000
007C0000
007C0000
00FC0000
00F80000
00F80000
00F80000
01F80000
01F00000
01F00000
01F00000
03E00000
03E00000
03E00000
07E00000
07C00000
07C00000
07C00000
0FC00000
0F800000
0F800000
0F800000
1F000000
1F000000
1F000000
3F000000
3E000000
3E000000
3E000000
7E000000
7C000000
7C000000
7FFE0000
FFFC0000
FFFC0000
ENDCHAR
STARTCHAR 005C
ENCODING 92
SWIDTH 465 0
DWIDTH 27 0
BBX 11 44 9 0
BITMAP
E000
E000
E000
F000
7000
7000
7000
7000
7800
7800
3800
3800
3800
3800
3C00
3C00
1C00
1C00
1C00
1E00
1E00
0E00
0E00
0E00
0F00
0F00
0F00
0700
0700
0780
0780
0780
0380
0380
03C0
03C0
03C0
03C0
01C0
01C0
01E0
01E0
01E0
00E0
ENDCHAR
STARTCHAR 005D
ENCODING 93
SWIDTH 362 0
DWIDTH 21 0
BBX 29 56 -6 -9
BITMAP
0001FFF8
0001FFF8
0001FFF8
000001F0
000001F0
000001F0
000003F0
000003E0
000003E0
000007E0
000007C0
000007C0
000007C0
00000FC0
00000F80
00000F80
00000F80
00001F80
00001F00
00001F00
00003F00
00003E00
00003E00
00003E00
00007E00
00007C00
00007C00
00007C00
0000FC00
0000F800
0000F800
0001F800
0001F000
0001F000
0001F000
0003F000
0003E000
0003E000
0003E000
0007E000
0007C000
0007C000
000FC000
000F8000
000F8000
000F8000
001F8000
001F0000
001F0000
001F0000
003F0000
003E0000
003E0000
7FFE0000
FFFC0000
FFFC0000
ENDCHAR
STARTCHAR 005E
ENCODING 94
SWIDTH 482 0
DWIDTH 28 0
BBX 19 11 3 13
BITMAP
003E00
007F00
00FF00
01FF00
03EF80
07C780
0787C0
0E03C0
1C01C0
3800E0
F000E0
ENDCHAR
STARTCHAR 005F
ENCODING 95
SWIDTH 724 0
DWIDTH 42 0
BBX 35 4 -3 -8
BITMAP
3FFFFFFFE0
7FFFFFFFC0
7FFFFFFFC0
FFFFFFFFC0
ENDCHAR
STARTCHAR 0060
ENCODING 96
SWIDTH 275 0
DWIDTH 16 0
BBX 12 9 2 37
BITMAP
2000
F800
FC00
FE00
7F00
3F80
0F80
03C0
00F0
ENDCHAR
STARTCHAR 0061
ENCODING 97
SWIDTH 568 0
DWIDTH 33 0
BBX 30 32 1 -1
BITMAP
0001F000
0007FCF8
001FFDF0
003F0FF0
007C0FF0
01F807E0
01F007E0
03E007C0
07C00FC0
0FC00FC0
0F800F80
1F000F80
3F001F80
3E001F00
7E001F00
7E003F00
7C003E00
FC003E00
FC007E00
F8007E00
F800FC00
F801FC08
F801FC0C
F803FC18
F8077C38
FC0FF870
FC1EFCE0
FFFCFFC0
7FF8FF80
7FF07F00
3FC07E00
04001000
ENDCHAR
STARTCHAR 0062
ENCODING 98
SWIDTH 534 0
DWIDTH 31 0
BBX 27 49 2 -1
BITMAP
03FF8000
03FF8000
007F0000
003F0000
003F0000
003E0000
007E0000
007E0000
007C0000
007C0000
00FC0000
00F80000
00F80000
01F80000
01F00000
01F00000
03F00000
03E0FE00
03E3FF00
07E7FF80
07DF0FC0
07DC07C0
07F807E0
0FF007E0
0FE007E0
0FE007E0
1FC007E0
1F8007E0
1F8007E0
3F000FC0
3F000FC0
3E000FC0
7E000FC0
7E001F80
7C001F80
7C003F00
FC003F00
F8007E00
F8007C00
F800FC00
F801F800
F803F000
F803E000
F807C000
FC1F8000
7E7F0000
3FFC0000
1FF00000
01000000
ENDCHAR
STARTCHAR 0063
ENCODING 99
SWIDTH 448 0
DWIDTH 26 0
BBX 24 32 1 -1
BITMAP
0001F0
000FFC
001FFE
007C3F
00F83F
01F03F
03E03F
07E01E
07C008
0F8000
1F8000
1F0000
3F0000
3F0000
7E0000
7E0000
7E0000
FC0000
FC0000
FC0000
FC0000
FC0030
FC0038
FC0070
FC00E0
FC01E0
7E03C0
7E0780
3FFF00
1FFC00
0FF800
018000
ENDCHAR
STARTCHAR 0064
ENCODING 100
SWIDTH 603 0
DWIDTH 35 0
BBX 34 49 1 -1
BITMAP
000003FFC0
000003FF80
000003FF80
0000001F80
0000001F00
0000001F00
0000001F00
0000003F00
0000003E00
0000003E00
0000007E00
0000007C00
0000007C00
0000007C00
000000FC00
000000F800
000000F800
0001F1F800
0007FDF000
001FFFF000
003F0FF000
007C07F000
00F807E000
01F007E000
03E007E000
07C007E000
0FC007C000
0F8007C000
1F800FC000
3F000F8000
3F000F8000
7E001F8000
7E001F8000
7C001F0000
FC003F0000
FC003F0000
FC007F0000
F8007F0300
F800FE0700
F801FE0600
F801FE0E00
F803BE0C00
FC07BE1C00
FE0F3E3800
7FFE3FF800
7FFC3FF000
3FF81FE000
1FE01FC000
0200020000
ENDCHAR
STARTCHAR 0065
ENCODING 101
SWIDTH 448 0
DWIDTH 26 0
BBX 25 32 1 -1
BITMAP
0001F800
0007FE00
001FFF00
003E1F00
00F81F80
01F01F80
03E01F00
07E01F00
07C03F00
0F803E00
1F807C00
1F00F800
3F01F000
3E03E000
7E0F8000
7E3F0000
7DFC0000
FFE00000
FF800000
FC000000
FC000000
FC000000
FC002000
FC003800
FC007000
FC00E000
FC01C000
7E038000
7F9F0000
3FFE0000
0FF80000
01800000
ENDCHAR
STARTCHAR 0066
ENCODING 102
SWIDTH 327 0
DWIDTH 19 0
BBX 42 63 -11 -15
BITMAP
00000000FC00
00000003FF00
0000000FFF80
0000001F0FC0
0000001E0FC0
0000003E0FC0
0000007C07C0
000000780380
000000F80000
000000F80000
000001F00000
000001F00000
000003F00000
000003E00000
000003E00000
000007E00000
000007C00000
000007C00000
000007C00000
0001FFFF0000
0001FFFE0000
0003FFFE0000
00000F800000
00001F800000
00001F800000
00001F000000
00001F000000
00003F000000
00003F000000
00003E000000
00003E000000
00007E000000
00007E000000
00007C000000
00007C000000
0000FC000000
0000FC000000
0000F8000000
0000F8000000
0001F8000000
0001F8000000
0001F0000000
0001F0000000
0003F0000000
0003F0000000
0003E0000000
0003E0000000
0007E0000000
0007C0000000
0007C0000000
000FC0000000
000F80000000
000F80000000
000F80000000
001F00000000
201F00000000
F81E00000000
F83C00000000
FC7C00000000
FFF800000000
FFF000000000
3FC000000000
040000000000
ENDCHAR
STARTCHAR 0067
ENCODING 103
SWIDTH 551 0
DWIDTH 32 0
BBX 38 46 -4 -15
BITMAP
00003F00F0
0001FFC3F8
0007FFF7FC
000FE1FFFC
001F80FC7C
003F00FC3C
007F00FC00
007E007C00
00FE00FC00
00FC00FC00
00FC00FC00
00F800FC00
00F800FC00
00F801F800
00F801F800
00F803F000
00F803F000
007807E000
007C0FC000
003E1F8000
001FFE0000
003FF80000
00FF000000
03F0000000
07F0000000
07F0000000
07FC000000
07FFC00000
03FFFE0000
01FFFF8000
007FFFE000
000FFFF000
1F007FF800
7E0007F800
FC0001F800
F80000F800
F800007800
F800007800
F80000F800
F80000F000
FC0001E000
7E0007C000
3FC03F8000
0FFFFF0000
03FFF80000
0006000000
ENDCHAR
STARTCHAR 0068
ENCODING 104
SWIDTH 568 0
DWIDTH 33 0
BBX 31 49 0 -1
BITMAP
01FFE000
01FFE000
01FFC000
001FC000
000FC000
000F8000
000F8000
001F8000
001F8000
001F0000
001F0000
003F0000
003E0000
003E0000
007E0000
007E0000
007C0000
007C1F80
00FC7FC0
00F9FFE0
00FBC3E0
01FF83F0
01F703F0
01FE03F0
01FC03F0
03FC03E0
03F803E0
03F007E0
07F007E0
07E007E0
07E00FC0
0FE00FC0
0FC00FC0
0FC01F80
0F801F80
1F801F80
1F003F00
1F003F00
3F003E00
3E003E04
3E007E0E
7E007C0C
7C007C1C
7C007C78
7C007FF0
F8007FE0
F8007F80
F8007E00
00001000
ENDCHAR
STARTCHAR 0069
ENCODING 105
SWIDTH 344 0
DWIDTH 20 0
BBX 18 49 2 -1
BITMAP
000F00
001F80
001FC0
001FC0
001FC0
001F80
000F00
000000
000000
000000
000000
000000
000000
000000
000000
000000
000000
00F800
01F800
07FC00
0FFC00
1FFC00
39F800
71F800
E1F800
C1F800
C3F000
03F000
03E000
07E000
07E000
07C000
0FC000
0FC000
0F8000
1F8000
1F8000
1F0000
3F0200
3E0700
3E0E00
7E0C00
7E1C00
7E7800
7FF000
7FE000
7FC000
3F0000
080000
ENDCHAR
STARTCHAR 006A
ENCODING 106
SWIDTH 293 0
DWIDTH 17 0
BBX 28 63 -11 -15
BITMAP
000001E0
000003F0
000007F0
000007F0
000007F0
000003F0
000001E0
00000000
00000000
00000000
00000000
00000000
00000000
00000000
00000000
00000000
00000000
00000780
00001FC0
00007FC0
0000FFC0
0001FFC0
00039FC0
00071F80
00061F80
000C1F80
00041F80
00003F00
00003F00
00003F00
00003F00
00007E00
00007E00
00007E00
00007E00
0000FC00
0000FC00
0000FC00
0000F800
0001F800
0001F800
0001F800
0001F000
0003F000
0003F000
0003E000
0003E000
0007E000
0007E000
0007C000
0007C000
000FC000
000F8000
000F8000
000F0000
701F0000
F81E0000
FC3C0000
FC380000
FFF00000
7FE00000
3F800000
04000000
ENDCHAR
STARTCHAR 006B
ENCODING 107
SWIDTH 517 0
DWIDTH 30 0
BBX 27 49 0 -1
BITMAP
01FFC000
03FFC000
001FC000
001F8000
001F8000
001F8000
001F0000
001F0000
001F0000
003F0000
003E0000
003E0000
007E0000
007E0000
007C0000
007C0000
00FC0000
00FC3F00
00F8FF80
00F9FFC0
01FBFFE0
01F78FE0
01FE07E0
01FC07E0
03F807C0
03F80FC0
03F00F80
07F01F00
07E03E00
07E0F800
07C1F000
0FC7C000
0FFF0000
0FFE0000
0FFF0000
1FBF0000
1F9F0000
1F1F8000
3F0F8000
3F0FC040
3E0FC060
3E07E0C0
7E07E1C0
7E03FF80
7C03FF00
7C01FF00
FC01FE00
F800F800
00002000
ENDCHAR
STARTCHAR 006C
ENCODING 108
SWIDTH 310 0
DWIDTH 18 0
BBX 17 49 1 -1
BITMAP
03FF80
03FF80
007F00
003F00
003F00
003F00
003E00
003E00
007E00
007E00
007C00
007C00
00FC00
00F800
00F800
01F800
01F800
01F000
01F000
03F000
03F000
03E000
03E000
07E000
07C000
07C000
07C000
0FC000
0F8000
0F8000
1F8000
1F8000
1F0000
1F0000
3F0000
3E0000
3E0000
3E0400
7E0700
7C0600
7C0E00
7C1C00
7C3800
FC7000
FFE000
FFC000
7F8000
7F0000
080000
ENDCHAR
STARTCHAR 006D
ENCODING 109
SWIDTH 862 0
DWIDTH 50 0
BBX 48 32 1 -1
BITMAP
00F003E007C0
03F80FF01FF0
07FC3FF83FF0
0E7C78F870F0
1C7CF0F8E0F8
187CE0F9C0F8
307DC0F981F0
307B80FB81F0
60FB00FF01F0
60FF01F603F0
C0FE01FC03E0
C1FC01FC03E0
01FC01F807E0
01F803F807C0
03F803F00FC0
03F003F00FC0
03F007E00F80
07E007E01F80
07E007C01F80
07E00FC01F00
07C00FC03F02
0FC00F803F07
0F801F803E06
0F801F807E0C
1F801F007E1C
1F003F007E38
1F003E007E70
3F003E007FE0
3E007E007FC0
3E007C007F80
7C00FC003E00
000000001000
ENDCHAR
STARTCHAR 006E
ENCODING 110
SWIDTH 620 0
DWIDTH 36 0
BBX 33 32 1 -1
BITMAP
00F003F000
03F80FFC00
07FC1FFC00
0E7C3C7E00
1C7C707E00
187CE07E00
307DC07E00
307B807C00
60FB00FC00
60FF00FC00
C0FE00FC00
C1FC01F800
01FC01F800
01F801F800
03F803F000
03F003F000
03F003F000
07E007E000
07E007E000
07E007E000
07C00FC000
0FC00FC000
0F800FC180
0F801F8380
1F801F8700
1F001F8E00
1F001F9C00
3F001FF800
3E001FF000
3E001FE000
7C000F8000
0000040000
ENDCHAR
STARTCHAR 006F
ENCODING 111
SWIDTH 517 0
DWIDTH 30 0
BBX 27 32 1 -1
BITMAP
0003F000
001FFC00
003FFE00
00FE1F00
01F80F80
03F00780
07F007C0
07E007C0
0FC007C0
1FC007E0
1F8007E0
3F8007E0
3F8007E0
7F000FC0
7F000FC0
7F000FC0
7E000FC0
7E001F80
FE001F80
FE001F80
FE003F00
FE003F00
7C007E00
7C007C00
7E00FC00
7E01F800
3E03F000
3F07E000
1F9FC000
0FFF0000
03FC0000
00400000
ENDCHAR
STARTCHAR 0070
ENCODING 112
SWIDTH 568 0
DWIDTH 33 0
BBX 36 53 -6 -14
BITMAP
00000F0000
00000F0000
00001F0000
00001F0000
00001E0000
00001E0000
00003E0000
00003E0000
00003FFC00
00007FFF00
0000FFFFC0
0003FC1FE0
0007F807E0
001FF807F0
003CF803F0
0078F003F0
00F1F003F0
01C1F003F0
0081F003F0
0001E003F0
0003E003F0
0003E003F0
0003E003F0
0007C007E0
0007C007E0
0007C00FC0
000F800FC0
000F801F80
000F803F00
001F807E00
001F00FC00
001F01F800
001F03F000
003F0FC000
003E3F0000
003FFC0000
007FE00000
007C000000
007C000000
00FC000000
00FC000000
00F8000000
01F8000000
01F8000000
01F8000000
01F0000000
03F0000000
03F0000000
03F0000000
07F8000000
7FFF800000
7FFF800000
FFFF800000
ENDCHAR
STARTCHAR 0071
ENCODING 113
SWIDTH 534 0
DWIDTH 31 0
BBX 29 45 1 -14
BITMAP
0003E0F8
000FF8F0
003FFCF0
007E1FF0
00FC0FF0
01F80FE0
03F00FE0
07E00FE0
0FC00FC0
0FC00FC0
1F800FC0
1F800FC0
3F000F80
3F000F80
7E000F80
7E000F80
7E001F00
FE001F00
FC001F00
FC003E00
FC003E00
FC007E00
FC007E00
FC00FC00
FC01FC00
FC03FC00
FC077800
7E0FF800
7FFEF800
3FFCF800
1FF1F000
0101F000
0001F000
0003E000
0003E000
0003E000
0007E000
0007C000
0007C000
000FC000
000FC000
001FC000
01FFFC00
01FFFC00
01FFFC00
ENDCHAR
STARTCHAR 0072
ENCODING 114
SWIDTH 465 0
DWIDTH 27 0
BBX 28 32 1 0
BITMAP
000003C0
00700FE0
01F83FF0
07F87FF0
0FF8FFF0
1CFDE7E0
38F9C1C0
60FB8000
E0FF0000
40FE0000
01FE0000
01FC0000
01FC0000
01F80000
03F80000
03F00000
03F00000
07E00000
07E00000
07C00000
0FC00000
0FC00000
0F800000
1F800000
1F800000
1F000000
1F000000
3F000000
3E000000
3E000000
7E000000
7C000000
ENDCHAR
STARTCHAR 0073
ENCODING 115
SWIDTH 379 0
DWIDTH 22 0
BBX 22 32 -1 -1
BITMAP
000FC0
007FF0
00FFF8
01F1F8
01E0FC
03E0FC
03E078
03E030
07E000
07F000
03F000
03F800
03FC00
01FC00
01FE00
00FF00
007F80
003F80
003F80
001FC0
000FC0
000FC0
0007C0
7807C0
FC07C0
FC0780
FC0F80
FC0F00
7E1E00
3FFC00
1FF000
010000
ENDCHAR
STARTCHAR 0074
ENCODING 116
SWIDTH 362 0
DWIDTH 21 0
BBX 19 40 2 -1
BITMAP
003E00
003E00
003E00
007E00
007C00
007C00
00FC00
00F800
00F800
01F800
3FFFE0
3FFFC0
7FFFC0
03E000
03E000
03E000
07E000
07C000
07C000
0FC000
0F8000
0F8000
1F8000
1F0000
1F0000
1F0000
3F0000
3E0000
3E0200
7E0300
7C0700
7C0E00
7C1C00
FC3800
FC7800
FFF000
FFC000
FF8000
7E0000
180000
ENDCHAR
STARTCHAR 0075
ENCODING 117
SWIDTH 586 0
DWIDTH 34 0
BBX 31 32 1 -1
BITMAP
00780000
01FC00FC
03FC00F8
07FC00F8
0FFC01F8
1CFC01F0
38FC03F0
70F803F0
61F803F0
C1F807E0
01F007E0
03F007E0
03F00FC0
07E00FC0
07E01FC0
07C01F80
0FC03F80
0FC03F80
1F807F00
1F807F00
1F80FF00
3F01FE06
3F01FE06
3F03BE0C
3F073E1C
3F0F3C38
3F1E7C70
3FFC3FE0
3FF83FE0
3FF03F80
1FC03F00
02000800
ENDCHAR
STARTCHAR 0076
ENCODING 118
SWIDTH 586 0
DWIDTH 34 0
BBX 31 32 1 -1
BITMAP
07C07038
1FE0F07C
3FFFE0FC
7FFFC0FE
71FF807E
F8FF007E
F80F007E
FC1E007E
FC1E003E
7C3C003C
107C003C
0078003C
00F8003C
00F0007C
01F00078
01F00078
01F000F0
03E000F0
03E000E0
03E001E0
07E001C0
07E003C0
07E00780
07E00700
07F00F00
07F01E00
03F83C00
03FFF800
01FFF000
01FFC000
007F8000
00080000
ENDCHAR
STARTCHAR 0077
ENCODING 119
SWIDTH 844 0
DWIDTH 49 0
BBX 46 32 1 -1
BITMAP
07C0600F0078
1FE0F01F80FC
3FFBE03F80FC
7FFFC07F80FC
71FF807F80FC
F8FF00F780FC
F81F00E7807C
FC0E01C7807C
FC1C01C7807C
7C3C01C7007C
383803C7007C
007803C7007C
00F003CE007C
00F003CE0078
01E003DC0078
01E003DC0078
03E003F800F0
03E003F800F0
03C003F001E0
07C003E001E0
07C003E003C0
07C003E003C0
07C007E00780
07C00FF00F80
07E01FF00F00
07E03DF83E00
07F079FFFC00
07FFF1FFFC00
03FFE0FFF000
03FFC07FE000
00FF003F8000
001000040000
ENDCHAR
STARTCHAR 0078
ENCODING 120
SWIDTH 586 0
DWIDTH 34 0
BBX 36 32 -3 -1
BITMAP
0001F00780
0007F81FE0
000FFC7FE0
003C7CE3F0
00783CC3F0
00F03D81F0
00E03F81F0
01C03F00E0
03803F0000
03003E0000
01007E0000
00007E0000
00007C0000
00007C0000
0000FC0000
0000FC0000
0000F80000
0001F80000
0001F80000
0001F80000
0003F80000
0003F00000
0003F00080
1007F001C0
7C07F00380
FC0EF00700
FC1CF80E00
FE18F81C00
FE707CF800
7FE07FF000
3F801FC000
0400060000
ENDCHAR
STARTCHAR 0079
ENCODING 121
SWIDTH 517 0
DWIDTH 30 0
BBX 35 46 -6 -15
BITMAP
000F0001C0
001F0003C0
003F8007E0
007F8007E0
00FFC007E0
00FFC007E0
01C7C007E0
0187E007E0
0183E007C0
0383E007C0
0303F007C0
0301F00780
0501F00780
0001F00700
0001F80700
0000F80F00
0000F80E00
0000F81E00
0000F81C00
0000FC3C00
00007C3800
00007C7800
00007C7000
00007CE000
00007FE000
00003FC000
00003FC000
00003F8000
00003F0000
00003F0000
00003E0000
00003C0000
0000780000
0000780000
0000F00000
0001E00000
0001C00000
0003C00000
7007800000
F80F000000
F81E000000
FC38000000
FFF0000000
FFE0000000
7F80000000
0800000000
ENDCHAR
STARTCHAR 007A
ENCODING 122
SWIDTH 517 0
DWIDTH 30 0
BBX 29 32 -1 -1
BITMAP
003F0000
00FFC038
03FFF078
07FFF878
070FFFF8
0F03FFF0
0F00FFE0
0F807FC0
0FC00F80
0FE01F00
0FE03E00
07C07800
0100F000
0001E000
0003C000
00078000
000F0000
001E0000
003C0000
00780000
00F00000
01E00020
03F00030
07FC0070
0FFF0070
1FFFE0E0
3CFFFFC0
783FFFC0
781FFF80
F807FF00
7003FC00
00002000
ENDCHAR
STARTCHAR 007B
ENCODING 123
SWIDTH 327 0
DWIDTH 19 0
BBX 24 57 1 -9
BITMAP
00001F
0000FE
0001F8
0003F0
0007E0
0007C0
000FC0
000F80
000F80
000F80
001F00
001F00
001F00
003F00
003E00
003E00
003E00
007E00
007C00
007C00
00FC00
00F800
00F800
01F000
01F000
03E000
0FC000
7F0000
7E0000
1F8000
0FC000
0FC000
07C000
07C000
07C000
0FC000
0F8000
0F8000
0F8000
1F8000
1F0000
1F0000
1F0000
3E0000
3E0000
3E0000
7E0000
7C0000
7C0000
7C0000
7C0000
FC0000
FC0000
7C0000
7F0000
3F8000
018000
ENDCHAR
STARTCHAR 007C
ENCODING 124
SWIDTH 344 0
DWIDTH 20 0
BBX 5 61 7 -14
BITMAP
F8
F8
F8
F8
F8
F8
F8
F8
F8
F8
F8
F8
F8
F8
F8
F8
F8
F8
F8
F8
F8
F8
F8
F8
F8
F8
F8
F8
F8
F8
F8
F8
F8
F8
F8
F8
F8
F8
F8
F8
F8
F8
F8
F8
F8
F8
F8
F8
F8
F8
F8
F8
F8
F8
F8
F8
F8
F8
F8
F8
F8
ENDCHAR
STARTCHAR 007D
ENCODING 125
SWIDTH 327 0
DWIDTH 19 0
BBX 24 57 -5 -9
BITMAP
0001F0
0001FC
00007E
00003F
00003F
00001F
00003F
00003E
00003E
00003E
00003E
00007C
00007C
00007C
0000FC
0000F8
0000F8
0000F8
0001F8
0001F0
0001F0
0001F0
0003F0
0003F0
0001F0
0001F0
0001F8
00007E
00003E
0001F8
0003E0
0007C0
000F80
001F80
001F00
001F00
003F00
003E00
003E00
003E00
007E00
007C00
007C00
007C00
00FC00
00F800
00F800
01F800
01F000
01F000
03F000
03E000
07E000
0FC000
1F8000
FE0000
800000
ENDCHAR
STARTCHAR 007E
ENCODING 126
SWIDTH 534 0
DWIDTH 31 0
BBX 22 7 4 14
BITMAP
0F800C
1FF00C
3FFE1C
7FFFF8
60FFF8
C01FF0
C003E0
ENDCHAR
STARTCHAR 00A0
ENCODING 160
SWIDTH 275 0
DWIDTH 16 0
BBX 0 0 0 0
BITMAP
ENDCHAR
STARTCHAR 00A1
ENCODING 161
SWIDTH 310 0
DWIDTH 18 0
BBX 14 46 3 -1
BITMAP
0020
00F8
01FC
01FC
01FC
01FC
00F8
0020
0000
0000
0000
0000
0000
00C0
00C0
00C0
01C0
01C0
01C0
0180
0380
0380
0380
0780
0780
0780
0780
0F80
0F00
1F00
1F00
1F00
3F00
3F00
7F00
7F00
7F00
FF00
FE00
FE00
FE00
FE00
FE00
FC00
7C00
1000
ENDCHAR
STARTCHAR 00A2
ENCODING 162
SWIDTH 465 0
DWIDTH 27 0
BBX 24 49 1 -9
BITMAP
00001C
00001C
000038
000038
000038
000070
000070
000070
0000E0
0001F0
0007FC
001FFE
003F1F
007C1F
00F83F
01F03F
03E01F
07E00E
07C000
0F8000
1F8000
1F8000
3F0000
3F0000
3E0000
7E0000
7E0000
7E0000
FE0000
FC0000
FC0010
FC0038
FC0030
FC0070
7E00E0
7E01C0
7F0380
3F8F00
1FFE00
0FFC00
03C000
038000
078000
070000
070000
070000
0E0000
0E0000
0E0000
ENDCHAR
STARTCHAR 00A3
ENCODING 163
SWIDTH 689 0
DWIDTH 40 0
BBX 40 46 -1 -1
BITMAP
0000000200
0000007FF0
000001FFFC
000007E0FE
00000F807F
00001F003F
00003E003F
00007C003F
00007C003F
0000FC003E
0000F8007E
0001F80030
0001F80000
0001F80000
0003F80000
0003F80000
0003F80000
0003F80000
0003F80000
0003F80000
01FFFFFFC0
01FFFFFF80
03FFFFFF80
0001F80000
0001F80000
0001F80000
0001F80000
0001F80000
0001F80000
0001F00000
0001F00000
0001F00000
0001E00000
0003E00000
0003E00000
0003C00000
0783C00000
1FFF800030
7FFF0000E0
783FFFFFE0
F01FFFFFC0
F03FFFFF80
F8F9FFFF00
FFF07FFE00
7FC01FFC00
0800008000
ENDCHAR
STARTCHAR 00A4
ENCODING 164
SWIDTH 689 0
DWIDTH 40 0
BBX 28 27 5 2
BITMAP
60000060
F01FC0F0
78FFF9F0
3DFFFFE0
1FE03FC0
0F800F80
0F000780
1E000380
1C0001C0
3C0001C0
380000E0
380000E0
380000E0
380000E0
380000E0
380000E0
380000E0
3C0001C0
1C0001C0
1E0003C0
0F000780
0F800F00
1FE03F80
3DFFFFE0
78FFF9F0
F01FC0F0
20000020
ENDCHAR
STARTCHAR 00A5
ENCODING 165
SWIDTH 758 0
DWIDTH 44 0
BBX 40 44 8 0
BITMAP
7FFF803FFF
FFFF807FFF
FFFF007FFE
0FF8000FF0
07F00007E0
03F00007C0
03F8000780
01F8000780
01F8000F00
00FC001E00
00FC003C00
00FE003C00
007E007800
007F00F000
003F00E000
003F01E000
001F83C000
001F878000
001FC78000
000FCF0000
000FFE0000
0007FC0000
07FFFFFE00
07FFFFFE00
0FFFFFFE00
0003F00000
0003F00000
0007E00000
0007E00000
0007E00000
1FFFFFF800
3FFFFFF800
3FFFFFF000
000FC00000
000FC00000
001F800000
001F800000
003F800000
003F800000
007F800000
00FFC00000
1FFFFE0000
1FFFFE0000
3FFFFC0000
ENDCHAR
STARTCHAR 00A6
ENCODING 166
SWIDTH 344 0
DWIDTH 20 0
BBX 5 53 7 -10
BITMAP
F8
F8
F8
F8
F8
F8
F8
F8
F8
F8
F8
F8
F8
F8
F8
F8
F8
F8
F8
F8
F8
F8
00
00
00
00
00
00
00
00
00
F8
F8
F8
F8
F8
F8
F8
F8
F8
F8
F8
F8
F8
F8
F8
F8
F8
F8
F8
F8
F8
F8
ENDCHAR
STARTCHAR 00A7
ENCODING 167
SWIDTH 620 0
DWIDTH 36 0
BBX 36 58 0 -10
BITMAP
000007F800
00003FFF00
0000FFFF80
0003FF0FC0
0007FE07E0
000F9C07E0
001F3C07E0
003E3C07F0
003E3C07F0
007C7C07E0
007C7C03E0
00FC7C03C0
00FC7C0000
00FC7E0000
00FC7E0000
00FC3E0000
00FC3E0000
00FC3F0000
00FC3F0000
00FC3F0000
00FC1F8000
00FC1F8000
00FE1F8000
00FE1F8000
007E1FC000
007E0FC000
007F0FC000
007F0FE000
003F07E000
003F07E000
003F87E000
003F87F000
001F83F000
001F83F000
001F83F000
001FC3F800
000FC3F800
000FC1F800
000FC1F800
000FC1F800
0007E1F800
0007E1F800
0007E1F800
0007E1F800
0007E1F800
0003E1F800
1803E1F000
7C03E1F000
FE03E3E000
FE03E3E000
FE03E7C000
FE07C78000
FE07CF8000
7E079F0000
7F0F7C0000
3FFFF80000
0FFFC00000
03FE000000
ENDCHAR
STARTCHAR 00A8
ENCODING 168
SWIDTH 327 0
DWIDTH 19 0
BBX 17 7 1 37
BITMAP
3C0F00
7E1F00
FE3F80
FE3F80
FC3F00
FC3E00
701C00
ENDCHAR
STARTCHAR 00A9
ENCODING 169
SWIDTH 913 0
DWIDTH 53 0
BBX 45 46 5 -1
BITMAP
000002000000
0000FFF80000
0007FFFF0000
001FF07FC000
003F0007E000
007C0000F800
01F000007C00
03C000001E00
038000000F00
070000000780
0E001FC10380
1E007FF101C0
1C01FFFF01E0
3803F01F00E0
3807C00700F0
380F80030070
700F80030070
701F00010038
701F00000038
601E00000038
E03E00000038
E03E00000038
E03E00000038
E03E00000038
E03E00000038
E03E00000038
603E00000038
701F00018038
701F00030038
701F00030070
300F80070070
3807C00E00F0
3807F01C00E0
1C01FFFC01E0
1E00FFF001C0
0E001FC00380
070000000780
038000000F00
03E000001E00
01F000007C00
007C0000F800
003F0007E000
001FF07FC000
0007FFFF0000
0000FFF80000
000007000000
ENDCHAR
STARTCHAR 00AA
ENCODING 170
SWIDTH 379 0
DWIDTH 22 0
BBX 17 17 7 28
BITMAP
002000
01F700
07BF00
0F1E00
0E1E00
1C1E00
3C1C00
381C00
783C00
703800
707800
707980
F0F900
79FB00
7F7E00
7E7C00
183000
ENDCHAR
STARTCHAR 00AB
ENCODING 171
SWIDTH 482 0
DWIDTH 28 0
BBX 23 18 2 6
BITMAP
001806
00701C
00E038
01C070
0781E0
0F03C0
1E0780
7C1F00
F83E00
F83E00
7C1F00
3C0F00
1E0780
1E0780
0E0380
0701C0
0380C0
010040
ENDCHAR
STARTCHAR 00AC
ENCODING 172
SWIDTH 672 0
DWIDTH 39 0
BBX 26 15 6 6
BITMAP
FFFFFFC0
FFFFFFC0
FFFFFFC0
000001C0
000001C0
000001C0
000001C0
000001C0
000001C0
000001C0
000001C0
000001C0
000001C0
000001C0
000001C0
ENDCHAR
STARTCHAR 00AD
ENCODING 173
SWIDTH 482 0
DWIDTH 28 0
BBX 18 5 5 14
BITMAP
FFFFC0
FFFFC0
FFFFC0
FFFFC0
FFFFC0
ENDCHAR
STARTCHAR 00AE
ENCODING 174
SWIDTH 913 0
DWIDTH 53 0
BBX 45 46 5 -1
BITMAP
000002000000
0000FFF80000
0007FFFF0000
001FF07FC000
003F0007E000
007C0000F800
01F000007C00
03C000001E00
038000000F00
070000000780
0E1FFFC00380
1E07C0F801C0
1C03C03C01E0
3803C03E00E0
3803C03E00F0
3803C03E0070
7003C03E0070
7003C03E0038
7003C03E0038
6003C07C0038
E003C0F80038
E003FFF00038
E003FF800038
E003C7C00038
E003C3E00038
E003C1F00038
6003C1F80038
7003C0F80038
7003C07C0038
7003C03E0070
3003C01F0070
3803E00F80F0
3807E00FE0E0
1C1FFE07F1E0
1E00000001C0
0E0000000380
070000000780
038000000F00
03E000001E00
01F000007C00
007C0000F800
003F0007E000
001FF07FC000
0007FFFF0000
0000FFF80000
000007000000
ENDCHAR
STARTCHAR 00AF
ENCODING 175
SWIDTH 310 0
DWIDTH 18 0
BBX 16 3 1 40
BITMAP
FFFF
FFFF
FFFF
ENDCHAR
STARTCHAR 00B0
ENCODING 176
SWIDTH 344 0
DWIDTH 20 0
BBX 14 14 8 31
BITMAP
0100
1FE0
3CF0
7038
6018
C00C
C00C
C00C
C00C
C00C
6018
3030
1FE0
0FC0
ENDCHAR
STARTCHAR 00B1
ENCODING 177
SWIDTH 655 0
DWIDTH 38 0
BBX 27 35 5 5
BITMAP
000E0000
000E0000
000E0000
000E0000
000E0000
000E0000
000E0000
000E0000
000E0000
000E0000
000E0000
000E0000
FFFFFFE0
FFFFFFE0
FFFFFFE0
000E0000
000E0000
000E0000
000E0000
000E0000
000E0000
000E0000
000E0000
000E0000
000E0000
000E0000
000E0000
00000000
00000000
00000000
00000000
00000000
FFFFFFE0
FFFFFFE0
FFFFFFE0
ENDCHAR
STARTCHAR 00B2
ENCODING 178
SWIDTH 275 0
DWIDTH 16 0
BBX 13 18 6 27
BITMAP
0080
0FF0
1E78
3838
3038
3038
3838
1E30
0070
00E0
01C0
0380
0600
0C00
1030
3FE0
FFE0
FFE0
ENDCHAR
STARTCHAR 00B3
ENCODING 179
SWIDTH 293 0
DWIDTH 17 0
BBX 13 19 6 26
BITMAP
0080
0FF0
1C38
1838
1838
1E30
0070
00E0
0F80
03C0
00E0
0070
7070
E070
C070
C0E0
E1C0
7F80
0800
ENDCHAR
STARTCHAR 00B4
ENCODING 180
SWIDTH 275 0
DWIDTH 16 0
BBX 14 9 1 37
BITMAP
0010
007C
00FC
03F8
07F0
0FE0
1F00
3C00
F000
ENDCHAR
STARTCHAR 00B5
ENCODING 181
SWIDTH 689 0
DWIDTH 40 0
BBX 35 46 0 -15
BITMAP
000F000000
003F800FC0
007F800F80
00FF801F80
01FF801F80
03BF801F00
071F803F00
0E1F003F00
0C3F003E00
183F007E00
003E007E00
003E00FC00
007E00FC00
007C00FC00
007C01F800
00FC01F800
00F803F800
00F803F000
01F807F000
01F007F000
01F00FE000
03F01FE060
03F01FE0E0
03F03BE0C0
07E07FC180
07E0F7C380
07F1F7C700
0FFFE7FE00
0FFFC7FC00
0FFF83F800
0FBF03F000
1F08008000
1F00000000
1F00000000
3F00000000
3F00000000
3F00000000
7E00000000
7E00000000
7E00000000
7E00000000
FE00000000
FE00000000
FC00000000
7800000000
2000000000
ENDCHAR
STARTCHAR 00B6
ENCODING 182
SWIDTH 551 0
DWIDTH 32 0
BBX 35 59 0 -15
BITMAP
00000FFFE0
0000FFFFE0
0003FFFFC0
000FFFFE00
001FFFFC00
003FFFFC00
007FFFF800
00FFFFF800
00FFFFF800
01FFFFF000
01FFFFF000
03FFFFF000
03FFFFF000
03FFFFE000
03FFFFE000
03FFFFE000
03FFFFE000
03FFFFC000
03FFFFC000
01FFFFC000
01FFFFC000
00FFFF8000
007FFF8000
003FFF8000
000FFF8000
00001F0000
00001F0000
00003F0000
00003E0000
00003E0000
00007E0000
00007E0000
00007C0000
00007C0000
0000FC0000
0000FC0000
0000F80000
0000F80000
0001F80000
0001F80000
0001F00000
0001F00000
0003F00000
0003E00000
0003E00000
0003E00000
0007E00000
0007C00000
0007C00000
000F800000
000F800000
000F000000
781F000000
7C1E000000
FC3E000000
7FFC000000
7FF8000000
3FE0000000
0600000000
ENDCHAR
STARTCHAR 00B7
ENCODING 183
SWIDTH 275 0
DWIDTH 16 0
BBX 7 8 4 12
BITMAP
78
FC
FE
FE
FE
FE
FC
78
ENDCHAR
STARTCHAR 00B8
ENCODING 184
SWIDTH 224 0
DWIDTH 13 0
BBX 15 16 -1 -15
BITMAP
0070
00E0
01C0
03C0
0380
07F8
0FFC
007E
003E
703E
703C
F07C
F8F8
7FF0
3FC0
0600
ENDCHAR
STARTCHAR 00B9
ENCODING 185
SWIDTH 275 0
DWIDTH 16 0
BBX 11 18 6 27
BITMAP
0060
00C0
03C0
1FC0
01C0
0180
0380
0380
0380
0300
0700
0700
0700
0600
0E00
0E00
1F00
FFC0
ENDCHAR
STARTCHAR 00BA
ENCODING 186
SWIDTH 344 0
DWIDTH 20 0
BBX 14 16 8 29
BITMAP
0080
07F0
0F78
1C38
3C3C
783C
783C
F03C
F03C
F078
F078
F0F0
F0E0
71C0
7F80
1E00
ENDCHAR
STARTCHAR 00BB
ENCODING 187
SWIDTH 482 0
DWIDTH 28 0
BBX 23 18 1 6
BITMAP
060180
0701C0
0701C0
0380E0
03C0F0
01E078
01F07C
00F03C
00FC3E
00F87C
01E0F8
03C1F0
0781C0
0E0380
1C0700
380C00
E03800
401000
ENDCHAR
STARTCHAR 00BC
ENCODING 188
SWIDTH 637 0
DWIDTH 37 0
BBX 40 45 -1 0
BITMAP
0000C00000
000180000F
000780001E
003F80003C
0003000078
0007000070
00070000E0
00070001E0
00060003C0
000E000780
000E000700
000E000E00
000C001C00
001C003C00
001C007800
001C00F000
003E00E000
01FF01C000
000003C000
0000078000
00000F0000
00000E0000
00001C0000
00003C0000
0000780000
0000F00000
0001E00000
0001C00100
0003800300
0007800F00
000F001F00
001E003600
003C006E00
003800CE00
0078018E00
00F0030C00
01E0061C00
03C00FFF80
0380001800
0780001800
0F00003800
1E00003800
3C00003000
7800003000
F800007000
ENDCHAR
STARTCHAR 00BD
ENCODING 189
SWIDTH 655 0
DWIDTH 38 0
BBX 40 45 -1 0
BITMAP
0000C00000
000180000F
000780001E
003F80003C
0003800038
0003000070
00070000E0
00070001E0
00070003C0
0006000780
000E000700
000E000E00
000E001E00
000C003C00
001C007800
001C007000
003E00E000
01FF81C000
000003C000
0000078000
00000F0000
00000E0000
00001C0000
00003C0000
0000780000
0000F00000
0001E00000
0001C01F00
0003C07FC0
000780E1C0
000F01C1C0
001E01C1E0
001C01C1C0
003C01C1C0
007800F180
00F0000380
01E0000700
03C0000E00
0380001C00
0780003000
0F00006000
1E00008180
3C0001FF00
380007FF00
F80007FF00
ENDCHAR
STARTCHAR 00BE
ENCODING 190
SWIDTH 655 0
DWIDTH 38 0
BBX 39 45 1 0
BITMAP
0004000000
003F80001E
0061C0001C
00E1C00038
00E1C00070
0071C000F0
00018001E0
00070001C0
007C000380
000F000700
0003800F00
0003801E00
03C3803C00
0703803800
0703807000
070380F000
030701E000
01FC03C000
0060078000
0000070000
00000E0000
00001E0000
00003C0000
0000780000
0000700000
0000E00000
0001E00000
0003C00300
0007800700
000F000E00
000E001E00
001E003E00
003C006E00
0078008C00
00F0011C00
00E0021C00
01E0041C00
03C00FFF00
0780003800
0F00003800
1E00003000
1C00003000
3C00007000
7800007000
F000006000
ENDCHAR
STARTCHAR 00BF
ENCODING 191
SWIDTH 465 0
DWIDTH 27 0
BBX 21 46 1 -1
BITMAP
000040
0003F0
0003F0
0007F8
0007F8
0003F0
0003F0
000040
000000
000000
000000
000780
001FE0
003FE0
0070F0
006070
004070
000070
0000F0
0001F0
0003F0
0007E0
001FE0
003FC0
00FF80
01FF00
03FE00
0FF800
1FF000
1FC000
3F8000
7E0300
7C0FE0
780FF0
F80FF0
F00FF0
F003F8
F000F8
F000F0
7000F0
7801F0
3C03E0
3F8FC0
1FFF80
07FE00
004000
ENDCHAR
STARTCHAR 00C0
ENCODING 192
SWIDTH 758 0
DWIDTH 44 0
BBX 47 55 -6 0
BITMAP
000000003C00
000000007F00
000000007F80
000000003FE0
0000000007F0
00000000007E
000000000000
000000000000
000000000000
000000000000
00000000007C
0000000000FC
0000000001F8
0000000003F8
0000000007F8
000000000FF8
000000000FF8
000000001FF0
000000003DF0
0000000079F0
00000000F3F0
00000001F3E0
00000001E3E0
00000003C3E0
0000000787E0
0000000F07E0
0000001E07C0
0000003E07C0
0000003C0FC0
000000780FC0
000000F00F80
000001E01F80
000003C01F80
000007801F80
00000F801F00
00000FFFFF00
00001FFFFF00
00003FFFFF00
000078003F00
0000F0003E00
0001E0007E00
0001C0007E00
000380007E00
000700007C00
000E00007C00
001E0000FC00
003C0000FC00
00780000FC00
00F00000F800
01E00001F800
03E00001F800
0FE00003FC00
3FFC000FFF00
FFFE007FFFE0
FFFE007FFFC0
ENDCHAR
STARTCHAR 00C1
ENCODING 193
SWIDTH 758 0
DWIDTH 44 0
BBX 58 55 -6 0
BITMAP
00000000000003C0
0000000000000FC0
0000000000007FC0
000000000001FF00
000000000007F800
00000000003F0000
0000000000000000
0000000000000000
0000000000000000
0000000000000000
00000000007C0000
0000000000FC0000
0000000001F80000
0000000003F80000
0000000007F80000
000000000FF80000
000000000FF80000
000000001FF00000
000000003DF00000
0000000079F00000
00000000F3F00000
00000001F3E00000
00000001E3E00000
00000003C3E00000
0000000787E00000
0000000F07E00000
0000001E07C00000
0000003E07C00000
0000003C0FC00000
000000780FC00000
000000F00F800000
000001E01F800000
000003C01F800000
000007801F800000
00000F801F000000
00000FFFFF000000
00001FFFFF000000
00003FFFFF000000
000078003F000000
0000F0003E000000
0001E0007E000000
0001C0007E000000
000380007E000000
000700007C000000
000E00007C000000
001E0000FC000000
003C0000FC000000
00780000FC000000
00F00000F8000000
01E00001F8000000
03E00001F8000000
0FE00003FC000000
3FFC000FFF000000
FFFE007FFFE00000
FFFE007FFFC00000
ENDCHAR
STARTCHAR 00C2
ENCODING 194
SWIDTH 758 0
DWIDTH 44 0
BBX 55 55 -6 0
BITMAP
00000000001FC0
00000000003FE0
0000000000FFF0
0000000001F9F8
0000000003C078
000000000E001E
00000000000000
00000000000000
00000000000000
00000000000000
00000000007C00
0000000000FC00
0000000001F800
0000000003F800
0000000007F800
000000000FF800
000000000FF800
000000001FF000
000000003DF000
0000000079F000
00000000F3F000
00000001F3E000
00000001E3E000
00000003C3E000
0000000787E000
0000000F07E000
0000001E07C000
0000003E07C000
0000003C0FC000
000000780FC000
000000F00F8000
000001E01F8000
000003C01F8000
000007801F8000
00000F801F0000
00000FFFFF0000
00001FFFFF0000
00003FFFFF0000
000078003F0000
0000F0003E0000
0001E0007E0000
0001C0007E0000
000380007E0000
000700007C0000
000E00007C0000
001E0000FC0000
003C0000FC0000
00780000FC0000
00F00000F80000
01E00001F80000
03E00001F80000
0FE00003FC0000
3FFC000FFF0000
FFFE007FFFE000
FFFE007FFFC000
ENDCHAR
STARTCHAR 00C3
ENCODING 195
SWIDTH 758 0
DWIDTH 44 0
BBX 56 55 -6 0
BITMAP
0000000000F007
0000000003FE06
0000000007FF8E
0000000007FFFE
000000000E3FFC
000000000C07F8
000000000C01F0
00000000000000
00000000000000
00000000000000
00000000007C00
0000000000FC00
0000000001FC00
0000000003F800
0000000003F800
0000000007F800
000000000FF800
000000001FF000
000000003DF000
0000000079F000
00000000FBF000
00000000F3E000
00000001E3E000
00000003C3E000
0000000787E000
0000000F07E000
0000001E07C000
0000001E07C000
0000003C0FC000
000000780FC000
000000F00F8000
000001E01F8000
000003C01F8000
000007801F8000
000007801F0000
00000FFFFF0000
00001FFFFF0000
00003FFFFF0000
000078003F0000
0000F0003E0000
0001E0007E0000
0001C0007E0000
000380007E0000
000700007C0000
000E00007C0000
001E0000FC0000
003C0000FC0000
00780000FC0000
00F00000F80000
01E00001F80000
03E00001F80000
0FE00003FC0000
3FFC000FFF0000
FFFE007FFFE000
FFFE007FFFC000
ENDCHAR
STARTCHAR 00C4
ENCODING 196
SWIDTH 758 0
DWIDTH 44 0
BBX 54 55 -6 0
BITMAP
0000000000E03C
0000000001F07C
0000000003F07C
0000000003F0FC
0000000003E0FC
0000000001C070
00000000000000
00000000000000
00000000000000
00000000000000
00000000007C00
0000000000FC00
0000000001FC00
0000000001F800
0000000003F800
0000000007F800
000000000FF800
000000001FF000
000000003DF000
000000007DF000
000000007BF000
00000000F3E000
00000001E3E000
00000003C3E000
0000000787E000
0000000F07E000
0000001F07C000
0000001E07C000
0000003C0FC000
000000780FC000
000000F00F8000
000001E01F8000
000003C01F8000
000007801F8000
000007801F0000
00000FFFFF0000
00001FFFFF0000
00003FFFFF0000
000078003F0000
0000F0003E0000
0001E0007E0000
0001C0007E0000
000380007E0000
000700007C0000
000E00007C0000
001E0000FC0000
003C0000FC0000
00780000FC0000
00F00000F80000
01E00001F80000
03E00001F80000
0FE00003FC0000
3FFC000FFF0000
FFFE007FFFE000
FFFE007FFFC000
ENDCHAR
STARTCHAR 00C5
ENCODING 197
SWIDTH 758 0
DWIDTH 44 0
BBX 50 55 -6 0
BITMAP
00000000000700
00000000001F80
000000000030C0
00000000003080
00000000003180
00000000003F00
00000000001E00
00000000000000
00000000000000
00000000000000
00000000007C00
0000000000FC00
0000000001F800
0000000003F800
0000000007F800
000000000FF800
000000000FF800
000000001FF000
000000003DF000
0000000079F000
00000000F3F000
00000001F3E000
00000001E3E000
00000003C3E000
0000000787E000
0000000F07C000
0000001E07C000
0000003E07C000
0000007C0FC000
000000780FC000
000000F00F8000
000001E01F8000
000003C01F8000
000007801F8000
00000F801F0000
00000FFFFF0000
00001FFFFF0000
00003FFFFF0000
000078003F0000
0000F0003E0000
0001E0007E0000
0001C0007E0000
000380007E0000
000700007C0000
000E00007C0000
001E0000FC0000
003C0000FC0000
00780000FC0000
00F00000F80000
01E00001F80000
03E00001F80000
0FE00003FC0000
3FFC000FFF0000
FFFE007FFFE000
FFFE007FFFC000
ENDCHAR
STARTCHAR 00C6
ENCODING 198
SWIDTH 1068 0
DWIDTH 62 0
BBX 65 44 -5 0
BITMAP
00000000FFFFFFFF80
00000001FFFFFFFF80
00000001FFFFFFFF80
0000000007F8007F80
0000000007F8001F80
0000000007F8000F80
000000000FF8000780
000000001FF8000780
000000003DF0000380
0000000079F0000380
00000000F1F0000180
00000001F3F0000180
00000001E3E0000000
00000003C3E0060000
0000000783E00E0000
0000000F07E01C0000
0000001E07C01C0000
0000003C07C03C0000
000000780FC07C0000
000000700FFFFC0000
000000F00FFFF80000
000001E00FFFF80000
000003C01F81F80000
000007801F80780000
00000FFFFF80780000
00001FFFFF00700000
00001FFFFF00700000
000038003F00700000
000070003F00700000
0000E0003E00700000
0001E0003E00000000
0003C0007E00000000
000780007E00000E00
000F00007E00000E00
000E00007C00001C00
001C0000FC00001C00
00380000FC00003C00
00700000FC00007800
01F00000FC0000F800
03E00001FC0001F000
07E00003FC0007F000
3FFC000FFF80FFF000
FFFF003FFFFFFFE000
FFFE007FFFFFFFE000
ENDCHAR
STARTCHAR 00C7
ENCODING 199
SWIDTH 724 0
DWIDTH 42 0
BBX 40 60 4 -15
BITMAP
0000008000
00001FFE07
0000FFFF8E
0003FF0FFE
0007F003FE
001FC001FE
003F0000FE
007E00007C
00FC00007C
01F800003C
03F000003C
07F000003C
07E0000038
0FC0000018
0FC0000018
1FC0000000
1F80000000
3F80000000
3F00000000
3F00000000
7F00000000
7F00000000
7F00000000
7E00000000
FE00000000
FE00000000
FE00000000
FE00000000
FE00000000
FE00000000
FE00000000
FF00000000
7F00000080
7F000000E0
7F000001C0
3F80000380
3F80000780
3FC0000F00
1FC0001E00
0FF0003C00
0FF800F800
07FFFFF000
01FFFFC000
00FFFF0000
003FF00000
0000E00000
0000C00000
0001C00000
0003F00000
0003FC0000
000FFE0000
00007E0000
00003E0000
00303E0000
00783E0000
00783C0000
007CF80000
007FF00000
003FE00000
0002000000
ENDCHAR
STARTCHAR 00C8
ENCODING 200
SWIDTH 741 0
DWIDTH 43 0
BBX 43 55 -2 0
BITMAP
000001E00000
000003F80000
000003FE0000
000001FF0000
0000003FC000
00000003F000
000000000000
000000000000
000000000000
000000000000
000000000000
001FFFFFFFE0
001FFFFFFFE0
001FFFFFFFE0
0001FE001FE0
0000FE0007E0
0000FE0003E0
0000FC0001E0
0000FC0001E0
0000FC0000E0
0000FC0000E0
0000F80000E0
0001F8000060
0001F8000000
0001F8038000
0003F0030000
0003F0070000
0003F0070000
0003E00F0000
0007E03F0000
0007FFFE0000
0007FFFE0000
0007FFFE0000
000FC07E0000
000FC03E0000
000FC01C0000
001F801C0000
001F801C0000
001F801C0000
001F001C0000
003F00180000
003F00000000
003F00000000
003E00000380
007E00000380
007E00000700
007E00000700
00FC00000E00
00FC00001E00
00FC00003E00
01FE00007C00
03FF0001FC00
1FFFE03FFC00
7FFFFFFFF800
FFFFFFFFF800
ENDCHAR
STARTCHAR 00C9
ENCODING 201
SWIDTH 741 0
DWIDTH 43 0
BBX 43 55 -2 0
BITMAP
000000000F00
000000007F00
00000001FE00
00000007FC00
0000001FE000
000000FC0000
000000000000
000000000000
000000000000
000000000000
000000000000
001FFFFFFFE0
001FFFFFFFE0
001FFFFFFFE0
0001FE001FE0
0000FE0007E0
0000FE0003E0
0000FC0001E0
0000FC0001E0
0000FC0000E0
0000FC0000E0
0000F80000E0
0001F8000060
0001F8000000
0001F8038000
0003F0030000
0003F0070000
0003F0070000
0003E00F0000
0007E03F0000
0007FFFE0000
0007FFFE0000
0007FFFE0000
000FC07E0000
000FC03E0000
000FC01C0000
001F801C0000
001F801C0000
001F801C0000
001F001C0000
003F00180000
003F00000000
003F00000000
003E00000380
007E00000380
007E00000700
007E00000700
00FC00000E00
00FC00001E00
00FC00003E00
01FE00007C00
03FF0001FC00
1FFFE03FFC00
7FFFFFFFF800
FFFFFFFFF800
ENDCHAR
STARTCHAR 00CA
ENCODING 202
SWIDTH 741 0
DWIDTH 43 0
BBX 43 55 -2 0
BITMAP
0000000FE000
0000003FF000
0000007FF800
000000F9F800
000003E03C00
00000F000E00
000000000000
000000000000
000000000000
000000000000
000000000000
001FFFFFFFE0
001FFFFFFFE0
001FFFFFFFE0
0001FE001FE0
0000FE0007E0
0000FE0003E0
0000FC0001E0
0000FC0001E0
0000FC0000E0
0000FC0000E0
0000F80000E0
0001F8000060
0001F8000000
0001F8038000
0003F0030000
0003F0070000
0003F0070000
0003E00F0000
0007E03F0000
0007FFFE0000
0007FFFE0000
0007FFFE0000
000FC07E0000
000FC03E0000
000FC01C0000
001F801C0000
001F801C0000
001F801C0000
001F001C0000
003F00180000
003F00000000
003F00000000
003E00000380
007E00000380
007E00000700
007E00000700
00FC00000E00
00FC00001E00
00FC00003E00
01FE00007C00
03FF0001FC00
1FFFE03FFC00
7FFFFFFFF800
FFFFFFFFF800
ENDCHAR
STARTCHAR 00CB
ENCODING 203
SWIDTH 741 0
DWIDTH 43 0
BBX 43 55 -2 0
BITMAP
000000F01C00
000001F03E00
000001F07E00
000003F07E00
000003E07C00
000001C03800
000000000000
000000000000
000000000000
000000000000
000000000000
001FFFFFFFE0
001FFFFFFFE0
001FFFFFFFE0
0001FE001FE0
0000FE0007E0
0000FE0003E0
0000FC0001E0
0000FC0001E0
0000FC0000E0
0000FC0000E0
0000F80000E0
0001F8000060
0001F8000000
0001F8038000
0003F0030000
0003F0070000
0003F0070000
0003E00F0000
0007E03F0000
0007FFFE0000
0007FFFE0000
0007FFFE0000
000FC07E0000
000FC03E0000
000FC01C0000
001F801C0000
001F801C0000
001F801C0000
001F001C0000
003F00180000
003F00000000
003F00000000
003E00000380
007E00000380
007E00000700
007E00000700
00FC00000E00
00FC00001E00
00FC00003E00
01FE00007C00
03FF0001FC00
1FFFE03FFC00
7FFFFFFFF800
FFFFFFFFF800
ENDCHAR
STARTCHAR 00CC
ENCODING 204
SWIDTH 413 0
DWIDTH 24 0
BBX 30 55 -2 0
BITMAP
0001E000
0003F800
0003FC00
0001FF00
00003F80
000003F0
00000000
00000000
00000000
00000000
00000000
001FFFFC
001FFFFC
001FFFFC
0000FFC0
0000FF00
0000FE00
0000FE00
0000FE00
0000FC00
0000FC00
0000FC00
0001F800
0001F800
0001F800
0003F000
0003F000
0003F000
0003F000
0007E000
0007E000
0007E000
0007E000
000FC000
000FC000
000FC000
001F8000
001F8000
001F8000
001F8000
003F0000
003F0000
003F0000
003F0000
007E0000
007E0000
007E0000
00FE0000
00FC0000
00FC0000
01FC0000
03FE0000
1FFF9000
7FFFE000
FFFFE000
ENDCHAR
STARTCHAR 00CD
ENCODING 205
SWIDTH 413 0
DWIDTH 24 0
BBX 32 55 -2 0
BITMAP
0000001E
0000007F
000001FE
000007FC
00001FC0
0000FC00
00000000
00000000
00000000
00000000
00000000
001FFFFC
001FFFFC
001FFFFC
0000FF80
0000FF00
0000FE00
0000FE00
0000FC00
0000FC00
0000FC00
0001F800
0001F800
0001F800
0001F800
0003F000
0003F000
0003F000
0003F000
0007E000
0007E000
0007E000
000FC000
000FC000
000FC000
000FC000
001F8000
001F8000
001F8000
001F8000
003F0000
003F0000
003F0000
007E0000
007E0000
007E0000
007E0000
00FC0000
00FC0000
01FC0000
01FE0000
07FE0000
7FFFF000
7FFFE000
FFFFE000
ENDCHAR
STARTCHAR 00CE
ENCODING 206
SWIDTH 413 0
DWIDTH 24 0
BBX 31 55 -2 0
BITMAP
00000FE0
00003FF0
00007FF8
0000FCFC
0003E03C
000F000E
00000000
00000000
00000000
00000000
00000000
001FFFFC
001FFFFC
001FFFFC
0000FF80
0000FF00
0000FE00
0000FE00
0000FC00
0000FC00
0000FC00
0001F800
0001F800
0001F800
0001F800
0003F000
0003F000
0003F000
0003F000
0007E000
0007E000
0007E000
000FC000
000FC000
000FC000
000FC000
001F8000
001F8000
001F8000
001F8000
003F0000
003F0000
003F0000
007E0000
007E0000
007E0000
007E0000
00FC0000
00FC0000
01FC0000
01FE0000
07FE0000
7FFFF000
7FFFE000
FFFFE000
ENDCHAR
STARTCHAR 00CF
ENCODING 207
SWIDTH 413 0
DWIDTH 24 0
BBX 32 55 -2 0
BITMAP
0000700E
0000F83F
0001F83F
0001F83E
0001F03E
0000E03C
00000000
00000000
00000000
00000000
00000000
001FFFFC
001FFFFC
001FFFFC
0000FF80
0000FF00
0000FE00
0000FE00
0000FC00
0000FC00
0000FC00
0001F800
0001F800
0001F800
0001F800
0003F000
0003F000
0003F000
0003F000
0007E000
0007E000
0007E000
000FC000
000FC000
000FC000
000FC000
001F8000
001F8000
001F8000
001F8000
003F0000
003F0000
003F0000
007E0000
007E0000
007E0000
007E0000
00FC0000
00FC0000
01FC0000
01FE0000
07FE0000
7FFFF000
7FFFE000
FFFFE000
ENDCHAR
STARTCHAR 00D0
ENCODING 208
SWIDTH 844 0
DWIDTH 49 0
BBX 48 44 -2 0
BITMAP
000FFFFF8000
001FFFFFF800
0003FFFFFE00
00007F00FF80
00007E001FC0
00007E000FE0
00007E0007F0
0000FC0003F8
0000FC0001FC
0000FC0000FC
0001F80000FE
0001F800007E
0001F800007F
0001F800007F
0003F000007F
0003F000003F
0003F000003F
0003F000003F
0007E000003F
0007E000003F
01FFFF80003F
01FFFF80007F
01FFFF80007F
000FC000007F
000FC000007F
001F8000007E
001F800000FE
001F800000FE
001F800001FC
003F000001FC
003F000003F8
003F000003F8
003E000007F0
007E00000FE0
007E00000FE0
007E00001FC0
00FE00003F80
00FC0000FF00
00FE0001FE00
01FE0007FC00
03FF003FF000
7FFFFFFFC000
7FFFFFFE0000
FFFFFFE00000
ENDCHAR
STARTCHAR 00D1
ENCODING 209
SWIDTH 844 0
DWIDTH 49 0
BBX 54 55 -1 0
BITMAP
0000001F006000
0000003FC06000
0000007FF0E000
000000FFFFC000
000000C3FFC000
000000C0FF8000
000001801E0000
00000000000000
00000000000000
00000000000000
00000000000000
00FFFC0001FFFC
00FFFC0003FFF8
01FFFE0003FFF8
000FFE00007FC0
0003FF00003F80
0001FF00001F00
0000FF80001F00
0000FF80001E00
0000FFC0001E00
0000FFC0001C00
0000EFC0001C00
0001EFE0003C00
0001E7E0003C00
0001C7F0003800
0003C7F0007800
0003C3F8007800
000383F8007000
000381FC007000
000781FC00F000
000780FC00F000
000700FE00E000
0007007E00E000
000F007F01E000
000F007F01E000
000E003F81C000
001E003F81C000
001E001F83C000
001C001FC38000
001C000FC38000
003C000FE78000
003C0007E78000
00380007F70000
00380003F70000
00780003FF0000
00780003FF0000
00700001FE0000
00F00001FE0000
00F00000FE0000
01F80000FC0000
03F800007C0000
0FFC00007C0000
7FFFC0003C0000
7FFF8000380000
FFFF8000380000
ENDCHAR
STARTCHAR 00D2
ENCODING 210
SWIDTH 827 0
DWIDTH 48 0
BBX 41 56 4 -1
BITMAP
00000F000000
00001F800000
00001FE00000
00001FF00000
000003FC0000
0000001E0000
000000000000
000000000000
000000000000
000000000000
000000400000
00001FFE0000
0000FFFFC000
0003FE0FE000
0007F003F000
001FC001F800
003F0000FC00
007E00007E00
00FC00007E00
01F800003F00
03F000003F00
07F000003F80
07E000003F80
0FE000003F80
0FC000003F80
1FC000003F80
1F8000003F80
3F8000003F80
3F8000003F80
3F0000003F80
7F0000003F80
7F0000003F80
7F0000003F80
7F0000003F80
FE0000003F80
FE0000003F80
FE0000007F00
FE0000007F00
FE0000007F00
FE000000FE00
FE000000FE00
7E000000FC00
7F000001FC00
7F000001F800
7F000003F000
3F000007F000
3F800007E000
1F80000FC000
1FC0001F8000
0FC0003F0000
07E0007E0000
03F001F80000
01FE1FF00000
00FFFFC00000
001FFE000000
000080000000
ENDCHAR
STARTCHAR 00D3
ENCODING 211
SWIDTH 827 0
DWIDTH 48 0
BBX 41 56 4 -1
BITMAP
00000000F000
00000003F000
0000000FF000
0000007FC000
000001FE0000
00000FC00000
000000000000
000000000000
000000000000
000000000000
000000400000
00001FFE0000
0000FFFFC000
0003FE0FE000
0007F003F000
001FC001F800
003F0000FC00
007E00007E00
00FC00007E00
01F800003F00
03F000003F00
07F000003F80
07E000003F80
0FE000003F80
0FC000003F80
1FC000003F80
1F8000003F80
3F8000003F80
3F8000003F80
3F0000003F80
7F0000003F80
7F0000003F80
7F0000003F80
7F0000003F80
FE0000003F80
FE0000003F80
FE0000007F00
FE0000007F00
FE0000007F00
FE000000FE00
FE000000FE00
7E000000FC00
7F000001FC00
7F000001F800
7F000003F000
3F000007F000
3F800007E000
1F80000FC000
1FC0001F8000
0FC0003F0000
07E0007E0000
03F001F80000
01FE1FF00000
00FFFFC00000
001FFE000000
000080000000
ENDCHAR
STARTCHAR 00D4
ENCODING 212
SWIDTH 827 0
DWIDTH 48 0
BBX 41 56 4 -1
BITMAP
0000007F0000
000000FF8000
000003FFC000
000007E7E000
00000F01E000
000038007800
000000000000
000000000000
000000000000
000000000000
000000400000
00001FFE0000
0000FFFFC000
0003FE0FE000
0007F003F000
001FC001F800
003F0000FC00
007E00007E00
00FC00007E00
01F800003F00
03F000003F00
07F000003F80
07E000003F80
0FE000003F80
0FC000003F80
1FC000003F80
1F8000003F80
3F8000003F80
3F8000003F80
3F0000003F80
7F0000003F80
7F0000003F80
7F0000003F80
7F0000003F80
FE0000003F80
FE0000003F80
FE0000007F00
FE0000007F00
FE0000007F00
FE000000FE00
FE000000FE00
7E000000FC00
7F000001FC00
7F000001F800
7F000003F000
3F000007F000
3F800007E000
1F80000FC000
1FC0001F8000
0FC0003F0000
07E0007E0000
03F001F80000
01FE1FF00000
00FFFFC00000
001FFE000000
000080000000
ENDCHAR
STARTCHAR 00D5
ENCODING 213
SWIDTH 827 0
DWIDTH 48 0
BBX 41 56 4 -1
BITMAP
000003E00C00
000007F81C00
00000FFE1800
00001FFFF800
0000187FF000
0000301FE000
00003007C000
000000000000
000000000000
000000000000
000000400000
00001FFE0000
0000FFFFC000
0003FE0FE000
0007F003F000
001FC001F800
003F0000FC00
007E00007E00
00FC00007E00
01F800003F00
03F000003F00
07F000003F80
07E000003F80
0FE000003F80
0FC000003F80
1FC000003F80
1F8000003F80
3F8000003F80
3F8000003F80
3F0000003F80
7F0000003F80
7F0000003F80
7F0000003F80
7F0000003F80
FE0000003F80
FE0000003F80
FE0000007F00
FE0000007F00
FE0000007F00
FE000000FE00
FE000000FE00
7E000000FC00
7F000001FC00
7F000001F800
7F000003F000
3F000007F000
3F800007E000
1F80000FC000
1FC0001F8000
0FC0003F0000
07E0007E0000
03F001F80000
01FE1FF00000
00FFFFC00000
001FFE000000
000080000000
ENDCHAR
STARTCHAR 00D6
ENCODING 214
SWIDTH 827 0
DWIDTH 48 0
BBX 41 56 4 -1
BITMAP
000003807000
000007C0F800
00000FC1F800
00000FC1F000
00000F81F000
00000701E000
000000000000
000000000000
000000000000
000000000000
000000400000
00001FFE0000
0000FFFFC000
0003FE0FE000
0007F003F000
001FC001F800
003F0000FC00
007E00007E00
00FC00007E00
01F800003F00
03F000003F00
07F000003F80
07E000003F80
0FE000003F80
0FC000003F80
1FC000003F80
1F8000003F80
3F8000003F80
3F8000003F80
3F0000003F80
7F0000003F80
7F0000003F80
7F0000003F80
7F0000003F80
FE0000003F80
FE0000003F80
FE0000007F00
FE0000007F00
FE0000007F00
FE000000FE00
FE000000FE00
7E000000FC00
7F000001FC00
7F000001F800
7F000003F000
3F000007F000
3F800007E000
1F80000FC000
1FC0001F8000
0FC0003F0000
07E0007E0000
03F001F80000
01FE1FF00000
00FFFFC00000
001FFE000000
000080000000
ENDCHAR
STARTCHAR 00D7
ENCODING 215
SWIDTH 551 0
DWIDTH 32 0
BBX 22 22 5 9
BITMAP
400010
600018
F0003C
780078
3C00F0
1E01E0
0F03C0
078780
03CF00
01FE00
00FC00
007800
00FC00
01FE00
03CF00
078780
0F03C0
1E01E0
3C00F0
780078
F0003C
600018
ENDCHAR
STARTCHAR 00D8
ENCODING 216
SWIDTH 827 0
DWIDTH 48 0
BBX 44 52 3 -4
BITMAP
0000000000F0
0000000001E0
0000000001E0
0000002003C0
00000FFF0780
00007FFFEF00
0001FF07FF00
0003F801FE00
000FE000FC00
001F80007E00
003F00007F00
007E0000FF00
00FC0001FF80
01F80003DF80
01F800079FC0
03F000079FC0
07F0000F1FC0
07E0001E1FC0
0FE0003C1FC0
0FC000781FC0
1FC000781FC0
1FC000F01FC0
1F8001E01FC0
3F8003C01FC0
3F8007801FC0
3F8007801FC0
3F800F001FC0
7F001E001FC0
7F003C001FC0
7F0038003F80
7F0078003F80
7F00F0003F80
7F01E0007F00
7F03C0007F00
3F0380007E00
3F878000FE00
3F8F0000FC00
3F9E0001F800
1FBC0001F800
1FF80003F000
1FF80007E000
0FF0000FC000
07E0001F8000
07F0003F0000
07FC00FC0000
07FF0FF80000
0F7FFFE00000
1E1FFF000000
3C0040000000
780000000000
780000000000
F00000000000
ENDCHAR
STARTCHAR 00D9
ENCODING 217
SWIDTH 810 0
DWIDTH 47 0
BBX 44 56 7 -1
BITMAP
000078000000
0000FE000000
0000FF000000
00007FC00000
00000FF00000
000000FC0000
000000000000
000000000000
000000000000
000000000000
000000000000
7FFFE00FFFF0
FFFFE00FFFE0
FFFFE00FFFE0
0FFC0000FF00
07F800007E00
07F000003C00
07F000003C00
07E000003800
07E000007800
07E000007800
0FC000007800
0FC000007000
0FC000007000
0FC000007000
1F800000F000
1F800000F000
1F800000E000
1F800000E000
3F000000E000
3F000001E000
3F000001E000
7E000001C000
7E000001C000
7E000003C000
7E000003C000
FC0000038000
FC0000078000
FC0000078000
FC0000070000
FC00000F0000
F800000F0000
F800000E0000
F800001E0000
F800001C0000
FC00003C0000
FC0000380000
FC0000780000
7E0000F00000
7E0001E00000
3F0003C00000
1FC00F800000
0FF07F000000
07FFFC000000
01FFF0000000
000600000000
ENDCHAR
STARTCHAR 00DA
ENCODING 218
SWIDTH 810 0
DWIDTH 47 0
BBX 44 56 7 -1
BITMAP
00000007C000
0000001FC000
0000007F8000
000001FF0000
000007F80000
00003F000000
000000000000
000000000000
000000000000
000000000000
000000000000
7FFFE00FFFF0
FFFFE00FFFE0
FFFFE00FFFE0
0FFC0000FF00
07F800007E00
07F000003C00
07F000003C00
07E000003800
07E000007800
07E000007800
0FC000007800
0FC000007000
0FC000007000
0FC000007000
1F800000F000
1F800000F000
1F800000E000
1F800000E000
3F000000E000
3F000001E000
3F000001E000
7E000001C000
7E000001C000
7E000003C000
7E000003C000
FC0000038000
FC0000078000
FC0000078000
FC0000070000
FC00000F0000
F800000F0000
F800000E0000
F800001E0000
F800001C0000
FC00003C0000
FC0000380000
FC0000780000
7E0000F00000
7E0001E00000
3F0003C00000
1FC00F800000
0FF07F000000
07FFFC000000
01FFF0000000
000600000000
ENDCHAR
STARTCHAR 00DB
ENCODING 219
SWIDTH 810 0
DWIDTH 47 0
BBX 44 56 7 -1
BITMAP
000007F80000
00000FFC0000
00001FFC0000
00007E7E0000
0000F81F0000
0003C0078000
000000000000
000000000000
000000000000
000000000000
000000000000
7FFFE00FFFF0
FFFFE00FFFE0
FFFFE00FFFE0
0FFC0000FF00
07F800007E00
07F000003C00
07F000003C00
07E000003800
07E000007800
07E000007800
0FC000007800
0FC000007000
0FC000007000
0FC000007000
1F800000F000
1F800000F000
1F800000E000
1F800000E000
3F000000E000
3F000001E000
3F000001E000
7E000001C000
7E000001C000
7E000003C000
7E000003C000
FC0000038000
FC0000078000
FC0000078000
FC0000070000
FC00000F0000
F800000F0000
F800000E0000
F800001E0000
F800001C0000
FC00003C0000
FC0000380000
FC0000780000
7E0000F00000
7E0001E00000
3F0003C00000
1FC00F800000
0FF07F000000
07FFFC000000
01FFF0000000
000600000000
ENDCHAR
STARTCHAR 00DC
ENCODING 220
SWIDTH 810 0
DWIDTH 47 0
BBX 44 56 7 -1
BITMAP
00003C070000
00007C0F8000
0000FC1F8000
0000FC1F8000
0000F81F0000
0000700E0000
000000000000
000000000000
000000000000
000000000000
000000000000
7FFFE00FFFF0
FFFFE00FFFE0
FFFFE00FFFE0
0FFC0000FF00
07F800007E00
07F000003C00
07F000003C00
07E000003800
07E000007800
07E000007800
0FC000007800
0FC000007000
0FC000007000
0FC000007000
1F800000F000
1F800000F000
1F800000E000
1F800000E000
3F000000E000
3F000001E000
3F000001E000
7E000001C000
7E000001C000
7E000003C000
7E000003C000
FC0000038000
FC0000078000
FC0000078000
FC0000070000
FC00000F0000
F800000F0000
F800000E0000
F800001E0000
F800001C0000
FC00003C0000
FC0000380000
FC0000780000
7E0000F00000
7E0001E00000
3F0003C00000
1FC00F800000
0FF07F000000
07FFFC000000
01FFF0000000
000600000000
ENDCHAR
STARTCHAR 00DD
ENCODING 221
SWIDTH 689 0
DWIDTH 40 0
BBX 40 55 5 0
BITMAP
0000000F00
0000007F00
000001FF00
000007FC00
00001FE000
0000FC0000
0000000000
0000000000
0000000000
0000000000
0000000000
7FFF803FFF
FFFF807FFF
FFFF807FFF
0FF80007F0
07F00007E0
03F00007C0
03F80007C0
01F8000780
01FC000F00
00FC001E00
00FC001E00
007E003C00
007E007800
007F00F000
003F00F000
003F81E000
001F83C000
001F838000
000FC78000
000FCF0000
000FFE0000
0007FC0000
0007FC0000
0003F80000
0003F00000
0003F00000
0003F00000
0003F00000
0007E00000
0007E00000
0007E00000
000FE00000
000FC00000
000FC00000
000FC00000
001F800000
001F800000
001F800000
003F800000
007F800000
00FFC00000
1FFFFE0000
1FFFFE0000
1FFFFC0000
ENDCHAR
STARTCHAR 00DE
ENCODING 222
SWIDTH 706 0
DWIDTH 41 0
BBX 42 44 -2 0
BITMAP
000FFFFF0000
001FFFFF0000
001FFFFF0000
0000FFC00000
0000FF000000
0000FE000000
0000FE000000
0000FC000000
0000FC000000
0000FC000000
0001FFFFC000
0001FFFFF800
0001FFFFFE00
0001F800FF00
0003F0007F80
0003F0003F80
0003F0003F80
0007F0003FC0
0007E0001FC0
0007E0003FC0
0007E0003FC0
000FC0003FC0
000FC0003FC0
000FC0003F80
000FC0007F80
001F80007F00
001F8000FF00
001F8001FE00
003F8007FC00
003F000FF800
003F007FE000
003FFFFF8000
007FFFFC0000
007FFF800000
007E00000000
00FE00000000
00FC00000000
00FC00000000
01FC00000000
01FC00000000
07FE00000000
FFFFF8000000
FFFFF8000000
FFFFF0000000
ENDCHAR
STARTCHAR 00DF
ENCODING 223
SWIDTH 586 0
DWIDTH 34 0
BBX 46 63 -13 -15
BITMAP
00000000FF00
00000003FFC0
0000000FFFF0
0000001F03F0
0000003E01F8
0000003C00F8
0000007C00FC
000000F800FC
000000F800FC
000001F000FC
000001F000FC
000003F000FC
000003E001F8
000003E001F8
000003E003F0
000007E003F0
000007C007E0
000007C00FC0
000007C01F80
00000FC07E00
00000FC7F800
00000F87F000
00000F8FFE00
00001F807F80
00001F801F80
00001F000FC0
00001F000FE0
00003F0007E0
00003F0007E0
00003E0007E0
00003E0007E0
00007E0007F0
00007E0007E0
00007C0007E0
00007C0007E0
0000FC0007E0
0000FC0007E0
0000F80007C0
0000F8000FC0
0001F8000F80
0001F8000F80
0001F0E01F00
0001F1E03E00
0003F1E03E00
0003F1F07C00
0003E1F1F000
0003E1FFE000
0007E0FF8000
0007E0100000
0007C0000000
0007C0000000
000FC0000000
000F80000000
000F80000000
000F00000000
201F00000000
F81E00000000
F83E00000000
FC3C00000000
FFF800000000
7FF000000000
3FC000000000
060000000000
ENDCHAR
STARTCHAR 00E0
ENCODING 224
SWIDTH 568 0
DWIDTH 33 0
BBX 30 47 1 -1
BITMAP
0003C000
0007E000
0007F000
0003F800
0001FC00
00007C00
00003E00
00000F00
00000380
00000000
00000000
00000000
00000000
00000000
00000000
0001F000
0007FCF8
001FFDF0
003F0FF0
007C0FF0
01F807E0
01F007E0
03E007C0
07C00FC0
0FC00FC0
0F800F80
1F000F80
3F001F80
3E001F00
7E001F00
7E003F00
7C003E00
FC003E00
FC007E00
F8007E00
F800FC00
F801FC08
F801FC0C
F803FC18
F8077C38
FC0FF870
FC1EFCE0
FFFCFFC0
7FF8FF80
7FF07F00
3FC07E00
04001000
ENDCHAR
STARTCHAR 00E1
ENCODING 225
SWIDTH 568 0
DWIDTH 33 0
BBX 30 47 1 -1
BITMAP
00000070
000001F8
000003F8
000007F0
00000FE0
00001F80
00007C00
0000F000
0001C000
00000000
00000000
00000000
00000000
00000000
00000000
0001F000
0007FCF8
001FFDF0
003F0FF0
007C0FF0
01F807E0
01F007E0
03E007C0
07C00FC0
0FC00FC0
0F800F80
1F000F80
3F001F80
3E001F00
7E001F00
7E003F00
7C003E00
FC003E00
FC007E00
F8007E00
F800FC00
F801FC08
F801FC0C
F803FC18
F8077C38
FC0FF870
FC1EFCE0
FFFCFFC0
7FF8FF80
7FF07F00
3FC07E00
04001000
ENDCHAR
STARTCHAR 00E2
ENCODING 226
SWIDTH 568 0
DWIDTH 33 0
BBX 30 46 1 -1
BITMAP
00003F00
00007F80
0000FFC0
0001FFC0
0007E3E0
000F81F0
001E0070
00380038
00000000
00000000
00000000
00000000
00000000
00000000
0001F000
0007FCF8
001FFDF0
003F0FF0
007C0FF0
01F807E0
01F007E0
03E007C0
07C00FC0
0FC00FC0
0F800F80
1F000F80
3F001F80
3E001F00
7E001F00
7E003F00
7C003E00
FC003E00
FC007E00
F8007E00
F800FC00
F801FC08
F801FC0C
F803FC18
F8077C38
FC0FF870
FC1EFCE0
FFFCFFC0
7FF8FF80
7FF07F00
3FC07E00
04001000
ENDCHAR
STARTCHAR 00E3
ENCODING 227
SWIDTH 568 0
DWIDTH 33 0
BBX 30 45 1 -1
BITMAP
0003F00C
0007FE1C
000FFFFC
001FFFF8
00183FF0
001803E0
00000000
00000000
00000000
00000000
00000000
00000000
00000000
0001F000
0007FCF8
001FFDF0
003F0FF0
007C0FF0
01F807E0
01F007E0
03E007C0
07C00FC0
0FC00FC0
0F800F80
1F000F80
3F001F80
3E001F00
7E001F00
7E003F00
7C003E00
FC003E00
FC007E00
F8007E00
F800FC00
F801FC08
F801FC0C
F803FC18
F8077C38
FC0FF870
FC1EFCE0
FFFCFFC0
7FF8FF80
7FF07F00
3FC07E00
04001000
ENDCHAR
STARTCHAR 00E4
ENCODING 228
SWIDTH 568 0
DWIDTH 33 0
BBX 30 45 1 -1
BITMAP
0001C0F0
0007E1F8
0007E3F8
000FE3F8
000FE3F0
000FC3F0
000781C0
00000000
00000000
00000000
00000000
00000000
00000000
0001F000
0007FCF8
001FFDF0
003F0FF0
007C0FF0
01F807E0
01F007E0
03E007C0
07C00FC0
0FC00FC0
0F800F80
1F000F80
3F001F80
3E001F00
7E001F00
7E003F00
7C003E00
FC003E00
FC007E00
F8007E00
F800FC00
F801FC08
F801FC0C
F803FC18
F8077C38
FC0FF870
FC1EFCE0
FFFCFFC0
7FF8FF80
7FF07F00
3FC07E00
04001000
ENDCHAR
STARTCHAR 00E5
ENCODING 229
SWIDTH 568 0
DWIDTH 33 0
BBX 30 49 1 -1
BITMAP
00001F00
00003F80
00007FC0
0000E1C0
0000C1C0
0001C1C0
0001C180
0001C380
0001FF00
0000FE00
00007800
00000000
00000000
00000000
00000000
00000000
00000000
0001F000
0007FCF8
001FFDF0
003F0FF0
007C0FF0
01F807E0
01F007E0
03E007C0
07C00FC0
0FC00FC0
0F800F80
1F000F80
3F001F80
3E001F00
7E001F00
7E003F00
7C003E00
FC003E00
FC007E00
F8007E00
F800FC00
F801FC08
F801FC0C
F803FC18
F8077C38
FC0FF870
FC1EFCE0
FFFCFFC0
7FF8FF80
7FF07F00
3FC07E00
04001000
ENDCHAR
STARTCHAR 00E6
ENCODING 230
SWIDTH 758 0
DWIDTH 44 0
BBX 42 33 1 -1
BITMAP
000000780000
0001F0F87E00
0007FCFBFF00
001FFDF7FF80
003F0FFF0FC0
007C0FFE07C0
01F807FC07C0
01F007F80FC0
03E007F00FC0
07C00FE00F80
0FC00FE01F00
0F800FC03F00
1F000FC07E00
3F000F80F800
3F001F81F000
7E001F07E000
7E001F1F8000
7C003FFE0000
FC003FF80000
FC007FC00000
F8007E000000
F800FE000000
F800FE000000
F801FE000800
F803FE001C00
F807FE003800
FC0F3E007000
FC1E3F00F000
FFFC3F01E000
7FF81FC7C000
7FF00FFF0000
3FC007FC0000
040000400000
ENDCHAR
STARTCHAR 00E7
ENCODING 231
SWIDTH 448 0
DWIDTH 26 0
BBX 24 46 1 -15
BITMAP
0001F0
000FFC
001FFE
007C3F
00F83F
01F03F
03E03F
07E01E
07C000
0F8000
1F8000
1F0000
3F0000
3F0000
7E0000
7E0000
7E0000
FC0000
FC0000
FC0000
FC0000
FC0038
FC0030
FC0070
FC00E0
FC01C0
FE03C0
7F0F80
3FFE00
3FFC00
0FF000
01E000
01C000
038000
070000
07F800
0FFC00
00FC00
007C00
607C00
F07C00
F07800
F9F800
FFE000
3FC000
040000
ENDCHAR
STARTCHAR 00E8
ENCODING 232
SWIDTH 448 0
DWIDTH 26 0
BBX 25 47 1 -1
BITMAP
00038000
0007C000
0007E000
0007F000
0003F800
0000FC00
00003E00
00000F00
00000300
00000000
00000000
00000000
00000000
00000000
00000000
0001F800
0007FE00
001FFF00
003E1F00
00F81F80
01F01F80
03E01F00
07E01F00
07C03F00
0F803E00
1F807C00
1F00F800
3F01F000
3E03E000
7E0F8000
7E3F0000
7DFC0000
FFE00000
FF800000
FC000000
FC000000
FC000000
FC002000
FC003800
FC007000
FC00E000
FC01C000
7E038000
7F9F0000
3FFE0000
0FF80000
01800000
ENDCHAR
STARTCHAR 00E9
ENCODING 233
SWIDTH 448 0
DWIDTH 26 0
BBX 28 47 1 -1
BITMAP
000000F0
000001F0
000007F0
00000FF0
00001FC0
00003F00
00007C00
0000F000
00018000
00000000
00000000
00000000
00000000
00000000
00000000
0001F800
0007FE00
001FFF00
003E1F00
00F81F80
01F01F80
03E01F00
07E01F00
07C03F00
0F803E00
1F807C00
1F00F800
3F01F000
3E03E000
7E0F8000
7E3F0000
7DFC0000
FFE00000
FF800000
FC000000
FC000000
FC000000
FC002000
FC003800
FC007000
FC00E000
FC01C000
7E038000
7F9F0000
3FFE0000
0FF80000
01800000
ENDCHAR
STARTCHAR 00EA
ENCODING 234
SWIDTH 448 0
DWIDTH 26 0
BBX 28 46 1 -1
BITMAP
00003F00
0000FF00
0001FF80
0003FFC0
0007C7C0
000F01E0
001C00F0
00700030
00000000
00000000
00000000
00000000
00000000
00000000
0001F800
0007FE00
001FFF00
003E1F00
00F81F80
01F01F80
03E01F00
07E01F00
07C03F00
0F803E00
1F807C00
1F00F800
3F01F000
3E03E000
7E0F8000
7E3F0000
7DFC0000
FFE00000
FF800000
FC000000
FC000000
FC000000
FC002000
FC003800
FC007000
FC00E000
FC01C000
7E038000
7F9F0000
3FFE0000
0FF80000
01800000
ENDCHAR
STARTCHAR 00EB
ENCODING 235
SWIDTH 448 0
DWIDTH 26 0
BBX 28 45 1 -1
BITMAP
0003C0E0
0007C3F0
000FE3F0
000FC7F0
000FC7F0
000F87E0
000F03C0
00000000
00000000
00000000
00000000
00000000
00000000
0001F800
0007FE00
001FFF00
003E1F00
00F81F80
01F01F80
03E01F00
07E01F00
07C03F00
0F803E00
1F807C00
1F00F800
3F01F000
3E03E000
7E0F8000
7E3F0000
7DFC0000
FFE00000
FF800000
FC000000
FC000000
FC000000
FC002000
FC003800
FC007000
FC00E000
FC01C000
7E038000
7F9F0000
3FFE0000
0FF80000
01800000
ENDCHAR
STARTCHAR 00EC
ENCODING 236
SWIDTH 344 0
DWIDTH 20 0
BBX 18 47 2 -1
BITMAP
01E000
03F000
03F800
03FC00
00FC00
007E00
001F00
000780
0001C0
000000
000000
000000
000000
000000
000000
00F800
01F800
07FC00
0FFC00
1FFC00
39F800
71F800
E1F800
C1F800
C3F000
03F000
03F000
07E000
07E000
07C000
0FC000
0FC000
0F8000
1F8000
1F8000
1F0000
3F0200
3E0700
3E0E00
7E0C00
7E1C00
7E7800
7FF000
7FE000
7FC000
3F0000
080000
ENDCHAR
STARTCHAR 00ED
ENCODING 237
SWIDTH 344 0
DWIDTH 20 0
BBX 22 47 2 -1
BITMAP
000038
0000FC
0001FC
0003F8
0007E0
001F80
003E00
007800
00E000
000000
000000
000000
000000
000000
000000
00F800
01F800
07FC00
0FFC00
1FFC00
39F800
71F800
E1F800
C1F800
C3F000
03F000
03F000
07E000
07E000
07C000
0FC000
0FC000
0F8000
1F8000
1F8000
1F0000
3F0200
3E0700
3E0E00
7E0C00
7E1C00
7E7800
7FF000
7FE000
7FC000
3F0000
080000
ENDCHAR
STARTCHAR 00EE
ENCODING 238
SWIDTH 344 0
DWIDTH 20 0
BBX 22 46 2 -1
BITMAP
001F80
003FC0
007FE0
00FFE0
03E1F0
0780F0
0E0038
18001C
000000
000000
000000
000000
000000
000000
00F800
01F800
07FC00
0FFC00
1FFC00
39F800
71F800
E1F800
C1F800
C3F000
03F000
03F000
07E000
07E000
07C000
0FC000
0FC000
0F8000
1F8000
1F8000
1F0000
3F0200
3E0700
3E0E00
7E0C00
7E1C00
7E7800
7FF000
7FE000
7FC000
3F0000
080000
ENDCHAR
STARTCHAR 00EF
ENCODING 239
SWIDTH 344 0
DWIDTH 20 0
BBX 22 45 2 -1
BITMAP
01E078
03F0F8
07F1FC
07F1FC
07F1F8
07E1F0
0380E0
000000
000000
000000
000000
000000
000000
00F800
01F800
07FC00
0FFC00
1FFC00
39F800
71F800
E1F800
C1F800
C3F000
03F000
03F000
07E000
07E000
07C000
0FC000
0FC000
0F8000
1F8000
1F8000
1F0000
3F0200
3E0700
3E0E00
7E0C00
7E1C00
7E7800
7FF000
7FE000
7FC000
3F0000
080000
ENDCHAR
STARTCHAR 00F0
ENCODING 240
SWIDTH 586 0
DWIDTH 34 0
BBX 32 46 1 -1
BITMAP
00060003
000FC00F
0007F03E
0000FCF8
00007FE0
00001F80
00003FC0
0000FFC0
0003E7E0
000F83F0
001E03F0
000801F8
000001F8
000001FC
000000FC
000000FC
0003E0FC
001FFCFC
007FFEFE
00FC1EFE
01F80FFE
03F007FE
07E003FE
0FC003FC
1FC003FC
1F8003FC
3F8003FC
3F8003FC
7F0003F8
7F0003F8
7F0003F8
FF0007F0
FE0007F0
FE0007F0
FE000FE0
FE000FC0
FE001FC0
7E001F80
7E003F00
7F003E00
3F007C00
3F81F800
1FE7F000
0FFFC000
03FF0000
00200000
ENDCHAR
STARTCHAR 00F1
ENCODING 241
SWIDTH 620 0
DWIDTH 36 0
BBX 33 45 1 -1
BITMAP
0001F80600
0003FF0E00
0007FFFC00
000FFFFC00
000C1FF800
001803F000
0000000000
0000000000
0000000000
0000000000
0000000000
0000000000
0000000000
00F003F000
03F80FFC00
07FC1FFC00
0E7C3C7E00
1C7C707E00
187CE07E00
307DC07E00
307B807C00
60FB00FC00
60FF00FC00
C0FE00FC00
C1FC01F800
01FC01F800
01F801F800
03F803F000
03F003F000
03F003F000
07E007E000
07E007E000
07E007E000
07C00FC000
0FC00FC000
0F800FC180
0F801F8380
1F801F8700
1F001F8E00
1F001F9C00
3F001FF800
3E001FF000
3E001FE000
7C000F8000
0000040000
ENDCHAR
STARTCHAR 00F2
ENCODING 242
SWIDTH 517 0
DWIDTH 30 0
BBX 27 47 1 -1
BITMAP
00078000
000FC000
000FE000
000FF000
0003F800
0001F800
00007C00
00001E00
00000700
00000000
00000000
00000000
00000000
00000000
00000000
0003F000
001FFC00
003FFE00
00FE1F00
01F80F80
03F00780
07F007C0
07E007C0
0FC007C0
1FC007E0
1F8007E0
3F8007E0
3F8007E0
7F000FC0
7F000FC0
7F000FC0
7E000FC0
7E001F80
FE001F80
FE001F80
FE003F00
FE003F00
7C007E00
7C007C00
7E00FC00
7E01F800
3E03F000
3F07E000
1F9FC000
0FFF0000
03FC0000
00400000
ENDCHAR
STARTCHAR 00F3
ENCODING 243
SWIDTH 517 0
DWIDTH 30 0
BBX 28 47 1 -1
BITMAP
000000E0
000003F0
000007F0
00000FE0
00001FC0
00003E00
0000F800
0001E000
00038000
00000000
00000000
00000000
00000000
00000000
00000000
0003F000
001FFC00
003FFE00
00FE1F00
01F80F80
03F00780
07F007C0
07E007C0
0FC007C0
1FC007E0
1F8007E0
3F8007E0
3F8007E0
7F000FC0
7F000FC0
7F000FC0
7E000FC0
7E001F80
FE001F80
FE001F80
FE003F00
FE003F00
7C007E00
7C007C00
7E00FC00
7E01F800
3E03F000
3F07E000
1F9FC000
0FFF0000
03FC0000
00400000
ENDCHAR
STARTCHAR 00F4
ENCODING 244
SWIDTH 517 0
DWIDTH 30 0
BBX 29 46 1 -1
BITMAP
00001F80
00003FC0
0000FFC0
0001FFE0
0003E3F0
000780F0
000E0078
00380018
00000000
00000000
00000000
00000000
00000000
00000000
0003F000
001FFC00
003FFE00
00FE1F00
01F80F80
03F00780
07F007C0
07E007C0
0FC007C0
1FC007E0
1F8007E0
3F8007E0
3F8007E0
7F000FC0
7F000FC0
7F000FC0
7E000FC0
7E001F80
FE001F80
FE001F80
FE003F00
FE003F00
7C007E00
7C007C00
7E00FC00
7E01F800
3E03F000
3F07E000
1F9FC000
0FFF0000
03FC0000
00400000
ENDCHAR
STARTCHAR 00F5
ENCODING 245
SWIDTH 517 0
DWIDTH 30 0
BBX 29 45 1 -1
BITMAP
0007E018
000FFC38
001FFFF0
003FFFF0
00307FE0
006007C0
00000000
00000000
00000000
00000000
00000000
00000000
00000000
0003F000
001FFC00
003FFE00
00FE1F00
01F80F80
03F00780
07F007C0
07E007C0
0FC007C0
1FC007E0
1F8007E0
3F8007E0
3F8007E0
7F000FC0
7F000FC0
7F000FC0
7E000FC0
7E001F80
FE001F80
FE001F80
FE003F00
FE003F00
7C007E00
7C007C00
7E00FC00
7E01F800
3E03F000
3F07E000
1F9FC000
0FFF0000
03FC0000
00400000
ENDCHAR
STARTCHAR 00F6
ENCODING 246
SWIDTH 517 0
DWIDTH 30 0
BBX 29 45 1 -1
BITMAP
0001C070
0003E1F8
0007E1F8
0007E3F8
0007E3F8
0007C3F0
000781E0
00000000
00000000
00000000
00000000
00000000
00000000
0003F000
001FFC00
003FFE00
00FE1F00
01F80F80
03F00780
07F007C0
07E007C0
0FC007C0
1FC007E0
1F8007E0
3F8007E0
3F8007E0
7F000FC0
7F000FC0
7F000FC0
7E000FC0
7E001F80
FE001F80
FE001F80
FE003F00
FE003F00
7C007E00
7C007C00
7E00FC00
7E01F800
3E03F000
3F07E000
1F9FC000
0FFF0000
03FC0000
00400000
ENDCHAR
STARTCHAR 00F7
ENCODING 247
SWIDTH 603 0
DWIDTH 35 0
BBX 27 28 4 6
BITMAP
000F0000
001F8000
003F8000
003FC000
003FC000
003F8000
001F8000
000F0000
00000000
00000000
00000000
00000000
00000000
FFFFFFE0
FFFFFFE0
FFFFFFE0
00000000
00000000
00000000
00000000
000F0000
001F8000
003F8000
003FC000
003FC000
003F8000
001F8000
000F0000
ENDCHAR
STARTCHAR 00F8
ENCODING 248
SWIDTH 517 0
DWIDTH 30 0
BBX 34 38 -3 -4
BITMAP
00000003C0
0000000780
0000000F80
00003F0F00
0001FFDE00
0003FFFC00
000FE1FC00
001F80F800
003F00F800
007F01FC00
007E03FC00
00FC07FC00
01FC07FC00
01F80F7E00
03F81E7E00
03F83C7E00
07F07CFC00
07F078FC00
07F0F0FC00
07E1E0FC00
07E3C1FC00
0FE781F800
0FE781F800
0FEF03F000
0FFE03F000
07FC07E000
07F807C000
07F80FC000
07F01F8000
03E03F0000
03F07E0000
07F9FC0000
07FFF00000
0F3FC00000
1E04000000
3C00000000
7800000000
F000000000
ENDCHAR
STARTCHAR 00F9
ENCODING 249
SWIDTH 586 0
DWIDTH 34 0
BBX 31 47 1 -1
BITMAP
0003C000
0007E000
0007F000
0003F800
0001FC00
00007E00
00001E00
00000700
00000380
00000000
00000000
00000000
00000000
00000000
00000000
00780000
01FC00FC
03FC00F8
07FC00F8
0FFC01F8
1CFC01F0
38FC03F0
70F803F0
61F803F0
C1F807E0
01F007E0
03F007E0
03F00FC0
07E00FC0
07E01FC0
07C01F80
0FC03F80
0FC03F80
1F807F00
1F807F00
1F80FF00
3F01FE06
3F01FE06
3F03BE0C
3F073E1C
3F0F3C38
3F1E7C70
3FFC3FE0
3FF83FE0
3FF03F80
1FC03F00
02000800
ENDCHAR
STARTCHAR 00FA
ENCODING 250
SWIDTH 586 0
DWIDTH 34 0
BBX 31 47 1 -1
BITMAP
00000070
000001F8
000003F8
000007F0
00000FE0
00001F80
00003C00
0000F000
0001C000
00000000
00000000
00000000
00000000
00000000
00000000
00780000
01FC00FC
03FC00F8
07FC00F8
0FFC01F8
1CFC01F0
38FC03F0
70F803F0
61F803F0
C1F807E0
01F007E0
03F007E0
03F00FC0
07E00FC0
07E01FC0
07C01F80
0FC03F80
0FC03F80
1F807F00
1F807F00
1F80FF00
3F01FE06
3F01FE06
3F03BE0C
3F073E1C
3F0F3C38
3F1E7C70
3FFC3FE0
3FF83FE0
3FF03F80
1FC03F00
02000800
ENDCHAR
STARTCHAR 00FB
ENCODING 251
SWIDTH 586 0
DWIDTH 34 0
BBX 31 46 1 -1
BITMAP
00001F00
00003F80
0000FFC0
0001FFC0
0003E7E0
000781F0
000E00F0
00380038
00000000
00000000
00000000
00000000
00000000
00000000
00780000
01FC00FC
03FC00F8
07FC00F8
0FFC01F8
1CFC01F0
38FC03F0
70F803F0
61F803F0
C1F807E0
01F007E0
03F007E0
03F00FC0
07E00FC0
07E01FC0
07C01F80
0FC03F80
0FC03F80
1F807F00
1F807F00
1F80FF00
3F01FE06
3F01FE06
3F03BE0C
3F073E1C
3F0F3C38
3F1E7C70
3FFC3FE0
3FF83FE0
3FF03F80
1FC03F00
02000800
ENDCHAR
STARTCHAR 00FC
ENCODING 252
SWIDTH 586 0
DWIDTH 34 0
BBX 31 45 1 -1
BITMAP
0001C0F0
0007E1F8
0007E3F8
000FE3F8
000FE3F0
000FC3F0
000781C0
00000000
00000000
00000000
00000000
00000000
00000000
00780000
01FC00FC
03FC00F8
07FC00F8
0FFC01F8
1CFC01F0
38FC03F0
70F803F0
61F803F0
C1F807E0
01F007E0
03F007E0
03F00FC0
07E00FC0
07E01FC0
07C01F80
0FC03F80
0FC03F80
1F807F00
1F807F00
1F80FF00
3F01FE06
3F01FE06
3F03BE0C
3F073E1C
3F0F3C38
3F1E7C70
3FFC3FE0
3FF83FE0
3FF03F80
1FC03F00
02000800
ENDCHAR
STARTCHAR 00FD
ENCODING 253
SWIDTH 517 0
DWIDTH 30 0
BBX 35 62 -6 -15
BITMAP
0000000200
0000000F80
0000003F80
0000007F00
000000FE00
000001F800
000003E000
0000078000
00001E0000
0000000000
0000000000
0000000000
0000000000
0000000000
0000000000
0000000000
000F0001C0
001F0003C0
003F8007E0
007F8007E0
00FFC007E0
00FFC007E0
01C7C007E0
0187E007E0
0183E007C0
0383E007C0
0303F007C0
0301F00780
0501F00780
0001F00700
0001F80700
0000F80F00
0000F80E00
0000F81E00
0000F81C00
0000FC3C00
00007C3800
00007C7800
00007C7000
00007CE000
00007FE000
00003FC000
00003FC000
00003F8000
00003F0000
00003F0000
00003E0000
00003C0000
0000780000
0000780000
0000F00000
0001E00000
0001C00000
0003C00000
7007800000
F80F000000
F81E000000
FC38000000
FFF0000000
FFE0000000
7F80000000
0800000000
ENDCHAR
STARTCHAR 00FE
ENCODING 254
SWIDTH 534 0
DWIDTH 31 0
BBX 38 62 -9 -14
BITMAP
00007FF800
00007FF000
00000FF000
000007E000
000007E000
000007E000
000007C000
000007C000
00000FC000
00000F8000
00000F8000
00001F8000
00001F0000
00001F0000
00003F0000
00003E0000
00003E0000
00007E0FC0
00007C7FF0
00007CFFF8
00007DE1F8
0000FBC0FC
0000FF80FC
0000FF00FC
0001FE007C
0001FC00FC
0001F800FC
0003F800FC
0003F000FC
0003F000FC
0003E000FC
0007E001F8
0007C001F8
0007C003F0
000FC003F0
000F8003F0
000F8007E0
001F8007C0
001F800FC0
001F801F80
003F001F00
003F003E00
003F807C00
003F80F800
007F81F000
007FC7E000
007FFF8000
00FDFE0000
00FC200000
00F8000000
01F8000000
01F8000000
01F8000000
01F0000000
03F0000000
03F0000000
03F0000000
07F0000000
0FF0000000
FFFF800000
FFFF800000
FFFF800000
ENDCHAR
STARTCHAR 00FF
ENCODING 255
SWIDTH 517 0
DWIDTH 30 0
BBX 35 59 -6 -15
BITMAP
00001C0F00
00007E1F80
00007E3F80
0000FE3F80
0000FE3F00
0000FC3F00
0000781C00
0000000000
0000000000
0000000000
0000000000
0000000000
0000000000
000F0001C0
001F0003C0
003F8007E0
007F8007E0
00FFC007E0
00FFC007E0
01C7C007E0
0187E007E0
0183E007C0
0383E007C0
0303F007C0
0301F00780
0501F00780
0001F00700
0001F80700
0000F80F00
0000F80E00
0000F81E00
0000F81C00
0000FC3C00
00007C3800
00007C7800
00007C7000
00007CE000
00007FE000
00003FC000
00003FC000
00003F8000
00003F0000
00003F0000
00003E0000
00003C0000
0000780000
0000780000
0000F00000
0001E00000
0001C00000
0003C00000
7007800000
F80F000000
F81E000000
FC38000000
FFF0000000
FFE0000000
7F80000000
0800000000
ENDCHAR
STARTCHAR 0100
ENCODING 256
SWIDTH 758 0
DWIDTH 44 0
BBX 54 53 -6 0
BITMAP
0000000003FFFC
0000000003FFF8
0000000007FFF8
00000000000000
00000000000000
00000000000000
00000000000000
00000000000000
00000000007C00
0000000000FC00
0000000001FC00
0000000003F800
0000000003F800
0000000007F800
000000000FF800
000000001FF000
000000003DF000
000000007DF000
000000007BF000
00000000F3E000
00000001E3E000
00000003C3E000
0000000787E000
0000000F07E000
0000001F07C000
0000001E07C000
0000003C0FC000
000000780FC000
000000F00F8000
000001E01F8000
000003C01F8000
000007801F8000
000007801F8000
00000FFFFF0000
00001FFFFF0000
00003FFFFF0000
000078003F0000
0000F0003E0000
0001E0007E0000
0001C0007E0000
000380007E0000
000700007C0000
000E00007C0000
001E0000FC0000
003C0000FC0000
00780000FC0000
00F00000F80000
01E00001F80000
03E00001F80000
0FE00003FC0000
3FFC000FFF0000
FFFE007FFFE000
FFFE007FFFC000
ENDCHAR
STARTCHAR 0101
ENCODING 257
SWIDTH 568 0
DWIDTH 33 0
BBX 30 44 1 -1
BITMAP
0007FFF8
0007FFF0
000FFFF0
00000000
00000000
00000000
00000000
00000000
00000000
00000000
00000000
00000000
0001F000
0007FCF8
001FFDF0
003F0FF0
007C0FF0
01F807E0
01F007E0
03E007C0
07C00FC0
0FC00FC0
0F800F80
1F000F80
3F001F80
3E001F00
7E001F00
7E003F00
7C003E00
FC003E00
FC007E00
F8007E00
F800FC00
F801FC08
F801FC0C
F803FC18
F8077C38
FC0FF870
FC1EFCE0
FFFCFFC0
7FF8FF80
7FF07F00
3FC07E00
04001000
ENDCHAR
STARTCHAR 0102
ENCODING 258
SWIDTH 758 0
DWIDTH 44 0
BBX 55 55 -6 0
BITMAP
0000000001800E
0000000001E03C
0000000001FFF8
0000000001FFF0
0000000000FFE0
00000000003F80
00000000000000
00000000000000
00000000000000
00000000000000
00000000007C00
0000000000FC00
0000000001F800
0000000003F800
0000000007F800
000000000FF800
000000001FF800
000000001FF000
000000003DF000
0000000079F000
00000000F3F000
00000001E3E000
00000003E3E000
00000003C3E000
0000000787E000
0000000F07C000
0000001E07C000
0000003C07C000
0000007C0FC000
000000780FC000
000000F00F8000
000001E01F8000
000003C01F8000
000007801F8000
00000F801F0000
00000FFFFF0000
00001FFFFF0000
00003FFFFF0000
000078003F0000
0000F0003E0000
0001E0007E0000
0001C0007E0000
000380007E0000
000700007C0000
000E00007C0000
001E0000FC0000
003C0000FC0000
00780000FC0000
00F00000F80000
01E00001F80000
03E00001F80000
0FE00003FC0000
3FFC000FFF0000
FFFE007FFFE000
FFFE007FFFC000
ENDCHAR
STARTCHAR 0103
ENCODING 259
SWIDTH 568 0
DWIDTH 33 0
BBX 30 45 1 -1
BITMAP
00070018
00070038
0007C0F0
0007FFE0
0003FFC0
0001FF80
0000FE00
00000000
00000000
00000000
00000000
00000000
00000000
0001F000
0007FCF8
001FFDF0
003F0FF0
007C0FF0
01F807E0
01F007E0
03E007C0
07C00FC0
0FC00FC0
0F800F80
1F000F80
3F001F80
3E001F00
7E001F00
7E003F00
7C003E00
FC003E00
FC007E00
F8007E00
F800FC00
F801FC08
F801FC0C
F803FC18
F8077C38
FC0FF870
FC1EFCE0
FFFCFFC0
7FF8FF80
7FF07F00
3FC07E00
04001000
ENDCHAR
STARTCHAR 0104
ENCODING 260
SWIDTH 758 0
DWIDTH 44 0
BBX 46 58 -6 -13
BITMAP
00000000007C
0000000000FC
0000000001F8
0000000003F8
0000000007F8
000000000FF8
000000000FF8
000000001FF0
000000003DF0
0000000079F0
00000000F3F0
00000001F3E0
00000001E3E0
00000003C3E0
0000000787E0
0000000F07E0
0000001E07C0
0000003E07C0
0000003C0FC0
000000780FC0
000000F00F80
000001E01F80
000003C01F80
000007801F80
00000F801F00
00000FFFFF00
00001FFFFF00
00003FFFFF00
000078003F00
0000F0003E00
0001E0007E00
0001C0007E00
000380007E00
000700007C00
000E00007C00
001E0000FC00
003C0000FC00
00780000FC00
00F00000F800
01E00001F800
03E00001F800
0FE00003FC00
3FFC000FFF00
FFFE007FFFE0
FFFE007FFFC0
000000078000
0000000F0000
0000003E0000
0000007C0000
000000780000
000000F00000
000000F00000
000001F00800
000001F01C00
000001F87800
000000FFF000
000000FFE000
0000003F0000
ENDCHAR
STARTCHAR 0105
ENCODING 261
SWIDTH 568 0
DWIDTH 33 0
BBX 30 44 1 -13
BITMAP
0001F000
0007FCF8
001FFDF0
003F0FF0
007C0FF0
01F807E0
01F007E0
03E007C0
07C00FC0
0FC00FC0
0F800F80
1F000F80
3F001F80
3E001F00
7E001F00
7E003F00
7C003E00
FC003E00
FC007E00
F8007E00
F800FC00
F801FC00
F801FC0C
F803FC18
F8077C38
FC0FF870
FC1EFCE0
FFFCFFC0
7FF8FFC0
7FF07F00
3FC07E00
0400F000
0003C000
00078000
000F0000
001E0000
003E0000
003C0000
003C0200
003E0700
003F1F00
003FFE00
001FF800
000FE000
ENDCHAR
STARTCHAR 0106
ENCODING 262
SWIDTH 724 0
DWIDTH 42 0
BBX 40 56 4 -1
BITMAP
00000001E0
00000007F0
0000001FE0
0000007FC0
000001FF00
000007E000
0000080000
0000000000
0000000000
0000000000
0000008000
00001FFE07
0000FFFF8E
0003FF0FEE
0007F003FE
001FC000FE
003F0000FE
007E00007C
00FC00007C
01F800003C
03F000003C
07F000003C
07E0000038
0FC0000018
0FC0000018
1FC0000000
1F80000000
3F80000000
3F00000000
7F00000000
7F00000000
7F00000000
7F00000000
7E00000000
FE00000000
FE00000000
FE00000000
FE00000000
FE00000000
FE00000000
FE00000000
FF00000000
7F00000080
7F000000E0
7F000001C0
3F80000380
3F80000780
3FC0000F00
1FC0001E00
0FF0003C00
07F800F800
03FFFFF000
01FFFFE000
00FFFF8000
001FFE0000
0000C00000
ENDCHAR
STARTCHAR 0107
ENCODING 263
SWIDTH 448 0
DWIDTH 26 0
BBX 28 47 1 -1
BITMAP
000001E0
000003F0
000007E0
00000FE0
00003F80
00007E00
0000F800
0001E000
00038000
00000000
00000000
00000000
00000000
00000000
00000000
0001F000
000FFC00
001FFE00
007C3F00
00F83F00
01F03F00
03E03F00
07E01E00
07C00800
0F800000
1F800000
1F000000
3F000000
3F000000
7E000000
7E000000
7E000000
FC000000
FC000000
FC000000
FC000000
FC003000
FC003800
FC007000
FC00E000
FC01E000
7E03C000
7E078000
3FFF0000
1FFC0000
0FF80000
01800000
ENDCHAR
STARTCHAR 0108
ENCODING 264
SWIDTH 724 0
DWIDTH 42 0
BBX 40 56 4 -1
BITMAP
000000FF00
000001FF80
000003FF80
00000FCFC0
00001F03E0
00007800F0
0000000000
0000000000
0000000000
0000000000
0000008000
00001FFE07
0000FFFF8E
0003FF0FFE
0007F003FE
001FC001FE
003F0000FE
007E00007C
00FC00007C
01F800003C
03F000003C
07F000003C
07E0000038
0FC0000018
0FC0000018
1FC0000000
1F80000000
3F80000000
3F00000000
7F00000000
7F00000000
7F00000000
7F00000000
7E00000000
FE00000000
FE00000000
FE00000000
FE00000000
FE00000000
FE00000000
FE00000000
FF00000000
7F00000080
7F000000E0
7F000001C0
3F80000380
3F80000780
3FC0000F00
1FC0001E00
0FF0003C00
07F800F800
03FFFFF000
01FFFFE000
00FFFF8000
001FFE0000
0000C00000
ENDCHAR
STARTCHAR 0109
ENCODING 265
SWIDTH 448 0
DWIDTH 26 0
BBX 28 46 1 -1
BITMAP
00007E00
0000FF00
0001FF00
0007FF80
000F8FC0
001E03C0
003801E0
00600070
00000000
00000000
00000000
00000000
00000000
00000000
0001F000
000FFC00
001FFE00
007C3F00
00F83F00
01F03F00
03E03F00
07E01E00
07C00800
0F800000
1F800000
1F000000
3F000000
3F000000
7E000000
7E000000
7E000000
FC000000
FC000000
FC000000
FC000000
FC003000
FC003800
FC007000
FC00E000
FC01E000
7E03C000
7E078000
3FFF0000
1FFC0000
0FF80000
01800000
ENDCHAR
STARTCHAR 010A
ENCODING 266
SWIDTH 724 0
DWIDTH 42 0
BBX 40 56 4 -1
BITMAP
0000003C00
0000007E00
0000007E00
0000007E00
0000007E00
0000003C00
0000000000
0000000000
0000000000
0000000000
0000008000
00001FFE07
0000FFFF8E
0003FF0FFE
0007F003FE
001FC001FE
003F0000FE
007E00007C
00FC00007C
01F800003C
03F000003C
07F000003C
07E0000038
0FC0000018
0FC0000018
1FC0000000
1F80000000
3F80000000
3F00000000
7F00000000
7F00000000
7F00000000
7F00000000
7E00000000
FE00000000
FE00000000
FE00000000
FE00000000
FE00000000
FE00000000
FE00000000
FF00000000
7F00000080
7F000000E0
7F000001C0
3F80000380
3F80000780
3FC0000F00
1FC0001E00
0FF0003C00
07F800F800
03FFFFF000
01FFFFE000
00FFFF8000
001FFE0000
0000C00000
ENDCHAR
STARTCHAR 010B
ENCODING 267
SWIDTH 448 0
DWIDTH 26 0
BBX 24 47 1 -1
BITMAP
000078
0000FC
0000FE
0000FE
0000FE
0000FC
000078
000000
000000
000000
000000
000000
000000
000000
000000
0001F0
000FFC
001FFE
007C3F
00F83F
01F03F
03E03F
07E01E
07C008
0F8000
1F8000
1F0000
3F0000
3F0000
7E0000
7E0000
7E0000
FC0000
FC0000
FC0000
FC0000
FC0030
FC0038
FC0070
FC00E0
FC01E0
7E03C0
7E0780
3FFF00
1FFC00
0FF800
018000
ENDCHAR
STARTCHAR 010C
ENCODING 268
SWIDTH 724 0
DWIDTH 42 0
BBX 40 56 4 -1
BITMAP
00003C0038
00000F01F0
00000FC7C0
000007FF80
000003FF00
000003FE00
0000000000
0000000000
0000000000
0000000000
0000008000
00001FFE07
0000FFFF8E
0003FF0FEE
0007F003FE
001FC000FE
003F0000FE
007E00007C
00FC00007C
01F800003C
03F000003C
07F000003C
07E0000038
0FC0000018
0FC0000018
1FC0000000
1F80000000
3F80000000
3F00000000
7F00000000
7F00000000
7F00000000
7F00000000
7E00000000
FE00000000
FE00000000
FE00000000
FE00000000
FE00000000
FE00000000
FE00000000
FF00000000
7F00000080
7F000000E0
7F000001C0
3F80000380
3F80000780
3FC0000F00
1FC0001E00
0FF0003C00
07F800F800
03FFFFF000
01FFFFE000
00FFFF8000
001FFE0000
0000C00000
ENDCHAR
STARTCHAR 010D
ENCODING 269
SWIDTH 448 0
DWIDTH 26 0
BBX 30 46 1 -1
BITMAP
001C003C
000E00F0
000F83E0
0007CF80
0003FF00
0003FE00
0001FC00
0001F800
00000000
00000000
00000000
00000000
00000000
00000000
0001F000
000FFC00
001FFE00
007C3F00
00F83F00
01F03F00
03E03F00
07E01E00
07C00800
0F800000
1F800000
1F000000
3F000000
3F000000
7E000000
7E000000
7E000000
FC000000
FC000000
FC000000
FC000000
FC003000
FC003800
FC007000
FC00E000
FC01E000
7E03C000
7E078000
3FFF0000
1FFC0000
0FF80000
01800000
ENDCHAR
STARTCHAR 010E
ENCODING 270
SWIDTH 827 0
DWIDTH 48 0
BBX 48 55 -2 0
BITMAP
000003C003C0
000000F01F00
000000FCFC00
0000007FF800
0000003FF000
0000001FC000
000000000000
000000000000
000000000000
000000000000
000000000000
001FFFFF8000
001FFFFFF800
0003FFFFFE00
0000FF00FF80
00007E003FC0
00007E000FE0
0000FC0007F0
0000FC0003F8
0000FC0001FC
0001FC0000FC
0001F80000FE
0001F80000FE
0001F800007E
0003F800007F
0003F000007F
0003F000007F
0003F000007F
0007E000007F
0007E000007F
0007E000007F
0007E000007F
000FC000007F
000FC000007F
000FC000007F
000FC000007E
001F800000FE
001F800000FE
001F800000FC
003F000001FC
003F000001FC
003F000003F8
003F000003F8
007E000007F0
007E000007E0
007E00000FC0
007E00001FC0
00FC00003F80
00FC00007F00
00FC0001FE00
01FE0003F800
03FF001FF000
0FFFC1FFC000
7FFFFFFE0000
FFFFFFE00000
ENDCHAR
STARTCHAR 010F
ENCODING 271
SWIDTH 603 0
DWIDTH 35 0
BBX 43 49 1 -1
BITMAP
000003FFC000
000003FF8000
000003FF8000
0000001F8100
0000001F07C0
0000001F0FE0
0000001F0FE0
0000003F0FE0
0000003E0FC0
0000003E05C0
0000007E0380
0000007C0700
0000007C0E00
0000007C3800
000000FC1000
000000F80000
000000F80000
0001F1F80000
0007FDF00000
001FFFF00000
003F0FF00000
007C07F00000
00F807E00000
01F007E00000
03E007E00000
07C007E00000
0FC007C00000
0F8007C00000
1F800FC00000
3F000F800000
3F000F800000
7E001F800000
7E001F800000
7C001F000000
FC003F000000
FC003F000000
FC007F000000
F8007F030000
F800FE070000
F801FE060000
F801FE0E0000
F803BE0C0000
FC07BE1C0000
FE0F3E380000
7FFE3FF80000
7FFC3FF00000
3FF81FE00000
1FE01FC00000
020002000000
ENDCHAR
STARTCHAR 0110
ENCODING 272
SWIDTH 844 0
DWIDTH 49 0
BBX 48 44 -2 0
BITMAP
000FFFFF8000
001FFFFFF800
0003FFFFFE00
00007F00FF80
00007E001FC0
00007E000FE0
00007E0007F0
0000FC0003F8
0000FC0001FC
0000FC0000FC
0001F80000FE
0001F800007E
0001F800007F
0001F800007F
0003F000007F
0003F000003F
0003F000003F
0003F000003F
0007E000003F
0007E000003F
01FFFF80003F
01FFFF80007F
01FFFF80007F
000FC000007F
000FC000007F
001F8000007E
001F800000FE
001F800000FE
001F800001FC
003F000001FC
003F000003F8
003F000003F8
003E000007F0
007E00000FE0
007E00000FE0
007E00001FC0
00FE00003F80
00FC0000FF00
00FE0001FE00
01FE0007FC00
03FF003FF000
7FFFFFFFC000
7FFFFFFE0000
FFFFFFE00000
ENDCHAR
STARTCHAR 0111
ENCODING 273
SWIDTH 603 0
DWIDTH 35 0
BBX 36 49 1 -1
BITMAP
000003FFC0
000003FF80
000003FF80
0000001F80
0000001F00
0000001F00
0000001F00
0000003F00
00001FFFF0
00001FFFE0
00001FFFE0
0000007C00
0000007C00
0000007C00
000000FC00
000000F800
000000F800
0001F1F800
0007FDF000
001FFFF000
003F0FF000
007C07F000
00F807E000
01F007E000
03E007E000
07C007E000
0FC007C000
0F8007C000
1F800FC000
3F000F8000
3F000F8000
7E001F8000
7E001F8000
7C001F0000
FC003F0000
FC003F0000
FC007F0000
F8007F0300
F800FE0700
F801FE0600
F801FE0E00
F803BE0C00
FC07BE1C00
FE0F3E3800
7FFE3FF800
7FFC3FF000
3FF81FE000
1FE01FC000
0200020000
ENDCHAR
STARTCHAR 0112
ENCODING 274
SWIDTH 741 0
DWIDTH 43 0
BBX 43 53 -2 0
BITMAP
000001FFFE00
000001FFFC00
000003FFFC00
000000000000
000000000000
000000000000
000000000000
000000000000
000000000000
001FFFFFFFE0
001FFFFFFFE0
001FFFFFFFE0
0001FE001FE0
0000FE0007E0
0000FE0003E0
0000FC0001E0
0000FC0001E0
0000FC0000E0
0000FC0000E0
0000F80000E0
0001F8000060
0001F8000000
0001F8038000
0003F0030000
0003F0070000
0003F0070000
0003E00F0000
0007E03F0000
0007FFFE0000
0007FFFE0000
0007FFFE0000
000FC07E0000
000FC03E0000
000FC01C0000
001F801C0000
001F801C0000
001F801C0000
001F001C0000
003F00180000
003F00000000
003F00000000
003E00000380
007E00000380
007E00000700
007E00000700
00FC00000E00
00FC00001E00
00FC00003E00
01FE00007C00
03FF0001FC00
1FFFE03FFC00
7FFFFFFFF800
FFFFFFFFF800
ENDCHAR
STARTCHAR 0113
ENCODING 275
SWIDTH 448 0
DWIDTH 26 0
BBX 28 44 1 -1
BITMAP
000FFFF0
000FFFF0
000FFFE0
00000000
00000000
00000000
00000000
00000000
00000000
00000000
00000000
00000000
0001F800
0007FE00
001FFF00
003E1F00
00F81F80
01F01F80
03E01F00
07E01F00
07C03F00
0F803E00
1F807C00
1F00F800
3F01F000
3E03E000
7E0F8000
7E3F0000
7DFC0000
FFE00000
FF800000
FC000000
FC000000
FC000000
FC002000
FC003800
FC007000
FC00E000
FC01C000
7E038000
7F9F0000
3FFE0000
0FF80000
01800000
ENDCHAR
STARTCHAR 0114
ENCODING 276
SWIDTH 741 0
DWIDTH 43 0
BBX 43 55 -2 0
BITMAP
000000C00700
000000F01E00
000000FFFC00
000000FFF800
0000007FF000
0000001FC000
000000000000
000000000000
000000000000
000000000000
000000000000
001FFFFFFFE0
001FFFFFFFE0
001FFFFFFFE0
0001FE001FE0
0000FE0007E0
0000FE0003E0
0000FC0001E0
0000FC0001E0
0000FC0000E0
0000FC0000E0
0000F80000E0
0001F8000060
0001F8000000
0001F8038000
0003F0030000
0003F0070000
0003F0070000
0003E00F0000
0007E03F0000
0007FFFE0000
0007FFFE0000
0007FFFE0000
000FC07E0000
000FC03E0000
000FC01C0000
001F801C0000
001F801C0000
001F801C0000
001F001C0000
003F00180000
003F00000000
003F00000000
003E00000380
007E00000380
007E00000700
007E00000700
00FC00000E00
00FC00001E00
00FC00003E00
01FE00007C00
03FF0001FC00
1FFFE03FFC00
7FFFFFFFF800
FFFFFFFFF800
ENDCHAR
STARTCHAR 0115
ENCODING 277
SWIDTH 448 0
DWIDTH 26 0
BBX 29 45 1 -1
BITMAP
00060038
00070070
000781F0
0007FFE0
0007FFC0
0003FF00
0000FC00
00000000
00000000
00000000
00000000
00000000
00000000
0001F800
0007FE00
001FFF00
003E1F00
00F81F80
01F01F80
03E01F00
07E01F00
07C03F00
0F803E00
1F807C00
1F00F800
3F01F000
3E03E000
7E0F8000
7E3F0000
7DFC0000
FFE00000
FF800000
FC000000
FC000000
FC000000
FC002000
FC003800
FC007000
FC00E000
FC01C000
7E038000
7F9F0000
3FFE0000
0FF80000
01800000
ENDCHAR
STARTCHAR 0116
ENCODING 278
SWIDTH 741 0
DWIDTH 43 0
BBX 43 55 -2 0
BITMAP
000000038000
00000007C000
0000000FE000
0000000FE000
00000007C000
000000038000
000000000000
000000000000
000000000000
000000000000
000000000000
001FFFFFFFE0
001FFFFFFFE0
001FFFFFFFE0
0001FE001FE0
0000FE0007E0
0000FE0003E0
0000FC0001E0
0000FC0001E0
0000FC0000E0
0000FC0000E0
0000F80000E0
0001F8000060
0001F8000000
0001F8038000
0003F0030000
0003F0070000
0003F0070000
0003E00F0000
0007E03F0000
0007FFFE0000
0007FFFE0000
0007FFFE0000
000FC07E0000
000FC03E0000
000FC01C0000
001F801C0000
001F801C0000
001F801C0000
001F001C0000
003F00180000
003F00000000
003F00000000
003E00000380
007E00000380
007E00000700
007E00000700
00FC00000E00
00FC00001E00
00FC00003E00
01FE00007C00
03FF0001FC00
1FFFE03FFC00
7FFFFFFFF800
FFFFFFFFF800
ENDCHAR
STARTCHAR 0117
ENCODING 279
SWIDTH 448 0
DWIDTH 26 0
BBX 25 47 1 -1
BITMAP
00003C00
00007E00
0000FE00
0000FE00
0000FE00
00007E00
00003C00
00000000
00000000
00000000
00000000
00000000
00000000
00000000
00000000
0001F800
0007FE00
001FFF00
003E1F00
00F81F80
01F01F80
03E01F00
07E01F00
07C03F00
0F803E00
1F807C00
1F00F800
3F01F000
3E03E000
7E0F8000
7E3F0000
7DFC0000
FFE00000
FF800000
FC000000
FC000000
FC000000
FC002000
FC003800
FC007000
FC00E000
FC01C000
7E038000
7F9F0000
3FFE0000
0FF80000
01800000
ENDCHAR
STARTCHAR 0118
ENCODING 280
SWIDTH 741 0
DWIDTH 43 0
BBX 43 57 -2 -13
BITMAP
001FFFFFFFE0
001FFFFFFFE0
001FFFFFFFE0
0001FE001FE0
0000FE0007E0
0000FE0003E0
0000FC0001E0
0000FC0001E0
0000FC0000E0
0000FC0000E0
0000F80000E0
0001F8000060
0001F8000000
0001F8038000
0003F0030000
0003F0070000
0003F0070000
0003E00F0000
0007E03F0000
0007FFFE0000
0007FFFE0000
0007FFFE0000
000FC07E0000
000FC03E0000
000FC01C0000
001F801C0000
001F801C0000
001F801C0000
001F001C0000
003F00180000
003F00000000
003F00000000
003E00000380
007E00000380
007E00000700
007E00000700
00FC00000E00
00FC00001E00
00FC00003E00
01FE00007C00
03FF0001FC00
1FFFE03FFC00
7FFFFFFFF800
FFFFFFFFF800
0000F0000000
0003E0000000
000780000000
000F00000000
001E00000000
001E00000000
003E00000000
003C02000000
003E07800000
003F1F000000
003FFE000000
001FF8000000
0007E0000000
ENDCHAR
STARTCHAR 0119
ENCODING 281
SWIDTH 448 0
DWIDTH 26 0
BBX 27 44 -1 -13
BITMAP
00007E00
0001FF80
0007FFC0
000F87C0
003E07E0
007C07E0
00F807C0
01F807C0
01F00FC0
03E00F80
07E01F00
07C03E00
0FC07C00
0F80F800
1F83E000
1F8FC000
1F7F0000
3FF80000
3FE00000
3F000000
3F000000
3F000000
3F000800
3F000E00
3F001C00
3F003800
3F007000
1F80E000
1FE7C000
0FFF8000
03FE0000
03E00000
07800000
1E000000
3E000000
7C000000
78000000
F8000000
F8040000
F81E0000
FC3C0000
7FF80000
7FF00000
1F800000
ENDCHAR
STARTCHAR 011A
ENCODING 282
SWIDTH 741 0
DWIDTH 43 0
BBX 43 55 -2 0
BITMAP
000003C00780
000001F03E00
000000FCFC00
0000007FF000
0000007FE000
0000003FC000
000000000000
000000000000
000000000000
000000000000
000000000000
001FFFFFFFE0
001FFFFFFFE0
001FFFFFFFE0
0001FE001FE0
0000FE0007E0
0000FE0003E0
0000FC0001E0
0000FC0001E0
0000FC0000E0
0000FC0000E0
0000F80000E0
0001F8000060
0001F8000000
0001F8038000
0003F0030000
0003F0070000
0003F0070000
0003E00F0000
0007E03F0000
0007FFFE0000
0007FFFE0000
0007FFFE0000
000FC07E0000
000FC03E0000
000FC01C0000
001F801C0000
001F801C0000
001F801C0000
001F001C0000
003F00180000
003F00000000
003F00000000
003E00000380
007E00000380
007E00000700
007E00000700
00FC00000E00
00FC00001E00
00FC00003E00
01FE00007C00
03FF0001FC00
1FFFE03FFC00
7FFFFFFFF800
FFFFFFFFF800
ENDCHAR
STARTCHAR 011B
ENCODING 283
SWIDTH 448 0
DWIDTH 26 0
BBX 30 46 1 -1
BITMAP
001E001C
000F0078
0007C1E0
0003E7C0
0003FF80
0001FF00
0000FE00
0000F800
00000000
00000000
00000000
00000000
00000000
00000000
0001F800
0007FE00
001FFF00
003E1F00
00F81F80
01F01F80
03E01F00
07E01F00
07C03F00
0F803E00
1F807C00
1F00F800
3F01F000
3E03E000
7E0F8000
7E3F0000
7DFC0000
FFE00000
FF800000
FC000000
FC000000
FC000000
FC002000
FC003800
FC007000
FC00E000
FC01C000
7E038000
7F9F0000
3FFE0000
0FF80000
01800000
ENDCHAR
STARTCHAR 011C
ENCODING 284
SWIDTH 810 0
DWIDTH 47 0
BBX 42 56 4 -1
BITMAP
0000007F8000
000000FFC000
000001FFC000
000007E7E000
00000F81F000
00003C007800
000000000000
000000000000
000000000000
000000000000
000000200000
00001FFF81C0
00007FFFE1C0
0001FF87FBC0
0007F0007F80
000FC0003F80
003F80001F80
007F00000F80
00FE00000F80
01FC00000780
03F800000700
03F000000700
07E000000300
0FE000000000
0FC000000000
1FC000000000
1F8000000000
3F8000000000
3F8000000000
3F0000000000
7F0000000000
7F0000000000
7F0000000000
7F0000000000
FE0000000000
FE00007FFF80
FE00007FFF80
FE00007FFF80
FE00000FFC00
FE000007F800
FE000007F000
FE000003F000
7F000003F000
7F000003E000
7F000003E000
3F000007E000
3F800007C000
3F800007C000
1FC0000FC000
0FC0001FC000
07E0003F8000
03F800FF8000
01FF07FF8000
00FFFFF80000
001FFFC00000
0000C0000000
ENDCHAR
STARTCHAR 011D
ENCODING 285
SWIDTH 551 0
DWIDTH 32 0
BBX 38 60 -4 -15
BITMAP
000003F000
00000FF800
00001FF800
00003FFC00
0000783E00
0001E01E00
0007800700
0000000000
0000000000
0000000000
0000000000
0000000000
0000000000
0000000000
00003F00F0
0001FFC3F8
0007FFF7FC
000FE1FFFC
001F80FC7C
003F00FC3C
007F00FC00
007E007C00
00FE00FC00
00FC00FC00
00FC00FC00
00F800FC00
00F800FC00
00F801F800
00F801F800
00F803F000
00F803F000
007807E000
007C0FC000
003E1F8000
001FFE0000
003FF80000
00FF000000
03F0000000
07F0000000
07F0000000
07FC000000
07FFC00000
03FFFE0000
01FFFF8000
007FFFE000
000FFFF000
1F007FF800
7E0007F800
FC0001F800
F80000F800
F800007800
F800007800
F80000F800
F80000F000
FC0001E000
7E0007C000
3FC03F8000
0FFFFF0000
03FFF80000
0006000000
ENDCHAR
STARTCHAR 011E
ENCODING 286
SWIDTH 810 0
DWIDTH 47 0
BBX 42 56 4 -1
BITMAP
000007001800
00000780F800
000007FFF000
000003FFE000
000001FF8000
000000FE0000
000000000000
000000000000
000000000000
000000000000
000000200000
00001FFF81C0
00007FFFE1C0
0001FF87FBC0
0007F0007F80
000FC0003F80
003F80001F80
007F00000F80
00FE00000F80
01FC00000780
03F800000700
03F000000700
07E000000300
0FE000000000
0FC000000000
1FC000000000
1F8000000000
3F8000000000
3F8000000000
3F0000000000
7F0000000000
7F0000000000
7F0000000000
7F0000000000
FE0000000000
FE00007FFF80
FE00007FFF80
FE00007FFF80
FE00000FFC00
FE000007F800
FE000007F000
FE000003F000
7F000003F000
7F000003E000
7F000003E000
3F000007E000
3F800007C000
3F800007C000
1FC0000FC000
0FC0001FC000
07E0003F8000
03F800FF8000
01FF07FF8000
00FFFFF80000
001FFFC00000
0000C0000000
ENDCHAR
STARTCHAR 011F
ENCODING 287
SWIDTH 551 0
DWIDTH 32 0
BBX 38 59 -4 -15
BITMAP
0000600380
0000780F00
00007FFE00
00007FFC00
00003FF800
00000FC000
0000000000
0000000000
0000000000
0000000000
0000000000
0000000000
0000000000
00003F00F0
0001FFC3F8
0007FFF7FC
000FE1FFFC
001F80FC7C
003F00FC3C
007F00FC00
007E007C00
00FE00FC00
00FC00FC00
00FC00FC00
00F800FC00
00F800FC00
00F801F800
00F801F800
00F803F000
00F803F000
007807E000
007C0FC000
003E1F8000
001FFE0000
003FF80000
00FF000000
03F0000000
07F0000000
07F0000000
07FC000000
07FFC00000
03FFFE0000
01FFFF8000
007FFFE000
000FFFF000
1F007FF800
7E0007F800
FC0001F800
F80000F800
F800007800
F800007800
F80000F800
F80000F000
FC0001E000
7E0007C000
3FC03F8000
0FFFFF0000
03FFF80000
0006000000
ENDCHAR
STARTCHAR 0120
ENCODING 288
SWIDTH 810 0
DWIDTH 47 0
BBX 42 56 4 -1
BITMAP
0000001E0000
0000003F0000
0000003F0000
0000003F0000
0000003F0000
0000001E0000
000000000000
000000000000
000000000000
000000000000
000000200000
00001FFF81C0
00007FFFE1C0
0001FF87FBC0
0007F0007F80
000FC0003F80
003F80001F80
007F00000F80
00FE00000F80
01FC00000780
03F800000700
03F000000700
07E000000300
0FE000000000
0FC000000000
1FC000000000
1F8000000000
3F8000000000
3F8000000000
3F0000000000
7F0000000000
7F0000000000
7F0000000000
7F0000000000
FE0000000000
FE00007FFF80
FE00007FFF80
FE00007FFF80
FE00000FFC00
FE000007F800
FE000007F000
FE000003F000
7F000003F000
7F000003E000
7F000003E000
3F000007E000
3F800007C000
3F800007C000
1FC0000FC000
0FC0001FC000
07E0003F8000
03F800FF8000
01FF07FF8000
00FFFFF80000
001FFFC00000
0000C0000000
ENDCHAR
STARTCHAR 0121
ENCODING 289
SWIDTH 551 0
DWIDTH 32 0
BBX 38 62 -4 -15
BITMAP
000003C000
000007E000
00000FE000
00000FF000
00000FE000
000007E000
000003C000
0000000000
0000000000
0000000000
0000000000
0000000000
0000000000
0000000000
0000000000
0000000000
00003F00F0
0001FFC3F8
0007FFF7FC
000FE1FFFC
001F80FC7C
003F00FC3C
007F00FC00
007E007C00
00FE00FC00
00FC00FC00
00FC00FC00
00F800FC00
00F800FC00
00F801F800
00F801F800
00F803F000
00F803F000
007807E000
007C0FC000
003E1F8000
001FFE0000
003FF80000
00FF000000
03F0000000
07F0000000
07F0000000
07FC000000
07FFC00000
03FFFE0000
01FFFF8000
007FFFE000
000FFFF000
1F007FF800
7E0007F800
FC0001F800
F80000F800
F800007800
F800007800
F80000F800
F80000F000
FC0001E000
7E0007C000
3FC03F8000
0FFFFF0000
03FFF80000
0006000000
ENDCHAR
STARTCHAR 0122
ENCODING 290
SWIDTH 810 0
DWIDTH 47 0
BBX 42 60 4 -15
BITMAP
000000200000
00001FFF81C0
00007FFFE1C0
0001FF87FBC0
0007F0007F80
000FC0003F80
003F80001F80
007F00000F80
00FE00000F80
01FC00000780
03F800000700
03F000000700
07E000000300
0FE000000000
0FC000000000
1FC000000000
1F8000000000
3F8000000000
3F8000000000
3F0000000000
7F0000000000
7F0000000000
7F0000000000
7F0000000000
FE0000000000
FE00007FFF80
FE00007FFF80
FE00007FFF80
FE00000FFC00
FE000007F800
FE000007F000
FE000003F000
7F000003F000
7F000003E000
7F000003E000
3F000007E000
3F800007C000
3F800007C000
1FC0000FC000
0FC0001FC000
07E0003F8000
03F800FF8000
01FF07FF8000
00FFFFF80000
001FFFC00000
0000C0000000
000000000000
000000000000
0003C0000000
0007E0000000
000FE0000000
000FE0000000
0007E0000000
0007E0000000
0000E0000000
0000E0000000
0001C0000000
000780000000
000700000000
000400000000
ENDCHAR
STARTCHAR 0123
ENCODING 291
SWIDTH 551 0
DWIDTH 32 0
BBX 38 65 -4 -15
BITMAP
0000004000
000000E000
000001C000
0000038000
0000070000
0000070000
00000FC000
00000FE000
00000FE000
000007E000
000007E000
000003C000
0000000000
0000000000
0000000000
0000000000
0000000000
0000000000
0000000000
00003F00F0
0001FFC3F8
0007FFF7FC
000FE1FFFC
001F80FC7C
003F00FC3C
007F00FC00
007E007C00
00FE00FC00
00FC00FC00
00FC00FC00
00F800FC00
00F800FC00
00F801F800
00F801F800
00F803F000
00F803F000
007807E000
007C0FC000
003E1F8000
001FFE0000
003FF80000
00FF000000
03F0000000
07F0000000
07F0000000
07FC000000
07FFC00000
03FFFE0000
01FFFF8000
007FFFE000
000FFFF000
1F007FF800
7E0007F800
FC0001F800
F80000F800
F800007800
F800007800
F80000F800
F80000F000
FC0001E000
7E0007C000
3FC03F8000
0FFFFF0000
03FFF80000
0006000000
ENDCHAR
STARTCHAR 0124
ENCODING 292
SWIDTH 913 0
DWIDTH 53 0
BBX 59 55 -2 0
BITMAP
000000003FC00000
000000007FE00000
00000000FFE00000
00000003F3F00000
00000007C0F80000
0000001E003C0000
0000000000000000
0000000000000000
0000000000000000
0000000000000000
0000000000000000
001FFFFC00FFFFE0
001FFFFC00FFFFC0
001FFFFC01FFFFC0
0000FF80000FFC00
0000FF000007F800
0000FE000007F000
0000FE000007E000
0000FC000007E000
0000FC00000FE000
0000FC00000FC000
0001F800000FC000
0001F800000FC000
0001F800001F8000
0001F800001F8000
0003F000001F8000
0003F000001F8000
0003F000003F0000
0003F000003F0000
0007E000003F0000
0007E000007E0000
0007FFFFFFFE0000
000FFFFFFFFE0000
000FFFFFFFFE0000
000FC00000FC0000
000FC00000FC0000
001F800000FC0000
001F800001FC0000
001F800001F80000
001F000001F80000
003F000001F80000
003F000003F00000
003F000003F00000
007E000003F00000
007E000003F00000
007E000007E00000
007E000007E00000
00FC000007E00000
00FC00000FE00000
01FC00000FE00000
01FE00001FE00000
07FE00003FF00000
7FFFF007FFFF0000
7FFFE007FFFF0000
FFFFE007FFFF0000
ENDCHAR
STARTCHAR 0125
ENCODING 293
SWIDTH 568 0
DWIDTH 33 0
BBX 34 49 0 -1
BITMAP
01FFE00000
01FFE00000
01FFC00000
001FC07E00
000FC0FE00
000F81FF00
000F83FF00
001F87CF80
001F8F0780
001F1C03C0
001F3001C0
003F000000
003E000000
003E000000
007E000000
007E000000
007C000000
007C1F8000
00FC7FC000
00F9FFE000
00FBC3E000
01FF83F000
01F703F000
01FE03F000
01FC03F000
03FC03E000
03F803E000
03F007E000
07F007E000
07E007E000
07E00FC000
0FE00FC000
0FC00FC000
0FC01F8000
0F801F8000
1F801F8000
1F003F0000
1F003F0000
3F003E0000
3E003E0400
3E007E0E00
7E007C0C00
7C007C1C00
7C007C7800
7C007FF000
F8007FE000
F8007F8000
F8007E0000
0000100000
ENDCHAR
STARTCHAR 0126
ENCODING 294
SWIDTH 913 0
DWIDTH 53 0
BBX 59 44 -2 0
BITMAP
001FFFFC00FFFFE0
001FFFFC00FFFFE0
001FFFFC01FFFFC0
0000FFC0000FFC00
0000FF000007F800
00007E000007F000
0000FE000007E000
0000FC000007E000
0000FC00000FE000
0000FC00000FC000
007FFFFFFFFFFF80
007FFFFFFFFFFF00
007FFFFFFFFFFF00
0001F800001F8000
0003F000001F8000
0003F000001F8000
0003F000003F0000
0003F000003F0000
0007E000003F0000
0007E000003E0000
0007FFFFFFFE0000
000FFFFFFFFE0000
000FFFFFFFFE0000
000FC00000FC0000
000FC00000FC0000
001F800000FC0000
001F800000FC0000
001F800001F80000
001F800001F80000
003F000001F80000
003F000001F80000
003F000003F00000
007F000003F00000
007E000003F00000
007E000007E00000
007E000007E00000
00FE000007E00000
00FC00000FE00000
01FC00000FE00000
01FE00001FE00000
07FF00003FF00000
7FFFF003FFFF0000
7FFFE007FFFF0000
FFFFE007FFFF0000
ENDCHAR
STARTCHAR 0127
ENCODING 295
SWIDTH 568 0
DWIDTH 33 0
BBX 31 49 0 -1
BITMAP
01FFE000
01FFE000
01FFC000
001FC000
000FC000
000F8000
000F8000
001F8000
001F8000
03FFFE00
07FFFE00
07FFFE00
003E0000
003E0000
007E0000
007E0000
007C0000
007C1F80
00FC7FC0
00F9FFE0
00FBC3E0
01FF83F0
01F703F0
01FE03F0
03FC03F0
03FC03E0
03F803E0
03F007E0
07F007E0
07E007E0
07E00FC0
0FE00FC0
0FC00FC0
0FC01F80
0F801F80
1F801F80
1F003F00
1F003F00
3F003E00
3E003E04
3E007E0E
7E007C0C
7C007C1C
7C007C78
7C007FF0
F8007FE0
F8007F80
F8007E00
00001000
ENDCHAR
STARTCHAR 0128
ENCODING 296
SWIDTH 413 0
DWIDTH 24 0
BBX 33 55 -2 0
BITMAP
00007C0180
0001FF0300
0003FFC300
0003FFFF00
00071FFE00
000603FC00
000600F800
0000000000
0000000000
0000000000
0000000000
001FFFFC00
001FFFFC00
001FFFFC00
0000FF8000
0000FF0000
0000FE0000
0000FE0000
0000FC0000
0000FC0000
0000FC0000
0001F80000
0001F80000
0001F80000
0001F80000
0003F00000
0003F00000
0003F00000
0003F00000
0007E00000
0007E00000
0007E00000
000FC00000
000FC00000
000FC00000
000FC00000
001F800000
001F800000
001F800000
001F800000
003F000000
003F000000
003F000000
007E000000
007E000000
007E000000
007E000000
00FC000000
00FC000000
01FC000000
01FE000000
07FE000000
7FFFF00000
7FFFE00000
FFFFE00000
ENDCHAR
STARTCHAR 0129
ENCODING 297
SWIDTH 344 0
DWIDTH 20 0
BBX 23 45 2 -1
BITMAP
01F806
03FF0E
07FFFC
0FFFFC
0C1FF8
1803F0
000000
000000
000000
000000
000000
000000
000000
00F800
01F800
07FC00
0FFC00
1FFC00
39F800
71F800
E1F800
C1F800
C3F000
03F000
03F000
07E000
07E000
07C000
0FC000
0FC000
0F8000
1F8000
1F8000
1F0000
3F0200
3E0700
3E0E00
7E0C00
7E1C00
7E7800
7FF000
7FE000
7FC000
3F0000
080000
ENDCHAR
STARTCHAR 012A
ENCODING 298
SWIDTH 413 0
DWIDTH 24 0
BBX 31 53 -2 0
BITMAP
0001FFFE
0001FFFE
0001FFFC
00000000
00000000
00000000
00000000
00000000
00000000
001FFFFC
001FFFFC
001FFFFC
0000FF80
0000FF00
0000FE00
0000FE00
0000FC00
0000FC00
0000FC00
0001F800
0001F800
0001F800
0001F800
0003F000
0003F000
0003F000
0003F000
0007E000
0007E000
0007E000
000FC000
000FC000
000FC000
000FC000
001F8000
001F8000
001F8000
001F8000
003F0000
003F0000
003F0000
007E0000
007E0000
007E0000
007E0000
00FC0000
00FC0000
01FC0000
01FE0000
07FE0000
7FFFF000
7FFFE000
FFFFE000
ENDCHAR
STARTCHAR 012B
ENCODING 299
SWIDTH 344 0
DWIDTH 20 0
BBX 21 44 2 -1
BITMAP
03FFF8
07FFF8
07FFF8
000000
000000
000000
000000
000000
000000
000000
000000
000000
00F800
01F800
07FC00
0FFC00
1FFC00
39F800
71F800
E1F800
C1F800
C3F000
03F000
03F000
07E000
07E000
07C000
0FC000
0FC000
0F8000
1F8000
1F8000
1F0000
3F0200
3E0700
3E0E00
7E0C00
7E1C00
7E7800
7FF000
7FE000
7FC000
3F0000
080000
ENDCHAR
STARTCHAR 012C
ENCODING 300
SWIDTH 413 0
DWIDTH 24 0
BBX 32 55 -2 0
BITMAP
0000C007
0000F01E
0000FFFE
00007FFC
00007FF0
00001FC0
00000000
00000000
00000000
00000000
00000000
001FFFFC
001FFFFC
001FFFFC
0000FFC0
0000FF00
0000FE00
0000FE00
0000FE00
0000FC00
0000FC00
0000FC00
0001F800
0001F800
0001F800
0003F000
0003F000
0003F000
0003F000
0007E000
0007E000
0007E000
0007E000
000FC000
000FC000
000FC000
001F8000
001F8000
001F8000
001F8000
003F0000
003F0000
003F0000
003F0000
007E0000
007E0000
007E0000
00FE0000
00FC0000
00FC0000
01FC0000
03FE0000
1FFF9000
7FFFE000
FFFFE000
ENDCHAR
STARTCHAR 012D
ENCODING 301
SWIDTH 344 0
DWIDTH 20 0
BBX 22 45 2 -1
BITMAP
03000C
03801C
03C078
03FFF0
01FFE0
00FFC0
007E00
000000
000000
000000
000000
000000
000000
007800
01F800
07FC00
0FFC00
1FFC00
3FF800
39F800
71F800
E1F800
C1F000
43F000
03F000
03E000
07E000
07C000
07C000
0FC000
0F8000
1F8000
1F8000
1F0000
3F0000
3E0700
3E0600
7E0E00
7E1C00
7E3800
7FF000
7FE000
7FC000
3F0000
080000
ENDCHAR
STARTCHAR 012E
ENCODING 302
SWIDTH 413 0
DWIDTH 24 0
BBX 30 57 -2 -13
BITMAP
001FFFFC
001FFFFC
001FFFFC
0000FF80
0000FF00
0000FE00
0000FE00
0000FC00
0000FC00
0000FC00
0001F800
0001F800
0001F800
0001F800
0003F000
0003F000
0003F000
0003F000
0007E000
0007E000
0007E000
000FC000
000FC000
000FC000
000FC000
001F8000
001F8000
001F8000
001F8000
003F0000
003F0000
003F0000
007E0000
007E0000
007E0000
007E0000
00FC0000
00FC0000
01FC0000
01FE0000
07FE0000
7FFFF000
7FFFE000
FFFFE000
03C00000
0F000000
1E000000
3C000000
78000000
F8000000
F0000000
F0080000
F01C0000
F87C0000
FFF00000
7FE00000
3F800000
ENDCHAR
STARTCHAR 012F
ENCODING 303
SWIDTH 344 0
DWIDTH 20 0
BBX 23 61 -3 -13
BITMAP
000078
0000FC
0000FE
0000FE
0000FE
0000FC
000078
000000
000000
000000
000000
000000
000000
000000
000000
000000
000000
0007C0
000FC0
003FE0
007FE0
00FFE0
01CFC0
038FC0
070FC0
060FC0
061F80
001F80
001F00
003F00
003F00
003E00
007E00
007E00
007C00
00FC00
00FC00
00F800
01F810
01F038
01F070
03F060
03F0E0
03F1C0
03FF80
03FF00
03FE00
01F800
03C000
0F0000
1E0000
3C0000
780000
F80000
F00000
F00800
F01C00
F87C00
FFF000
7FE000
3F8000
ENDCHAR
STARTCHAR 0130
ENCODING 304
SWIDTH 413 0
DWIDTH 24 0
BBX 30 55 -2 0
BITMAP
00000380
000007C0
00000FC0
00000FE0
000007C0
00000380
00000000
00000000
00000000
00000000
00000000
001FFFFC
001FFFFC
001FFFFC
0000FF80
0000FF00
0000FE00
0000FE00
0000FC00
0000FC00
0000FC00
0001F800
0001F800
0001F800
0001F800
0003F000
0003F000
0003F000
0003F000
0007E000
0007E000
0007E000
000FC000
000FC000
000FC000
000FC000
001F8000
001F8000
001F8000
001F8000
003F0000
003F0000
003F0000
007E0000
007E0000
007E0000
007E0000
00FC0000
00FC0000
01FC0000
01FE0000
07FE0000
7FFFF000
7FFFE000
FFFFE000
ENDCHAR
STARTCHAR 0131
ENCODING 305
SWIDTH 344 0
DWIDTH 20 0
BBX 16 32 2 -1
BITMAP
00F8
01F8
07FC
0FFC
1FFC
39F8
71F8
E1F8
C1F8
C3F0
03F0
03F0
07E0
07E0
07C0
0FC0
0FC0
0F80
1F80
1F80
1F00
3F02
3E07
3E0E
7E0C
7E1C
7E78
7FF0
7FE0
7FC0
3F00
0800
ENDCHAR
STARTCHAR 0132
ENCODING 306
SWIDTH 965 0
DWIDTH 56 0
BBX 63 45 -2 -1
BITMAP
001FFFFC000FFFFE
001FFFFC001FFFFC
001FFFFC001FFFFC
0000FFC00000FFC0
0000FF0000007F80
0000FE0000007F00
0000FE0000007F00
0000FE0000007E00
0000FC0000007E00
0000FC0000007E00
0000FC000000FC00
0001F8000000FC00
0001F8000000FC00
0001F8000000FC00
0003F0000001F800
0003F0000001F800
0003F0000001F800
0003F0000003F000
0007E0000003F000
0007E0000003F000
0007E0000003F000
0007E0000007E000
000FC0000007E000
000FC0000007E000
000FC0000007E000
001F8000000FC000
001F8000000FC000
001F8000000FC000
001F8000000F8000
003F0000001F8000
003F0000001F8000
003F000F001F8000
003F001F803F0000
007E003FC03F0000
007E007FC03F0000
007E007FC07E0000
00FE007F807E0000
00FC007F00FC0000
00FC007E00FC0000
01FC007E01F80000
03FE003E03F00000
1FFF903F8FE00000
7FFFE01FFFC00000
FFFFE007FF000000
0000000060000000
ENDCHAR
STARTCHAR 0133
ENCODING 307
SWIDTH 637 0
DWIDTH 37 0
BBX 35 63 2 -15
BITMAP
000F0003C0
001F8007E0
001FC00FE0
001FC00FE0
001FC00FE0
001F8007E0
000F0003C0
0000000000
0000000000
0000000000
0000000000
0000000000
0000000000
0000000000
0000000000
0000000000
0000000000
00F8000F00
01F8003F80
07FC00FF80
0FFC01FF80
1FFC03FF80
39F8073F80
71F80E3F00
E1F80C3F00
C1F8183F00
C3F0083F00
03F0007E00
03E0007E00
07E0007E00
07E0007E00
07C000FC00
0FC000FC00
0FC000FC00
0F8000F800
1F8001F800
1F8001F800
1F0001F800
3F0201F000
3E0703F000
3E0E03F000
7E0C03F000
7E1C03E000
7E7807E000
7FF007E000
7FE007C000
7FC007C000
3F000FC000
08000FC000
00000F8000
00000F8000
00001F8000
00001F0000
00001F0000
00001E0000
00E03E0000
01F03C0000
01F8780000
01F8700000
01FFE00000
00FFC00000
007F000000
0008000000
ENDCHAR
STARTCHAR 0134
ENCODING 308
SWIDTH 551 0
DWIDTH 32 0
BBX 38 56 -1 -1
BITMAP
0000001FC0
0000007FE0
000000FFF0
000001F9F0
000007C078
00001E001C
0000000000
0000000000
0000000000
0000000000
0000000000
00003FFFF8
00003FFFF8
00003FFFF8
000001FF80
000000FF00
000000FE00
000000FC00
000000FC00
000001FC00
000001F800
000001F800
000001F800
000003F000
000003F000
000003F000
000003F000
000007E000
000007E000
000007E000
000007E000
00000FC000
00000FC000
00000FC000
00001F8000
00001F8000
00001F8000
00001F8000
00003F0000
00003F0000
00003F0000
00003F0000
1E007E0000
7F007E0000
7F007E0000
FF00FC0000
FF00FC0000
FF01FC0000
FC01F80000
F803F80000
F807F00000
FC0FE00000
7E3FC00000
3FFF000000
1FFE000000
0080000000
ENDCHAR
STARTCHAR 0135
ENCODING 309
SWIDTH 293 0
DWIDTH 17 0
BBX 34 60 -11 -15
BITMAP
000000FC00
000003FC00
000007FE00
00000FFF00
00003E0F80
0000780780
0001E001C0
0000000000
0000000000
0000000000
0000000000
0000000000
0000000000
0000000000
0000078000
00001FC000
00007FC000
0000FFC000
0001FFC000
00039FC000
00071F8000
00061F8000
000C1F8000
00041F8000
00003F0000
00003F0000
00003F0000
00003F0000
00007E0000
00007E0000
00007E0000
00007E0000
0000FC0000
0000FC0000
0000FC0000
0000F80000
0001F80000
0001F80000
0001F80000
0001F00000
0003F00000
0003F00000
0003E00000
0003E00000
0007E00000
0007E00000
0007C00000
0007C00000
000FC00000
000F800000
000F800000
000F000000
701F000000
F81E000000
FC3C000000
FC38000000
FFF0000000
7FE0000000
3F80000000
0400000000
ENDCHAR
STARTCHAR 0136
ENCODING 310
SWIDTH 827 0
DWIDTH 48 0
BBX 50 59 -1 -15
BITMAP
003FFFF87FFFC0
003FFFF87FFFC0
003FFFF87FFFC0
0001FF000FFE00
0001FE0007F800
0001FC0007E000
0001FC000FC000
0001F8001F8000
0001F8003E0000
0001F8007C0000
0003F001F00000
0003F003E00000
0003F00F800000
0003F01F000000
0007E07C000000
0007E0F8000000
0007E3E0000000
0007E7C0000000
000FCF00000000
000FFF80000000
000FFF80000000
001FFFC0000000
001FDFE0000000
001F8FF0000000
001F87F8000000
003F03F8000000
003F01FC000000
003F01FE000000
007E00FF000000
007E007F800000
007E003F800000
007E003FC00000
00FC001FE00000
00FC000FF00000
00FC0007F80000
00FC0003F80000
01F80003FC0000
01F80001FE0000
03F80001FF0000
03FC0000FF8000
0FFC0001FFC000
FFFFE01FFFFC00
FFFFE01FFFF800
FFFFE01FFFF800
00000000000000
00000000000000
00000000000000
00000F00000000
00001F80000000
00003F80000000
00003F80000000
00001F80000000
00001F80000000
00000380000000
00000380000000
00000700000000
00001E00000000
00001C00000000
00001000000000
ENDCHAR
STARTCHAR 0137
ENCODING 311
SWIDTH 517 0
DWIDTH 30 0
BBX 27 63 0 -15
BITMAP
01FFC000
03FFC000
001FC000
001F8000
001F8000
001F8000
001F0000
001F0000
001F0000
003F0000
003E0000
003E0000
007E0000
007E0000
007C0000
007C0000
00FC0000
00FC3F00
00F8FF80
00F9FFC0
01FBFFE0
01F78FE0
01FE07E0
01FC07E0
03F807C0
03F80FC0
03F00F80
07F01F00
07E03E00
07E0F800
07C1F000
0FC7C000
0FFF0000
0FFE0000
0FFF0000
1FBF0000
1F9F0000
1F1F8000
3F0F8000
3F0FC040
3E0FC060
3E07E0C0
7E07E1C0
7E03FF80
7C03FF00
7C01FF00
FC01FE00
F800F800
00002000
00000000
00000000
01E00000
03F00000
03F80000
03F80000
03F80000
01F80000
00380000
00700000
00F00000
01E00000
03800000
01000000
ENDCHAR
STARTCHAR 0138
ENCODING 312
SWIDTH 534 0
DWIDTH 31 0
BBX 27 32 2 -1
BITMAP
3FF83F00
7FF8FF80
03F9FFC0
01F3FFC0
01F78FC0
03FE07C0
03FC07C0
03F80FC0
03F00F80
07F01F80
07E03F00
07E07C00
07C0F800
0FC3F000
0F8FC000
0FBF0000
0FFE0000
1FFE0000
1FBF0000
1F3F0000
3F1F8000
3F1F8000
3E0F8040
3E0FC0E0
7E07C1C0
7E07E380
7C07FF80
7C03FF00
FC03FE00
F801FC00
F800F800
00002000
ENDCHAR
STARTCHAR 0139
ENCODING 313
SWIDTH 706 0
DWIDTH 41 0
BBX 39 55 -1 0
BITMAP
0000003C00
000001FC00
000007FC00
00001FF000
00007F8000
0003F00000
0000000000
0000000000
0000000000
0000000000
0000000000
003FFFF800
003FFFF800
003FFFF800
0001FF0000
0001FE0000
0001FC0000
0001FC0000
0001F80000
0001F80000
0001F80000
0003F00000
0003F00000
0003F00000
0003F00000
0007E00000
0007E00000
0007E00000
0007C00000
000FC00000
000FC00000
000FC00000
001F800000
001F800000
001F800000
001F800000
003F000000
003F000000
003F000000
003E000000
007E000000
007E000000
007E00000E
007C00001C
00FC00001C
00FC00003C
00FC000038
01F8000078
01F80000F0
01FC0001F0
03FC0007F0
07FE001FE0
FFFFFFFFE0
FFFFFFFFE0
FFFFFFFFC0
ENDCHAR
STARTCHAR 013A
ENCODING 314
SWIDTH 310 0
DWIDTH 18 0
BBX 25 56 1 -1
BITMAP
00000F80
00003F80
0000FF00
0003FE00
000FF000
007E0000
00000000
03FF8000
03FF8000
007F0000
003F0000
003F0000
003F0000
003E0000
003E0000
007E0000
007E0000
007C0000
007C0000
00FC0000
00F80000
00F80000
01F80000
01F80000
01F00000
01F00000
03F00000
03F00000
03E00000
03E00000
07E00000
07C00000
07C00000
07C00000
0FC00000
0F800000
0F800000
1F800000
1F800000
1F000000
1F000000
3F000000
3E000000
3E000000
3E040000
7E070000
7C060000
7C0E0000
7C1C0000
7C380000
FC700000
FFE00000
FFC00000
7F800000
7F000000
08000000
ENDCHAR
STARTCHAR 013B
ENCODING 315
SWIDTH 706 0
DWIDTH 41 0
BBX 39 59 -1 -15
BITMAP
003FFFF800
003FFFF800
003FFFF800
0001FF0000
0001FE0000
0001FC0000
0001FC0000
0001F80000
0001F80000
0001F80000
0003F00000
0003F00000
0003F00000
0003F00000
0007E00000
0007E00000
0007E00000
0007C00000
000FC00000
000FC00000
000FC00000
001F800000
001F800000
001F800000
001F800000
003F000000
003F000000
003F000000
003E000000
007E000000
007E000000
007E00000E
007C00001C
00FC00001C
00FC00003C
00FC000038
01F8000078
01F80000F0
01FC0001F0
03FC0007F0
07FE001FE0
FFFFFFFFE0
FFFFFFFFE0
FFFFFFFFC0
0000000000
0000000000
0000000000
0001E00000
0003F00000
0003F00000
0003F80000
0003F80000
0001F80000
0000300000
0000700000
0000E00000
0001C00000
0003800000
0001000000
ENDCHAR
STARTCHAR 013C
ENCODING 316
SWIDTH 310 0
DWIDTH 18 0
BBX 18 63 0 -15
BITMAP
01FFC0
01FFC0
003F80
001F80
001F80
001F80
001F00
001F00
003F00
003F00
003E00
003E00
007E00
007C00
007C00
00FC00
00FC00
00F800
00F800
01F800
01F800
01F000
01F000
03F000
03E000
03E000
03E000
07E000
07C000
07C000
0FC000
0FC000
0F8000
0F8000
1F8000
1F0000
1F0000
1F0200
3F0380
3E0300
3E0700
3E0E00
3E1C00
7E3800
7FF000
7FE000
3FC000
3F8000
040000
000000
000000
780000
FC0000
FE0000
FE0000
FE0000
7E0000
0E0000
1C0000
380000
700000
E00000
400000
ENDCHAR
STARTCHAR 013D
ENCODING 317
SWIDTH 706 0
DWIDTH 41 0
BBX 39 55 -1 0
BITMAP
000F001E00
0007C0F800
0003F3F000
0001FFC000
0001FF8000
0000FF0000
0000000000
0000000000
0000000000
0000000000
0000000000
003FFFF800
003FFFF800
003FFFF800
0001FF0000
0001FE0000
0001FC0000
0001FC0000
0001F80000
0001F80000
0001F80000
0003F00000
0003F00000
0003F00000
0003F00000
0007E00000
0007E00000
0007E00000
0007C00000
000FC00000
000FC00000
000FC00000
001F800000
001F800000
001F800000
001F800000
003F000000
003F000000
003F000000
003E000000
007E000000
007E000000
007E00000E
007C00001C
00FC00001C
00FC00003C
00FC000038
01F8000078
01F80000F0
01FC0001F0
03FC0007F0
07FE001FE0
FFFFFFFFE0
FFFFFFFFE0
FFFFFFFFC0
ENDCHAR
STARTCHAR 013E
ENCODING 318
SWIDTH 310 0
DWIDTH 18 0
BBX 27 49 1 -1
BITMAP
03FF8000
03FF8000
007F0000
003F0100
003F07C0
003F0FC0
003E0FE0
003E0FC0
007E0FC0
007E05C0
007C0380
007C0380
00FC0E00
00F81C00
00F83800
01F80000
01F80000
01F00000
01F00000
03F00000
03F00000
03E00000
03E00000
07E00000
07C00000
07C00000
07C00000
0FC00000
0F800000
0F800000
1F800000
1F800000
1F000000
1F000000
3F000000
3E000000
3E000000
3E000000
7E070000
7C060000
7C0E0000
7C1C0000
7C380000
FC700000
FFE00000
FFC00000
7F800000
7F000000
08000000
ENDCHAR
STARTCHAR 013F
ENCODING 319
SWIDTH 706 0
DWIDTH 41 0
BBX 39 44 -1 0
BITMAP
003FFFF800
003FFFF800
003FFFF800
0001FF0000
0001FE0000
0001FC0000
0001FC0000
0001F80000
0001F80000
0001F80000
0003F00000
0003F00000
0003F00000
0003F00000
0007E00000
0007E00000
0007E00000
0007C00000
000FC01E00
000FC03F00
000FC07F00
001F807F00
001F807F00
001F803F00
001F801E00
003F000000
003F000000
003F000000
003E000000
007E000000
007E000000
007E00000E
007C00000C
00FC00001C
00FC00003C
00FC000038
01F8000078
01F80000F0
01FC0001F0
03FC0007F0
07FE001FE0
FFFFFFFFE0
FFFFFFFFE0
FFFFFFFFC0
ENDCHAR
STARTCHAR 0140
ENCODING 320
SWIDTH 379 0
DWIDTH 22 0
BBX 23 49 1 -1
BITMAP
03FF80
03FF80
007F00
003F00
003F00
003F00
003E00
003E00
007E00
007E00
007C00
007C00
00FC00
00F800
00F800
01F800
01F800
01F000
01F000
03F000
03F078
03E0FC
03E0FE
07E0FE
07C0FE
07C0FC
07C078
0FC000
0F8000
0F8000
1F8000
1F8000
1F0000
1F0000
3F0000
3E0000
3E0000
3E0000
7E0700
7C0600
7C0E00
7C1C00
7C3800
FC7000
FFE000
FFC000
7F8000
7F0000
080000
ENDCHAR
STARTCHAR 0141
ENCODING 321
SWIDTH 706 0
DWIDTH 41 0
BBX 39 44 -1 0
BITMAP
003FFFF800
003FFFF800
003FFFF800
0001FF0000
0001FE0000
0001FC0000
0001FC0000
0001F80000
0001F80000
0001F80000
0003F00000
0003F00000
0003F00000
0003F00000
0007E08000
0007E30000
0007EF0000
0007FF0000
000FFC0000
000FF00000
000FC00000
003F800000
00FF800000
01FF800000
03DF800000
033F000000
023F000000
003F000000
003F000000
007E000000
007E000000
007E00000E
007C00000C
00FC00001C
00FC00003C
00FC000038
00FC000078
01FC0000F8
01FC0001F0
03FC0007F0
07FE001FE0
FFFFFFFFE0
FFFFFFFFE0
FFFFFFFFC0
ENDCHAR
STARTCHAR 0142
ENCODING 322
SWIDTH 327 0
DWIDTH 19 0
BBX 18 49 2 -1
BITMAP
03FF80
03FF80
007F00
003F00
003F00
003F00
003E00
003E00
007E00
007C00
007C00
00FC00
00FC00
00F800
00F800
01F840
01F980
01F780
01FF80
03FE00
03F800
07E000
1FE000
7FE000
FFC000
F7C000
CFC000
8FC000
0F8000
0F8000
1F8000
1F0000
1F0000
1F0000
3F0000
3E0000
3E0000
7E0400
7C0600
7C0E00
7C0C00
7C1C00
FC3800
FC7000
FFE000
FFC000
FF8000
7E0000
080000
ENDCHAR
STARTCHAR 0143
ENCODING 323
SWIDTH 844 0
DWIDTH 49 0
BBX 54 55 -1 0
BITMAP
0000000003C000
000000000FE000
000000003FC000
00000000FF8000
00000003F80000
0000001F800000
00000000000000
00000000000000
00000000000000
00000000000000
00000000000000
00FFFC0001FFFC
00FFFC0003FFF8
01FFFE0003FFF8
000FFE00007FC0
0003FF00003F80
0001FF00001F00
0000FF80001F00
0000FF80001E00
0000FFC0001E00
0000FFC0001C00
0000EFC0001C00
0001EFE0003C00
0001E7E0003C00
0001C7F0003800
0003C7F0007800
0003C3F8007800
000383F8007000
000381FC007000
000781FC00F000
000780FC00F000
000700FE00E000
0007007E00E000
000F007F01E000
000F007F01E000
000E003F81C000
001E003F81C000
001E001F83C000
001C001FC38000
001C000FC38000
003C000FE78000
003C0007E78000
00380007F70000
00380003F70000
00780003FF0000
00780003FF0000
00700001FE0000
00F00001FE0000
00F00000FE0000
01F80000FC0000
03F800007C0000
0FFC00007C0000
7FFFC0003C0000
7FFF8000380000
FFFF8000380000
ENDCHAR
STARTCHAR 0144
ENCODING 324
SWIDTH 620 0
DWIDTH 36 0
BBX 33 47 1 -1
BITMAP
0000007800
000000FC00
000001FC00
000003F800
000007E000
00001F8000
00003E0000
0000780000
0000E00000
0000000000
0000000000
0000000000
0000000000
0000000000
0000000000
00F003F000
03F80FFC00
07FC1FFC00
0E7C3C7E00
1C7C707E00
187CE07E00
307DC07E00
307B807C00
60FB00FC00
60FF00FC00
C0FE00FC00
C1FC01F800
01FC01F800
01F801F800
03F803F000
03F003F000
03F003F000
07E007E000
07E007E000
07E007E000
07C00FC000
0FC00FC000
0F800FC180
0F801F8380
1F801F8700
1F001F8E00
1F001F9C00
3F001FF800
3E001FF000
3E001FE000
7C000F8000
0000040000
ENDCHAR
STARTCHAR 0145
ENCODING 325
SWIDTH 844 0
DWIDTH 49 0
BBX 54 59 -1 -15
BITMAP
00FFFC0001FFFC
00FFFC0003FFF8
01FFFE0003FFF8
000FFE00007FC0
0003FF00003F80
0001FF00001F00
0000FF80001F00
0000FF80001E00
0000FFC0001E00
0000FFC0001C00
0000EFC0001C00
0001EFE0003C00
0001E7E0003C00
0001C7F0003800
0003C7F0007800
0003C3F8007800
000383F8007000
000381FC007000
000781FC00F000
000780FC00F000
000700FE00E000
0007007E00E000
000F007F01E000
000F007F01E000
000E003F81C000
001E003F81C000
001E001F83C000
001C001FC38000
001C000FC38000
003C000FE78000
003C0007E78000
00380007F70000
00380003F70000
00780003FF0000
00780003FF0000
00700001FE0000
00F00001FE0000
00F00000FE0000
01F80000FC0000
03F800007C0000
0FFC00007C0000
7FFFC0003C0000
7FFF8000380000
FFFF8000380000
00000000000000
00000000000000
00000000000000
00000780000000
00000FC0000000
00000FE0000000
00000FE0000000
00000FE0000000
000007E0000000
000000E0000000
000001C0000000
00000380000000
00000700000000
00000E00000000
00000400000000
ENDCHAR
STARTCHAR 0146
ENCODING 326
SWIDTH 620 0
DWIDTH 36 0
BBX 33 46 1 -15
BITMAP
00F003F000
03F80FFC00
07FC1FFC00
0E7C3C7E00
1C7C707E00
187CE07E00
307DC07E00
307B807C00
60FB00FC00
60FF00FC00
C0FE00FC00
C1FC01F800
01FC01F800
01F801F800
03F803F000
03F003F000
03F003F000
07E007E000
07E007E000
07E007E000
07C00FC000
0FC00FC000
0F800FC180
0F801F8380
1F801F8700
1F001F8E00
1F001F9C00
3F001FF800
3E001FF000
3E001FE000
7C000F8000
0000040000
0000000000
0000000000
001C000000
003E000000
007F000000
007F000000
007F000000
003F000000
0007000000
0006000000
000E000000
003C000000
0070000000
0020000000
ENDCHAR
STARTCHAR 0147
ENCODING 327
SWIDTH 844 0
DWIDTH 49 0
BBX 54 55 -1 0
BITMAP
0000007000F000
0000003C07C000
0000001F1F0000
0000001FFE0000
0000000FFC0000
00000007F00000
00000000000000
00000000000000
00000000000000
00000000000000
00000000000000
00FFFC0001FFFC
00FFFC0003FFF8
01FFFE0003FFF8
000FFE00007FC0
0003FF00003F80
0001FF00001F00
0000FF80001F00
0000FF80001E00
0000FFC0001E00
0000FFC0001C00
0000EFC0001C00
0001EFE0003C00
0001E7E0003C00
0001C7F0003800
0003C7F0007800
0003C3F8007800
000383F8007000
000381FC007000
000781FC00F000
000780FC00F000
000700FE00E000
0007007E00E000
000F007F01E000
000F007F01E000
000E003F81C000
001E003F81C000
001E001F83C000
001C001FC38000
001C000FC38000
003C000FE78000
003C0007E78000
00380007F70000
00380003F70000
00780003FF0000
00780003FF0000
00700001FE0000
00F00001FE0000
00F00000FE0000
01F80000FC0000
03F800007C0000
0FFC00007C0000
7FFFC0003C0000
7FFF8000380000
FFFF8000380000
ENDCHAR
STARTCHAR 0148
ENCODING 328
SWIDTH 620 0
DWIDTH 36 0
BBX 33 46 1 -1
BITMAP
0007000F00
0003C03C00
0003E0F800
0001F3F000
0000FFC000
0000FF8000
00007F0000
00003E0000
0000000000
0000000000
0000000000
0000000000
0000000000
0000000000
00F003F000
03F80FFC00
07FC1FFC00
0E7C3C7E00
1C7C707E00
187CE07E00
307DC07E00
307B807C00
60FB00FC00
60FF00FC00
C0FE00FC00
C1FC01F800
01FC01F800
01F801F800
03F803F000
03F003F000
03F003F000
07E007E000
07E007E000
07E007E000
07C00FC000
0FC00FC000
0F800FC180
0F801F8380
1F801F8700
1F001F8E00
1F001F9C00
3F001FF800
3E001FF000
3E001FE000
7C000F8000
0000040000
ENDCHAR
STARTCHAR 0149
ENCODING 329
SWIDTH 793 0
DWIDTH 46 0
BBX 36 49 7 -1
BITMAP
1C00000000
3E00000000
7E00000000
7C00000000
7C00000000
7C00000000
7800000000
7800000000
7000000000
7000000000
6000000000
E000000000
C000000000
0000000000
0000000000
0000000000
0000000000
003E007E00
00FE03FF00
01FF07FF80
039F0F1F80
071F1C1F80
061F381F80
0E1F701F80
0C1F601F80
183EE01F00
183FC03F00
383F803F00
303F803E00
007F007E00
007E007E00
007E007C00
00FC00FC00
00FC00FC00
00FC00F800
01F801F800
01F801F800
01F003F000
03F003F000
03F003F070
03E003E0E0
07E007E1C0
07C007E380
07C007E700
0FC007FE00
0F8007FC00
0F8007F800
1F8003E000
0000008000
ENDCHAR
STARTCHAR 014A
ENCODING 330
SWIDTH 844 0
DWIDTH 49 0
BBX 54 59 -1 -15
BITMAP
00FFFC0001FFFC
00FFFE0003FFF8
01FFFE0003FFF8
000FFE00007FC0
0003FF00003F80
0001FF00001F00
0000FF80001F00
0000FF80001E00
0000FFC0001E00
0000FFC0001C00
0000EFE0001C00
0001EFE0003C00
0001E7E0003C00
0001C7F0003800
0003C7F0007800
0003C3F8007800
000383F8007000
000381FC007000
000781FC00F000
000780FE00F000
000700FE00E000
0007007E00E000
000F007F01E000
000F003F01E000
000E003F81C000
001E003F83C000
001E001FC3C000
001C001FC38000
001C000FE38000
003C000FE78000
003C0007E78000
00380007F70000
00380003FF0000
00780003FF0000
00780003FF0000
00700001FE0000
00F00001FE0000
00F00000FE0000
01F80000FE0000
03F800007C0000
0FFC00007C0000
7FFFC0003C0000
7FFF8000380000
FFFF8000380000
00000000780000
00000000780000
00001E00700000
00003F00700000
00007F00F00000
0000FF00E00000
0000FF01E00000
0000FE01E00000
0000FC03C00000
0000FC07C00000
00007C0F800000
00007E3F000000
00003FFE000000
00001FF8000000
00000180000000
ENDCHAR
STARTCHAR 014B
ENCODING 331
SWIDTH 586 0
DWIDTH 34 0
BBX 31 46 1 -15
BITMAP
00F003F0
03F80FFC
07FC1FFC
0E7C3C7E
1C7C707E
187CE07E
307DC07E
307B807C
60FB00FC
60FF00FC
C0FE00FC
C1FC01F8
01FC01F8
01F801F8
03F801F0
03F003F0
03F003F0
07E003F0
07E003E0
07E007E0
07C007E0
0FC007C0
0F800FC0
0F800FC0
1F800F80
1F000F80
1F001F80
3F001F80
3E001F00
3E003F00
7C003F00
00003E00
00003E00
00007E00
00007C00
00007C00
0000F800
0100F800
07C0F000
07C1F000
07E1E000
07E3C000
07FF8000
07FF0000
01FC0000
00200000
ENDCHAR
STARTCHAR 014C
ENCODING 332
SWIDTH 827 0
DWIDTH 48 0
BBX 41 55 4 -1
BITMAP
00000FFFF000
00000FFFF000
00000FFFE000
000000000000
000000000000
000000000000
000000000000
000000000000
000000000000
000000400000
00001FFE0000
0000FFFFC000
0003FE0FE000
0007F003F000
001FC001F800
003F0000FC00
007E00007E00
00FC00007E00
01F800003F00
03F000003F00
07F000003F80
07E000003F80
0FE000003F80
0FC000003F80
1FC000003F80
1F8000003F80
3F8000003F80
3F8000003F80
3F0000003F80
7F0000003F80
7F0000003F80
7F0000003F80
7F0000003F80
FE0000003F80
FE0000003F80
FE0000007F00
FE0000007F00
FE0000007F00
FE000000FE00
FE000000FE00
7E000000FC00
7F000001FC00
7F000001F800
7F000003F000
3F000007F000
3F800007E000
1F80000FC000
1FC0001F8000
0FC0003F0000
07E0007E0000
03F001F80000
01FE1FF00000
00FFFFC00000
001FFE000000
000080000000
ENDCHAR
STARTCHAR 014D
ENCODING 333
SWIDTH 517 0
DWIDTH 30 0
BBX 29 44 1 -1
BITMAP
0003FFF8
0007FFF8
0007FFF8
00000000
00000000
00000000
00000000
00000000
00000000
00000000
00000000
00000000
0003F000
001FFC00
003FFE00
00FE1F00
01F80F80
03F00780
07F007C0
07E007C0
0FC007C0
1FC007E0
1F8007E0
3F8007E0
3F8007E0
7F000FC0
7F000FC0
7F000FC0
7E000FC0
7E001F80
FE001F80
FE001F80
FE003F00
FE003F00
7C007E00
7C007C00
7E00FC00
7E01F800
3E03F000
3F07E000
1F9FC000
0FFF0000
03FC0000
00400000
ENDCHAR
STARTCHAR 014E
ENCODING 334
SWIDTH 827 0
DWIDTH 48 0
BBX 41 56 4 -1
BITMAP
000003001C00
000003C07800
000003FFF000
000003FFE000
000001FFC000
0000007F0000
000000000000
000000000000
000000000000
000000000000
000000400000
00001FFE0000
0000FFFFC000
0003FE0FE000
0007F003F000
001FC001F800
003F0000FC00
007E00007E00
00FC00007E00
01F800003F00
03F000003F00
07F000003F80
07E000003F80
0FE000003F80
0FC000003F80
1FC000003F80
1F8000003F80
3F8000003F80
3F8000003F80
3F0000003F80
7F0000003F80
7F0000003F80
7F0000003F80
7F0000003F80
FE0000003F80
FE0000003F80
FE0000007F00
FE0000007F00
FE0000007F00
FE000000FE00
FE000000FE00
7E000000FC00
7F000001FC00
7F000001F800
7F000003F000
3F000007F000
3F800007E000
1F80000FC000
1FC0001F8000
0FC0003F0000
07E0007E0000
03F001F80000
01FE1FF00000
00FFFFC00000
001FFE000000
000080000000
ENDCHAR
STARTCHAR 014F
ENCODING 335
SWIDTH 517 0
DWIDTH 30 0
BBX 29 45 1 -1
BITMAP
00060018
00070038
000781F0
0007FFE0
0003FFC0
0001FF80
0000FC00
00000000
00000000
00000000
00000000
00000000
00000000
0003F000
001FFC00
003FFE00
00FE1F00
01F80F80
03F00780
07F007C0
07E007C0
0FC007C0
1FC007E0
1F8007E0
3F8007E0
3F8007E0
7F000FC0
7F000FC0
7F000FC0
7E000FC0
7E001F80
FE001F80
FE001F80
FE003F00
FE003F00
7C007E00
7C007C00
7E00FC00
7E01F800
3E03F000
3F07E000
1F9FC000
0FFF0000
03FC0000
00400000
ENDCHAR
STARTCHAR 0150
ENCODING 336
SWIDTH 827 0
DWIDTH 48 0
BBX 42 56 4 -1
BITMAP
0000003E0780
000000FE1FC0
000001FE3FC0
000007FCFF80
00001FE3FC00
00007E0F8000
000000000000
000000000000
000000000000
000000000000
000000400000
00001FFE0000
0000FFFFC000
0003FE0FE000
0007F003F000
001FC001F800
003F0000FC00
007E00007E00
00FC00007E00
01F800003F00
03F000003F00
07F000003F80
07E000003F80
0FE000003F80
0FC000003F80
1FC000003F80
1F8000003F80
3F8000003F80
3F8000003F80
3F0000003F80
7F0000003F80
7F0000003F80
7F0000003F80
7F0000003F80
FE0000003F80
FE0000003F80
FE0000007F00
FE0000007F00
FE0000007F00
FE000000FE00
FE000000FE00
7E000000FC00
7F000001FC00
7F000001F800
7F000003F000
3F000007F000
3F800007E000
1F80000FC000
1FC0001F8000
0FC0003F0000
07E0007E0000
03F001F80000
01FE1FF00000
00FFFFC00000
001FFE000000
000080000000
ENDCHAR
STARTCHAR 0151
ENCODING 337
SWIDTH 517 0
DWIDTH 30 0
BBX 34 47 1 -1
BITMAP
00003C0380
00007C0FC0
0000FC1FC0
0003FC3F80
0007F87F00
000FE0FC00
001F81F000
003C03C000
00700F0000
0000000000
0000000000
0000000000
0000000000
0000000000
0000000000
0003F00000
001FFC0000
003FFE0000
00FE1F0000
01F80F8000
03F0078000
07F007C000
07E007C000
0FC007C000
1FC007E000
1F8007E000
3F8007E000
3F8007E000
7F000FC000
7F000FC000
7F000FC000
7E000FC000
7E001F8000
FE001F8000
FE001F8000
FE003F0000
FE003F0000
7C007E0000
7C007C0000
7E00FC0000
7E01F80000
3E03F00000
3F07E00000
1F9FC00000
0FFF000000
03FC000000
0040000000
ENDCHAR
STARTCHAR 0152
ENCODING 338
SWIDTH 1155 0
DWIDTH 67 0
BBX 61 44 4 0
BITMAP
0000007FFFFFFFF8
000007FFFFFFFFF8
00003FFFFFFFFFF8
0000FF007FC007F8
0003F8003F8001F8
0007E0001F8000F8
001FC0001F800078
003F80003F800078
007F00003F000038
00FE00003F000038
01FC00003F000018
03F800003F000018
07F000007E000000
0FF000007E006000
0FE000007E00E000
1FE000007C00E000
1FC00000FC01C000
3FC00000FC03C000
3F800000FC0FC000
7F800000FFFFC000
7F800001FFFFC000
7F000001FFFF8000
FF000001F81F8000
FF000001F80F8000
FF000003F0078000
FE000003F0070000
FE000003F0070000
FE000003F0070000
FE000007E0070000
FE000007E0070000
FE000007E0000000
FE000007E0000000
7E00000FC00000E0
7F00000FC00000E0
3F00000FC00001C0
3F80000FC00001C0
1F80001FC00003C0
0FC0001FC0000780
0FE0001FC0000F80
03F0003FC0001F80
01FC007FE0007F00
00FFFFFFFFFFFF00
001FFFFFFFFFFE00
0003FFFFFFFFFE00
ENDCHAR
STARTCHAR 0153
ENCODING 339
SWIDTH 793 0
DWIDTH 46 0
BBX 44 32 1 -1
BITMAP
0003F0001F80
001FFC00FFE0
003FFE01FFE0
00FE1F07C3F0
01F80F8F81F0
03F0079F01F0
07F007FE01F0
07E007FC03F0
0FC007F803E0
1FC007F807C0
1F8007F00FC0
3F8007F00F80
3F8007E03F00
7F000FE07C00
7F000FE1F800
7F000FC7E000
7E000FDF8000
7E001FFE0000
FE001FF00000
FE001F800000
FE003F800000
FE003F800000
7C007F800200
7C007F800700
7E00FF800600
7E01FF800E00
3E03FFC01C00
3F07EFC07800
1F9FC7F1F000
0FFF83FFC000
03FE01FF8000
004000100000
ENDCHAR
STARTCHAR 0154
ENCODING 340
SWIDTH 758 0
DWIDTH 44 0
BBX 43 55 -1 0
BITMAP
000000007800
00000001F800
0000000FF800
0000003FE000
000000FF0000
000007E00000
000000000000
000000000000
000000000000
000000000000
000000000000
003FFFFF0000
003FFFFFE000
007FFFFFF800
0003FE01FC00
0001FC007E00
0001FC003F00
0001FC003F80
0001F8001F80
0001F8001F80
0001F8001F80
0001F0001F80
0003F0001F80
0003F0003F80
0003F0003F00
0003E0007F00
0007E000FE00
0007E001FC00
0007C007F800
000FC01FF000
000FFFFFC000
000FFFFF0000
000FFFF80000
001F81F80000
001F81F80000
001F81FC0000
001F00FC0000
003F00FE0000
003F00FE0000
003E007E0000
007E007F0000
007E003F0000
007E003F8000
007C003F8000
00FC001F8000
00FC001FC000
00FC000FC000
01F8000FE000
01F8000FE000
03FC0007F000
03FC0007F800
07FE0003FC00
3FFFF003FFA0
FFFFF003FFC0
FFFFE001FFC0
ENDCHAR
STARTCHAR 0155
ENCODING 341
SWIDTH 465 0
DWIDTH 27 0
BBX 28 46 1 0
BITMAP
000003C0
000007C0
00000FC0
00001FC0
00007F00
0000FC00
0001F000
0003C000
00070000
00000000
00000000
00000000
00000000
00000000
000003C0
00700FE0
01F83FF0
07F87FF0
0FF8FFF0
1CFDE7E0
38F9C1C0
60FB8000
E0FF0000
40FE0000
01FE0000
01FC0000
01FC0000
01F80000
03F80000
03F00000
03F00000
07E00000
07E00000
07C00000
0FC00000
0FC00000
0F800000
1F800000
1F800000
1F000000
1F000000
3F000000
3E000000
3E000000
7E000000
7C000000
ENDCHAR
STARTCHAR 0156
ENCODING 342
SWIDTH 758 0
DWIDTH 44 0
BBX 43 59 -1 -15
BITMAP
003FFFFF0000
003FFFFFE000
007FFFFFF800
0003FE01FC00
0001FC007E00
0001FC003F00
0001FC003F80
0001F8001F80
0001F8001F80
0001F8001F80
0001F0001F80
0003F0001F80
0003F0003F80
0003F0003F00
0007E0007F00
0007E000FE00
0007E001FC00
0007C007F800
000FC01FF000
000FFFFFC000
000FFFFF0000
000FFFF80000
001F81F80000
001F81F80000
001F81FC0000
003F00FC0000
003F00FE0000
003F00FE0000
003E007E0000
007E007F0000
007E003F0000
007E003F8000
00FC003F8000
00FC001F8000
00FC001FC000
00FC000FC000
01F8000FE000
01F8000FE000
03FC0007F000
07FC0007F800
0FFE0003FC00
7FFFF003FFE0
FFFFF003FFC0
FFFFE001FFC0
000000000000
000000000000
000000000000
00001C000000
00003E000000
00007F000000
00007F000000
00007F000000
00003F000000
000007000000
000006000000
00000E000000
00003C000000
000070000000
000020000000
ENDCHAR
STARTCHAR 0157
ENCODING 343
SWIDTH 465 0
DWIDTH 27 0
BBX 29 47 0 -15
BITMAP
000001E0
003807F0
00FC1FF8
03FC3FF8
07FC7FF8
0E7EF3F0
1C7CE0E0
307DC000
707F8000
207F0000
00FF0000
00FE0000
00FE0000
00FC0000
01FC0000
01F80000
01F80000
03F00000
03F00000
03E00000
07E00000
07E00000
07C00000
0FC00000
0FC00000
0F800000
0F800000
1F800000
1F000000
1F000000
3F000000
3E000000
00000000
00000000
00000000
78000000
FC000000
FE000000
FE000000
FE000000
7E000000
0E000000
1C000000
38000000
70000000
E0000000
40000000
ENDCHAR
STARTCHAR 0158
ENCODING 344
SWIDTH 758 0
DWIDTH 44 0
BBX 43 55 -1 0
BITMAP
00001E003C00
00000F80F000
000007E7E000
000003FFC000
000001FF0000
000001FE0000
000000000000
000000000000
000000000000
000000000000
000000000000
003FFFFF0000
003FFFFFE000
007FFFFFF800
0003FE01FE00
0001FC007E00
0001FC003F00
0001FC003F80
0001F8001F80
0001F8001F80
0001F8001F80
0001F0001F80
0003F0003F80
0003F0003F80
0003F0003F00
0007E0007F00
0007E000FE00
0007E001FC00
0007C007F800
000FC03FF000
000FFFFFC000
000FFFFF0000
000FFFF80000
001F81F80000
001F81F80000
001F81FC0000
003F00FC0000
003F00FE0000
003F00FE0000
003E007E0000
007E007F0000
007E003F0000
007E003F8000
00FC003F8000
00FC001F8000
00FC001FC000
00FC000FC000
01F8000FE000
01F8000FE000
03FC0007F000
07FC0007F800
0FFE0003FC00
7FFFF003FFE0
FFFFF003FFC0
FFFFE001FFC0
ENDCHAR
STARTCHAR 0159
ENCODING 345
SWIDTH 465 0
DWIDTH 27 0
BBX 29 45 1 0
BITMAP
00380078
001C01E0
001F07C0
000F9F00
000FFE00
0007FC00
0003F800
0003F000
00000000
00000000
00000000
00000000
00000000
000003C0
00700FE0
01F83FF0
07F87FF0
0FF8FFF0
1CFDE7E0
38F9C1C0
60FB8000
E0FF0000
40FE0000
01FE0000
01FC0000
01FC0000
01F80000
03F80000
03F00000
03F00000
07E00000
07E00000
07C00000
0FC00000
0FC00000
0F800000
1F800000
1F800000
1F000000
1F000000
3F000000
3E000000
3E000000
7E000000
7C000000
ENDCHAR
STARTCHAR 015A
ENCODING 346
SWIDTH 603 0
DWIDTH 35 0
BBX 33 56 1 -1
BITMAP
0000000F00
0000003F00
000000FF00
000003FE00
00000FF000
00003F0000
0000C00000
0000000000
0000000000
0000000000
0000040000
0000FFC000
0003FFF180
000FF1F980
001F003F80
003E001F00
007C001F00
007C000F00
00F8000F00
00F8000E00
00F8000E00
01F8000600
01FC000600
00FC000000
00FE000000
00FF000000
00FF800000
007FC00000
003FF00000
003FF80000
001FFC0000
000FFF0000
0003FF8000
0001FFC000
0000FFE000
00003FE000
00001FF000
00000FF000
000007F800
000003F800
000001F800
300001F800
300000F800
380000F800
380000F800
380000F000
780000F000
7C0001F000
7C0001E000
7E0003C000
7F0007C000
EF800F8000
E7F07E0000
C1FFFC0000
C07FF00000
0006000000
ENDCHAR
STARTCHAR 015B
ENCODING 347
SWIDTH 379 0
DWIDTH 22 0
BBX 26 47 -1 -1
BITMAP
00000380
00000FC0
00001FC0
00003F80
00007F00
0000F800
0003E000
00078000
000E0000
00000000
00000000
00000000
00000000
00000000
00000000
000FC000
007FF000
00FFF800
01F1F800
01E0FC00
03E0FC00
03E07800
03E03000
07E00000
07F00000
03F00000
03F80000
03FC0000
01FC0000
01FE0000
00FF0000
007F8000
003F8000
003F8000
001FC000
000FC000
000FC000
0007C000
7807C000
FC07C000
FC078000
FC0F8000
FC0F0000
7E1E0000
3FFC0000
1FF00000
01000000
ENDCHAR
STARTCHAR 015C
ENCODING 348
SWIDTH 603 0
DWIDTH 35 0
BBX 33 56 1 -1
BITMAP
00000FF000
00001FF800
00003FF800
0000FCFC00
0001F03E00
0007800F00
0000000000
0000000000
0000000000
0000000000
0000040000
0000FFC000
0003FFF180
000FF1F980
001F003F80
003E001F00
007C001F00
007C000F00
00F8000F00
00F8000E00
00F8000E00
01F8000600
01FC000600
00FC000000
00FE000000
00FF000000
00FF800000
007FC00000
003FF00000
003FF80000
001FFC0000
000FFF0000
0003FF8000
0001FFC000
0000FFE000
00003FE000
00001FF000
00000FF000
000007F800
000003F800
000001F800
300001F800
300000F800
380000F800
380000F800
380000F000
780000F000
7C0001F000
7C0001E000
7E0003C000
7F0007C000
EF800F8000
E7F07E0000
C1FFFC0000
C07FF00000
0006000000
ENDCHAR
STARTCHAR 015D
ENCODING 349
SWIDTH 379 0
DWIDTH 22 0
BBX 26 46 -1 -1
BITMAP
0001F800
0003FC00
0007FE00
000FFE00
003E1F00
00780F80
00E00380
018001C0
00000000
00000000
00000000
00000000
00000000
00000000
000FC000
007FF000
00FFF800
01F1F800
01E0FC00
03E07800
03E07800
03E00000
07E00000
07F00000
03F00000
03F80000
03FC0000
01FC0000
01FE0000
00FF0000
007F8000
003F8000
003F8000
001FC000
000FC000
000FC000
1007C000
7807C000
FC07C000
FC078000
FC0F8000
FC0F0000
7E1E0000
3FFC0000
1FF00000
01000000
ENDCHAR
STARTCHAR 015E
ENCODING 350
SWIDTH 603 0
DWIDTH 35 0
BBX 33 60 1 -15
BITMAP
0000040000
0000FFC000
0003FFF180
000FF1F980
001F003F80
003E001F00
007C001F00
007C000F00
00F8000F00
00F8000E00
00F8000E00
01F8000600
01FC000600
00FC000000
00FE000000
00FF000000
00FF800000
007FC00000
003FF00000
003FF80000
001FFC0000
000FFF0000
0003FF8000
0001FFC000
0000FFE000
00003FE000
00001FF000
00000FF000
000007F800
000003F800
000001F800
300001F800
300000F800
380000F800
380000F800
380000F000
780000F000
7C0001F000
7C0001E000
7E0003C000
7F0007C000
EF800F8000
E7F07F0000
C1FFFC0000
C07FF00000
000E000000
001C000000
0038000000
007E000000
007F800000
00FFC00000
000FC00000
0007C00000
0603C00000
0F07C00000
0F07800000
0F9F800000
0FFE000000
03FC000000
0040000000
ENDCHAR
STARTCHAR 015F
ENCODING 351
SWIDTH 379 0
DWIDTH 22 0
BBX 25 46 -4 -15
BITMAP
0001F800
000FFE00
001FFF00
003E3F00
003C1F80
007C1F80
007C0F00
007C0600
00FC0000
00FE0000
007E0000
007F0000
007F8000
003F8000
001FC000
001FE000
000FF000
0007F000
0003F000
0003F800
0001F800
0001F800
0600F800
0F00F800
1F80F800
1F80F000
1F81F000
1F81E000
0FC7C000
07FF8000
03FE0000
01E00000
01C00000
03800000
07000000
0FF80000
1FFC0000
00FC0000
007C0000
607C0000
E07C0000
F0F80000
F9F00000
FFE00000
7FC00000
04000000
ENDCHAR
STARTCHAR 0160
ENCODING 352
SWIDTH 603 0
DWIDTH 35 0
BBX 34 56 1 -1
BITMAP
0001C003C0
0000F01F00
0000FCFC00
00007FF800
00003FF000
00001FC000
0000000000
0000000000
0000000000
0000000000
0000040000
0000FFC000
0003FFF180
000FF1F980
001F003F80
003E001F00
007C001F00
007C000F00
00F8000F00
00F8000E00
00F8000E00
01F8000600
01FC000600
00FC000000
00FE000000
00FF000000
00FF800000
007FC00000
003FF00000
003FF80000
001FFC0000
000FFF0000
0003FF8000
0001FFC000
0000FFE000
00003FE000
00001FF000
00000FF000
000007F800
000003F800
000001F800
300001F800
300000F800
380000F800
380000F800
380000F000
780000F000
7C0001F000
7C0001E000
7E0003C000
7F0007C000
EF800F8000
E7F07E0000
C1FFFC0000
C07FF00000
0006000000
ENDCHAR
STARTCHAR 0161
ENCODING 353
SWIDTH 379 0
DWIDTH 22 0
BBX 28 46 -1 -1
BITMAP
007000F0
003C03C0
003E0F80
001FBF00
000FFE00
000FF800
0007F000
0003E000
00000000
00000000
00000000
00000000
00000000
00000000
000FC000
007FF000
00FFF800
01F1F800
01E0FC00
03E0FC00
03E07800
03E03000
07E00000
07F00000
03F00000
03F80000
03FC0000
01FC0000
01FE0000
00FF0000
007F8000
003F8000
003F8000
001FC000
000FC000
000FC000
0007C000
7807C000
FC07C000
FC078000
FC0F8000
FC0F0000
7E1E0000
3FFC0000
1FF00000
01000000
ENDCHAR
STARTCHAR 0162
ENCODING 354
SWIDTH 775 0
DWIDTH 45 0
BBX 44 59 5 -15
BITMAP
07FFFFFFFFF0
0FFFFFFFFFF0
0FFFFFFFFFF0
1FF01FF80FE0
1F800FF003E0
1F000FE001E0
3E000FC001E0
38000FC000E0
70000FC000E0
70001F8000E0
E0001F8000E0
C0001F8000E0
00001F800000
00003F000000
00003F000000
00003F000000
00003E000000
00007E000000
00007E000000
00007E000000
0000FC000000
0000FC000000
0000FC000000
0000FC000000
0001F8000000
0001F8000000
0001F8000000
0003F0000000
0003F0000000
0003F0000000
0003F0000000
0007E0000000
0007E0000000
0007E0000000
0007C0000000
000FC0000000
000FC0000000
001FC0000000
001FC0000000
003FC0000000
007FE0000000
0FFFFF000000
0FFFFF000000
1FFFFF000000
000700000000
000E00000000
001C00000000
001F00000000
003FE0000000
007FE0000000
0003F0000000
0001F0000000
0301F0000000
0781E0000000
0783E0000000
07CFC0000000
03FF80000000
01FE00000000
002000000000
ENDCHAR
STARTCHAR 0163
ENCODING 355
SWIDTH 362 0
DWIDTH 21 0
BBX 24 54 -3 -15
BITMAP
0001F0
0001F0
0001F0
0003F0
0003E0
0003E0
0007E0
0007C0
0007C0
000FC0
01FFFF
01FFFE
03FFFE
001F00
001F00
001F00
003F00
003E00
003E00
007E00
007C00
007C00
00FC00
00F800
00F800
01F800
01F000
01F000
03F010
03E038
03E030
03E070
07E0E0
07E3C0
07FF80
07FF00
07FE00
03F800
01E000
01C000
038000
078000
07E000
0FF800
1FFC00
00FC00
007C00
607C00
E07C00
F0F800
F1F000
FFE000
7FC000
040000
ENDCHAR
STARTCHAR 0164
ENCODING 356
SWIDTH 775 0
DWIDTH 45 0
BBX 44 55 5 0
BITMAP
00003C007800
00001F01E000
00000FCFC000
000007FF0000
000007FE0000
000003FC0000
000000000000
000000000000
000000000000
000000000000
000000000000
07FFFFFFFFF0
0FFFFFFFFFF0
0FFFFFFFFFF0
1FF01FF80FE0
1F800FF003E0
1F000FE001E0
3E000FC001E0
38000FC000E0
70000FC000E0
70001F8000E0
E0001F8000E0
C0001F8000E0
00001F800000
00003F000000
00003F000000
00003F000000
00003E000000
00007E000000
00007E000000
00007E000000
0000FC000000
0000FC000000
0000FC000000
0000FC000000
0001F8000000
0001F8000000
0001F8000000
0003F0000000
0003F0000000
0003F0000000
0003F0000000
0007E0000000
0007E0000000
0007E0000000
0007C0000000
000FC0000000
000FC0000000
001FC0000000
001FC0000000
003FC0000000
007FE0000000
0FFFFF000000
0FFFFF000000
1FFFFF000000
ENDCHAR
STARTCHAR 0165
ENCODING 357
SWIDTH 362 0
DWIDTH 21 0
BBX 27 46 2 -1
BITMAP
00000080
000003E0
000007E0
00000FE0
00000FE0
00000FE0
000003C0
003E01C0
003E0380
007E0E00
007C1C00
007C1000
00FC0000
00F80000
00F80000
01F80000
3FFFE000
3FFFC000
7FFFC000
03E00000
03E00000
03E00000
07E00000
07C00000
07C00000
0FC00000
0F800000
0F800000
1F800000
1F000000
1F000000
1F000000
3F000000
3E000000
3E020000
7E030000
7C070000
7C0E0000
7C1C0000
FC380000
FC780000
FFF00000
FFC00000
FF800000
7E000000
18000000
ENDCHAR
STARTCHAR 0166
ENCODING 358
SWIDTH 793 0
DWIDTH 46 0
BBX 44 44 5 0
BITMAP
07FFFFFFFFF0
07FFFFFFFFF0
0FFFFFFFFFF0
0FF00FF80FF0
1FC00FF003F0
1F000FE001F0
3E000FE000E0
3C000FC000E0
78000FC000E0
70000FC000E0
60001F800060
C0001F800060
00001F800000
00001F800000
00003F000000
00003F000000
00003F000000
00007E000000
3FFFFFFFFE00
3FFFFFFFFE00
7FFFFFFFFC00
0000FC000000
0000FC000000
0000FC000000
0001F8000000
0001F8000000
0001F8000000
0001F8000000
0003F0000000
0003F0000000
0003F0000000
0003F0000000
0007E0000000
0007E0000000
0007E0000000
000FC0000000
000FC0000000
000FC0000000
001FC0000000
003FC0000000
007FE0000000
0FFFFF800000
0FFFFF000000
0FFFFF000000
ENDCHAR
STARTCHAR 0167
ENCODING 359
SWIDTH 362 0
DWIDTH 21 0
BBX 19 40 2 -1
BITMAP
003F00
003E00
003E00
007E00
007C00
007C00
00FC00
00F800
00F800
01F800
3FFFE0
3FFFC0
7FFFC0
03F000
03E000
03E000
07E000
7FFF80
FFFF80
FFFF00
0F8000
0F8000
1F8000
1F8000
1F0000
1F0000
3F0000
3E0000
3E0200
7E0300
7C0700
7C0E00
7C1C00
FC3C00
FC7800
FFF000
FFE000
FF8000
7F0000
180000
ENDCHAR
STARTCHAR 0168
ENCODING 360
SWIDTH 810 0
DWIDTH 47 0
BBX 44 56 7 -1
BITMAP
00003E00C000
00007FC0C000
0000FFF1C000
0000FFFF8000
0001C7FF8000
000181FF0000
0001803E0000
000000000000
000000000000
000000000000
000000000000
7FFFE00FFFF0
FFFFE00FFFE0
FFFFE00FFFE0
0FFC0000FF00
07F800007E00
07F000003C00
07F000003C00
07E000003800
07E000007800
07E000007800
0FC000007800
0FC000007000
0FC000007000
0FC000007000
1F800000F000
1F800000F000
1F800000E000
1F800000E000
3F000000E000
3F000001E000
3F000001E000
7E000001C000
7E000001C000
7E000003C000
7E000003C000
FC0000038000
FC0000078000
FC0000078000
FC0000070000
FC00000F0000
F800000F0000
F800000E0000
F800001E0000
F800001C0000
FC00003C0000
FC0000380000
FC0000780000
7E0000F00000
7E0001E00000
3F0003C00000
1FC00F800000
0FF07F000000
07FFFC000000
01FFF0000000
000600000000
ENDCHAR
STARTCHAR 0169
ENCODING 361
SWIDTH 586 0
DWIDTH 34 0
BBX 31 45 1 -1
BITMAP
0003F00C
0007FE0C
000FFFFC
001FFFF8
00183FF0
001803E0
00000000
00000000
00000000
00000000
00000000
00000000
00000000
00780000
01FC00FC
03FC00F8
07FC00F8
0FFC01F8
1CFC01F0
38FC03F0
70F803F0
61F803F0
C1F807E0
01F007E0
03F007E0
03F00FC0
07E00FC0
07E01FC0
07C01F80
0FC03F80
0FC03F80
1F807F00
1F807F00
1F80FF00
3F01FE06
3F01FE06
3F03BE0C
3F073E1C
3F0F3C38
3F1E7C70
3FFC3FE0
3FF83FE0
3FF03F80
1FC03F00
02000800
ENDCHAR
STARTCHAR 016A
ENCODING 362
SWIDTH 810 0
DWIDTH 47 0
BBX 44 55 7 -1
BITMAP
00007FFF8000
00007FFF0000
0000FFFF0000
000000000000
000000000000
000000000000
000000000000
000000000000
000000000000
000000000000
7FFFE00FFFF0
FFFFE00FFFE0
FFFFE00FFFE0
0FFC0000FF00
07F800007E00
07F000003C00
07F000003C00
07E000003800
07E000007800
07E000007800
0FC000007800
0FC000007000
0FC000007000
0FC000007000
1F800000F000
1F800000F000
1F800000E000
1F800000E000
3F000000E000
3F000001E000
3F000001E000
7E000001C000
7E000001C000
7E000003C000
7E000003C000
FC0000038000
FC0000078000
FC0000078000
FC0000070000
FC00000F0000
F800000F0000
F800000E0000
F800001E0000
F800001C0000
FC00003C0000
FC0000380000
FC0000780000
7E0000F00000
7E0001E00000
3F0003C00000
1FC00F800000
0FF07F000000
07FFFC000000
01FFF0000000
000600000000
ENDCHAR
STARTCHAR 016B
ENCODING 363
SWIDTH 586 0
DWIDTH 34 0
BBX 31 44 1 -1
BITMAP
0007FFF8
0007FFF0
000FFFF0
00000000
00000000
00000000
00000000
00000000
00000000
00000000
00000000
00000000
00780000
01FC00FC
03FC00F8
07FC00F8
0FFC01F8
1CFC01F0
38FC03F0
70F803F0
61F803F0
C1F807E0
01F007E0
03F007E0
03F00FC0
07E00FC0
07E01FC0
07C01F80
0FC03F80
0FC03F80
1F807F00
1F807F00
1F80FF00
3F01FE06
3F01FE06
3F03BE0C
3F073E1C
3F0F3C38
3F1E7C70
3FFC3FE0
3FF83FE0
3FF03F80
1FC03F00
02000800
ENDCHAR
STARTCHAR 016C
ENCODING 364
SWIDTH 810 0
DWIDTH 47 0
BBX 44 56 7 -1
BITMAP
000070018000
0000780F8000
00007FFF0000
00003FFE0000
00001FF80000
00000FE00000
000000000000
000000000000
000000000000
000000000000
000000000000
7FFFE00FFFF0
FFFFE00FFFE0
FFFFE00FFFE0
0FFC0000FF00
07F800007E00
07F000003C00
07F000003C00
07E000003800
07E000007800
07E000007800
0FC000007800
0FC000007000
0FC000007000
0FC000007000
1F800000F000
1F800000F000
1F800000E000
1F800000E000
3F000000E000
3F000001E000
3F000001E000
7E000001C000
7E000001C000
7E000003C000
7E000003C000
FC0000038000
FC0000078000
FC0000078000
FC0000070000
FC00000F0000
F800000F0000
F800000E0000
F800001E0000
F800001C0000
FC00003C0000
FC0000380000
FC0000780000
7E0000F00000
7E0001E00000
3F0003C00000
1FC00F800000
0FF07F000000
07FFFC000000
01FFF0000000
000600000000
ENDCHAR
STARTCHAR 016D
ENCODING 365
SWIDTH 586 0
DWIDTH 34 0
BBX 31 45 1 -1
BITMAP
0007001C
00070038
0007C0F0
0003FFE0
0003FFC0
0001FF80
0000FE00
00000000
00000000
00000000
00000000
00000000
00000000
00780000
01FC00FC
03FC00F8
07FC00F8
0FFC01F8
1CFC01F0
38FC03F0
70F803F0
61F803F0
C1F807E0
01F007E0
03F007E0
03F00FC0
07E00FC0
07E01FC0
07C01F80
0FC03F80
0FC03F80
1F807F00
1F807F00
1F80FF00
3F01FE06
3F01FE06
3F03BE0C
3F073E1C
3F0F3C38
3F1E7C70
3FFC3FE0
3FF83FE0
3FF03F80
1FC03F00
02000800
ENDCHAR
STARTCHAR 016E
ENCODING 366
SWIDTH 810 0
DWIDTH 47 0
BBX 44 56 7 -1
BITMAP
000001E00000
000003F00000
000006300000
000004300000
000004300000
000007E00000
000003C00000
000000000000
000000000000
000000000000
000000000000
7FFFE00FFFF0
FFFFE00FFFE0
FFFFE00FFFE0
0FFC0000FF00
07F800007E00
07F000003C00
07F000003C00
07E000003800
07E000007800
07E000007800
0FC000007800
0FC000007000
0FC000007000
0FC000007000
1F800000F000
1F800000F000
1F800000E000
1F800000E000
3F000000E000
3F000001E000
3F000001E000
7E000001C000
7E000001C000
7E000003C000
7E000003C000
FC0000038000
FC0000078000
FC0000078000
FC0000070000
FC00000F0000
F800000F0000
F800000E0000
F800001E0000
F800001C0000
FC00003C0000
FC0000380000
FC0000780000
7E0000F00000
7E0001E00000
3F0003C00000
1FC00F800000
0FF07F000000
07FFFC000000
01FFF0000000
000600000000
ENDCHAR
STARTCHAR 016F
ENCODING 367
SWIDTH 586 0
DWIDTH 34 0
BBX 31 49 1 -1
BITMAP
00000F00
00003F80
00007FC0
0000E1C0
0000C1C0
0001C1C0
0001C180
0001C380
0000FF00
0000FE00
00003800
00000000
00000000
00000000
00000000
00000000
00000000
00780000
01FC00FC
03FC00F8
07FC00F8
0FFC01F8
1CFC01F0
38FC03F0
70F803F0
61F803F0
C1F807E0
01F007E0
03F007E0
03F00FC0
07E00FC0
07E01FC0
07C01F80
0FC03F80
0FC03F80
1F807F00
1F807F00
1F80FF00
3F01FE06
3F01FE06
3F03BE0C
3F073E1C
3F0F3C38
3F1E7C70
3FFC3FE0
3FF83FE0
3FF03F80
1FC03F00
02000800
ENDCHAR
STARTCHAR 0170
ENCODING 368
SWIDTH 810 0
DWIDTH 47 0
BBX 44 56 7 -1
BITMAP
000001E03C00
000007F0FE00
00000FF3FE00
00003FE7F800
0000FF1FC000
0003E07C0000
000000000000
000000000000
000000000000
000000000000
000000000000
7FFFE00FFFF0
FFFFE00FFFE0
FFFFE00FFFE0
0FFC0000FF00
07F800007E00
07F000003C00
07F000003C00
07E000003800
07E000007800
07E000007800
0FC000007800
0FC000007000
0FC000007000
0FC000007000
1F800000F000
1F800000F000
1F800000E000
1F800000E000
3F000000E000
3F000001E000
3F000001E000
7E000001C000
7E000001C000
7E000003C000
7E000003C000
FC0000038000
FC0000078000
FC0000078000
FC0000070000
FC00000F0000
F800000F0000
F800000E0000
F800001E0000
F800001C0000
FC00003C0000
FC0000380000
FC0000780000
7E0000F00000
7E0001E00000
3F0003C00000
1FC00F800000
0FF07F000000
07FFFC000000
01FFF0000000
000600000000
ENDCHAR
STARTCHAR 0171
ENCODING 369
SWIDTH 586 0
DWIDTH 34 0
BBX 35 47 1 -1
BITMAP
00001E01C0
00003E07E0
00007E0FE0
0000FE1FC0
0001FC3F80
0003F07E00
0007C0F800
001F01E000
003C078000
0000000000
0000000000
0000000000
0000000000
0000000000
0000000000
0078000000
01FC00FC00
03FC00F800
07FC00F800
0FFC01F800
1CFC01F000
38FC03F000
70F803F000
61F803F000
C1F807E000
01F007E000
03F007E000
03F00FC000
07E00FC000
07E01FC000
07C01F8000
0FC03F8000
0FC03F8000
1F807F0000
1F807F0000
1F80FF0000
3F01FE0600
3F01FE0600
3F03BE0C00
3F073E1C00
3F0F3C3800
3F1E7C7000
3FFC3FE000
3FF83FE000
3FF03F8000
1FC03F0000
0200080000
ENDCHAR
STARTCHAR 0172
ENCODING 370
SWIDTH 810 0
DWIDTH 47 0
BBX 44 57 7 -13
BITMAP
7FFFE00FFFF0
FFFFE00FFFE0
FFFFE00FFFE0
0FFC0000FF00
07F800007E00
07F000003C00
07F000003C00
07E000003800
07E000007800
07E000007800
0FC000007800
0FC000007000
0FC000007000
0FC000007000
1F800000F000
1F800000F000
1F800000E000
1F800000E000
3F000000E000
3F000001E000
3F000001E000
7E000001C000
7E000001C000
7E000003C000
7E000003C000
FC0000038000
FC0000078000
FC0000078000
FC0000070000
FC00000F0000
F800000F0000
F800000E0000
F800001E0000
F800001C0000
FC00003C0000
FC0000380000
FC0000780000
7E0000F00000
7E0001E00000
3F0003C00000
3FC00F800000
0FF07F000000
07FFFC000000
01FFF0000000
003E00000000
00F000000000
03E000000000
07C000000000
078000000000
0F0000000000
0F0000000000
1F0080000000
1F01C0000000
1F8780000000
0FFF00000000
07FE00000000
03F000000000
ENDCHAR
STARTCHAR 0173
ENCODING 371
SWIDTH 586 0
DWIDTH 34 0
BBX 31 44 1 -13
BITMAP
00780000
01FC00FC
03FC00F8
07FC00F8
0FFC01F8
1CFC01F0
38FC03F0
70F803F0
61F803F0
C1F807E0
01F007E0
03F007E0
03F00FC0
07E00FC0
07E01FC0
07C01F80
0FC03F80
0FC03F80
1F807F00
1F807F00
1F80FF00
3F01FE06
3F01FE06
3F03BE0C
3F073E1C
3F0F3C38
3F1E7C70
3FFC3FE0
3FF83FE0
3FF03F80
1FC03F00
0200F800
0003E000
00078000
000F0000
001F0000
001E0000
003E0000
003E0100
003E0780
003F0F00
001FFE00
001FF800
0007E000
ENDCHAR
STARTCHAR 0174
ENCODING 372
SWIDTH 1068 0
DWIDTH 62 0
BBX 64 55 6 -1
BITMAP
00000003FC000000
00000007FE000000
0000000FFF000000
0000003F1F800000
0000007807800000
000001E001C00000
0000000000000000
0000000000000000
0000000000000000
0000000000000000
0FFFF07FFF807FFF
0FFFF0FFFF807FFF
0FFFF0FFFF80FFFF
00FF800FF8000FF0
007F0007F0000FC0
007E0007E0000F80
007E0007E0001F00
007E0007C0003E00
007C000FC0003C00
00FC000FC0007800
00FC000FC000F000
00FC000F8001E000
00F8001F8001C000
00F8003F8003C000
01F8007F80078000
01F800FF800F0000
01F000FF001E0000
01F001FF001C0000
03F003FF003C0000
03F007BF00780000
03F00F3E00F00000
03E00F3E00E00000
07E01E7E01E00000
07E03C7E03C00000
07E0787C07800000
07C0F07C0F000000
07C0F0FC0F000000
0FC1E0FC1E000000
0FC3C0FC3C000000
0FC780F878000000
0F8781F8F0000000
1F8F01F8F0000000
1F9E01F9E0000000
1FBC01F3C0000000
1F7801F780000000
3F7803FF80000000
3FF003FF00000000
3FE003FE00000000
3FC003FC00000000
3FC007F800000000
7F8007F800000000
7F0007F000000000
7E0007E000000000
7E000FC000000000
FC000FC000000000
ENDCHAR
STARTCHAR 0175
ENCODING 373
SWIDTH 844 0
DWIDTH 49 0
BBX 46 46 1 -1
BITMAP
00000003F000
0000000FF000
0000001FF800
0000003FFC00
0000007C7C00
000000F01E00
000003C00F00
000007000300
000000000000
000000000000
000000000000
000000000000
000000000000
000000000000
07C0600F0078
1FE0F01F80FC
3FFBE03F80FC
7FFFC07F80FC
71FF807F80FC
F8FF00F780FC
F81F00E7807C
FC0E01C7807C
FC1C01C7807C
7C3C01C7007C
383803C7007C
007803C7007C
00F003CE007C
00F003CE0078
01E003DC0078
01E003DC0078
03E003F800F0
03E003F800F0
03C003F001E0
07C003E001E0
07C003E003C0
07C003E003C0
07C007E00780
07C00FF00F80
07E01FF00F00
07E03DF83E00
07F079FFFC00
07FFF1FFFC00
03FFE0FFF000
03FFC07FE000
00FF003F8000
001000040000
ENDCHAR
STARTCHAR 0176
ENCODING 374
SWIDTH 689 0
DWIDTH 40 0
BBX 40 55 5 0
BITMAP
000007F000
00001FF800
00003FFC00
00007C7C00
0001F01E00
0007800700
0000000000
0000000000
0000000000
0000000000
0000000000
7FFF803FFF
FFFF807FFF
FFFF807FFF
0FF80007F0
07F00007E0
03F00007C0
03F80007C0
01F8000780
01FC000F00
00FC001E00
00FC001E00
007E003C00
007E007800
007F00F000
003F00F000
003F81E000
001F83C000
001F838000
000FC78000
000FCF0000
000FFE0000
0007FC0000
0007FC0000
0003F80000
0003F00000
0003F00000
0003F00000
0003F00000
0007E00000
0007E00000
0007E00000
000FE00000
000FC00000
000FC00000
000FC00000
001F800000
001F800000
001F800000
003F800000
007F800000
00FFC00000
1FFFFE0000
1FFFFE0000
1FFFFC0000
ENDCHAR
STARTCHAR 0177
ENCODING 375
SWIDTH 517 0
DWIDTH 30 0
BBX 35 60 -6 -15
BITMAP
000001F800
000003FC00
00000FFC00
00001FFE00
00003E1F00
0000F00780
0001C003C0
0000000000
0000000000
0000000000
0000000000
0000000000
0000000000
0000000000
000F0001C0
001F0003C0
003F8007E0
007F8007E0
00FFC007E0
00FFC007E0
01C7C007E0
0187E007E0
0183E007C0
0383E007C0
0303F007C0
0301F00780
0501F00780
0001F00700
0001F80700
0000F80F00
0000F80E00
0000F81E00
0000F81C00
0000FC3C00
00007C3800
00007C7800
00007C7000
00007CE000
00007FE000
00003FC000
00003FC000
00003F8000
00003F0000
00003F0000
00003E0000
00003C0000
0000780000
0000780000
0000F00000
0001E00000
0001C00000
0003C00000
7007800000
F80F000000
F81E000000
FC38000000
FFF0000000
FFE0000000
7F80000000
0800000000
ENDCHAR
STARTCHAR 0178
ENCODING 376
SWIDTH 689 0
DWIDTH 40 0
BBX 40 55 5 0
BITMAP
0000780E00
0000F81F00
0000FC3F00
0001F83F00
0000F83E00
0000F01C00
0000000000
0000000000
0000000000
0000000000
0000000000
7FFF803FFF
FFFF807FFF
FFFF807FFF
0FF80007F0
07F00007E0
03F00007C0
03F80007C0
01F8000780
01FC000F00
00FC001E00
00FC001E00
007E003C00
007E007800
007F00F000
003F00F000
003F81E000
001F83C000
001F838000
000FC78000
000FCF0000
000FFE0000
0007FC0000
0007FC0000
0003F80000
0003F00000
0003F00000
0003F00000
0003F00000
0007E00000
0007E00000
0007E00000
000FE00000
000FC00000
000FC00000
000FC00000
001F800000
001F800000
001F800000
003F800000
007F800000
00FFC00000
1FFFFE0000
1FFFFE0000
1FFFFC0000
ENDCHAR
STARTCHAR 0179
ENCODING 377
SWIDTH 672 0
DWIDTH 39 0
BBX 40 55 0 0
BITMAP
00000000F0
00000003F0
0000000FF0
0000003FE0
000000FE00
00000FC000
0000000000
0000000000
0000000000
0000000000
0000000000
000FFFFFFF
001FFFFFFF
001FFFFFFE
003F8003FE
003E0003FC
007C0007F8
0070000FF0
00F0001FE0
00E0001FE0
01C0003FC0
0180007F80
020000FF00
000001FF00
000001FE00
000003FC00
000007F800
00000FF000
00001FF000
00001FE000
00003FC000
00007F8000
0000FF8000
0000FF0000
0001FE0000
0003FC0000
0007F80000
000FF80000
000FF00000
001FE00000
003FC00000
007FC00000
00FF800060
00FF0000E0
01FE0000C0
03FC0001C0
07FC0003C0
07F8000780
0FF0000F80
1FE0001F80
3FE0007F00
7FC003FF00
7FFFFFFE00
FFFFFFFE00
FFFFFFFE00
ENDCHAR
STARTCHAR 017A
ENCODING 378
SWIDTH 517 0
DWIDTH 30 0
BBX 29 47 -1 -1
BITMAP
000000F0
000001F0
000003F0
00000FF0
00001FC0
00003F00
00007C00
0000F000
00018000
00000000
00000000
00000000
00000000
00000000
00000000
003F0000
00FFC038
03FFF078
07FFF878
070FFFF8
0F03FFF0
0F00FFE0
0F807FC0
0FC00F80
0FE01F00
0FE03E00
07C07800
0100F000
0001E000
0003C000
00078000
000F0000
001E0000
003C0000
00780000
00F00000
01E00020
03F00030
07FC0070
0FFF0070
1FFFE0E0
3CFFFFC0
783FFFC0
781FFF80
F807FF00
7003FC00
00002000
ENDCHAR
STARTCHAR 017B
ENCODING 379
SWIDTH 672 0
DWIDTH 39 0
BBX 40 55 0 0
BITMAP
0000007800
0000007C00
000000FC00
000000FC00
000000FC00
0000007800
0000000000
0000000000
0000000000
0000000000
0000000000
000FFFFFFF
001FFFFFFF
001FFFFFFE
003F8003FE
003E0003FC
007C0007F8
0070000FF0
00F0001FE0
00E0001FE0
01C0003FC0
0180007F80
020000FF00
000001FF00
000001FE00
000003FC00
000007F800
00000FF000
00001FF000
00001FE000
00003FC000
00007F8000
0000FF8000
0000FF0000
0001FE0000
0003FC0000
0007F80000
000FF80000
000FF00000
001FE00000
003FC00000
007FC00000
00FF800060
00FF0000E0
01FE0000C0
03FC0001C0
07FC0003C0
07F8000780
0FF0000F80
1FE0001F80
3FE0007F00
7FC003FF00
7FFFFFFE00
FFFFFFFE00
FFFFFFFE00
ENDCHAR
STARTCHAR 017C
ENCODING 380
SWIDTH 517 0
DWIDTH 30 0
BBX 29 47 -1 -1
BITMAP
00003C00
00007E00
0000FE00
0000FF00
00007E00
00007E00
00003C00
00000000
00000000
00000000
00000000
00000000
00000000
00000000
00000000
003F0000
00FFC038
03FFF078
07FFF878
070FFFF8
0F03FFF0
0F00FFE0
0F807FC0
0FC00F80
0FE01F00
0FE03E00
07C07800
0100F000
0001E000
0003C000
00078000
000F0000
001E0000
003C0000
00780000
00F00000
01E00020
03F00030
07FC0070
0FFF0070
1FFFE0E0
3CFFFFC0
783FFFC0
781FFF80
F807FF00
7003FC00
00002000
ENDCHAR
STARTCHAR 017D
ENCODING 381
SWIDTH 672 0
DWIDTH 39 0
BBX 40 55 0 0
BITMAP
00003C0038
00000F01E0
00000FCFC0
000007FF80
000003FE00
000001FC00
0000000000
0000000000
0000000000
0000000000
0000000000
000FFFFFFF
001FFFFFFF
001FFFFFFE
003F8003FE
003E0003FC
007C0007F8
0070000FF0
00F0001FE0
00E0001FE0
01C0003FC0
0180007F80
020000FF00
000001FE00
000001FE00
000003FC00
000007F800
00000FF000
00001FF000
00001FE000
00003FC000
00007F8000
0000FF0000
0000FF0000
0001FE0000
0003FC0000
0007F80000
000FF80000
000FF00000
001FE00000
003FC00000
007F800000
00FF800060
00FF0000E0
01FE0000C0
03FC0001C0
07FC0003C0
07F8000780
0FF0000F80
1FE0001F80
3FC0007F00
7FC003FF00
7FFFFFFE00
FFFFFFFE00
FFFFFFFE00
ENDCHAR
STARTCHAR 017E
ENCODING 382
SWIDTH 517 0
DWIDTH 30 0
BBX 30 46 -1 -1
BITMAP
001E001C
000F0078
0007C1F0
0003E7C0
0003FF80
0001FF00
0000FE00
0000FC00
00000000
00000000
00000000
00000000
00000000
00000000
003F0000
00FFC038
03FFF078
07FFF878
070FFFF8
0F03FFF0
0F00FFE0
0F807FC0
0FC00F80
0FE01F00
0FE03E00
07C07800
0100F000
0001E000
0003C000
00078000
000F0000
001E0000
003C0000
00780000
00F00000
01E00020
03F00030
07FC0070
0FFF0070
1FFFE0E0
3CFFFFC0
783FFFC0
781FFF80
F807FF00
7003FC00
00002000
ENDCHAR
STARTCHAR 018F
ENCODING 399
SWIDTH 637 0
DWIDTH 37 0
BBX 35 46 1 -1
BITMAP
0000010000
00003FF800
0000FFFE00
0003FFFF00
0007FFFF80
001FC07FC0
003F003FC0
003C001FC0
0078001FE0
00F0000FE0
01E0000FE0
01C0000FE0
00C0000FE0
0000000FE0
0000000FE0
0000000FE0
0000000FE0
0000000FE0
0000000FE0
0000007FE0
000007FFE0
00003FFFC0
0000FFFFC0
0003FF9FC0
000FFC1F80
003FF03F80
007FC03F00
01FF007F00
03FC007E00
07F8007E00
0FF000FC00
1FE000FC00
3FC001F800
3F8003F000
7F8003F000
FF0007E000
FF000FC000
FE001F8000
FE003F0000
FE007E0000
FE00FC0000
7F01F00000
7F8FE00000
3FFF800000
0FFE000000
00C0000000
ENDCHAR
STARTCHAR 0192
ENCODING 402
SWIDTH 465 0
DWIDTH 27 0
BBX 35 56 -3 -8
BITMAP
0000007E00
000001FF80
000003FFC0
000007C3E0
00000F81E0
00000F01E0
00001F03E0
00001E03C0
00003E0F80
00003E0000
00003C0000
00003C0000
00007C0000
00007C0000
00007C0000
0000780000
0000780000
001FFFC000
001FFFC000
001FFFC000
0000F80000
0000F80000
0000F00000
0001F00000
0001F00000
0001F00000
0001F00000
0001F00000
0003E00000
0003E00000
0003E00000
0003E00000
0003E00000
0003E00000
0007C00000
0007C00000
0007C00000
0007C00000
0007C00000
0007C00000
000F800000
000F800000
000F800000
000F800000
000F800000
000F000000
081F000000
3E1F000000
7C1E000000
781E000000
F83E000000
F83C000000
7C78000000
7FF8000000
3FF0000000
0FC0000000
ENDCHAR
STARTCHAR 01C4
ENCODING 452
SWIDTH 1500 0
DWIDTH 87 0
BBX 91 55 -2 0
BITMAP
000000000000000007800F00
000000000000000003E07C00
000000000000000001F9F800
000000000000000000FFE000
000000000000000000FFC000
0000000000000000007F8000
000000000000000000000000
000000000000000000000000
000000000000000000000000
000000000000000000000000
000000000000000000000000
001FFFFF80000003FFFFFFE0
001FFFFFF8000003FFFFFFE0
0003FFFFFE000007FFFFFFC0
0000FF00FF800007F0007F80
00007E003FC0000FC000FF00
00007E000FE0000F0001FE00
0000FC0007F0001E0001FE00
0000FC0003F8001C0003FC00
0000FC0001FC00380007F800
0001FC0000FC0038000FF000
0001F80000FE0070000FF000
0001F800007E0000001FE000
0001F800007E0000003FC000
0003F000007F0000007F8000
0003F000007F000000FF0000
0003F000007F000000FF0000
0003F000007F000001FE0000
0007E000007F000003FC0000
0007E000007F000007F80000
0007E000007F00000FF80000
0007E000007F00000FF00000
000FC000007F00001FE00000
000FC000007F00003FC00000
000FC000007F00007F800000
001F8000007E0000FF800000
001F800000FE0000FF000000
001F800000FE0001FE000000
001F800000FC0003FC000000
003F000001FC0007FC000000
003F000001FC000FF8000000
003F000003F8000FF0000000
003F000003F8001FE0001C00
007E000007F0003FC0001800
007E00000FE0007FC0003800
007E00001FC000FF80007800
007E00001FC000FF00007000
00FC00007F8001FE0000F000
00FC0000FF0003FC0001E000
01FC0001FE0007FC0007E000
01FE0007F8000FF8001FE000
03FF003FF0000FF000FFC000
7FFFFFFFC0001FFFFFFFC000
7FFFFFFE00003FFFFFFF8000
FFFFFFE000003FFFFFFF8000
ENDCHAR
STARTCHAR 01C5
ENCODING 453
SWIDTH 1362 0
DWIDTH 79 0
BBX 80 46 -2 -1
BITMAP
0000000000000007000F
001FFFFF80000003C01C
001FFFFFF8000003E078
0003FFFFFE000001F1F0
0000FF00FF800000FFE0
00007E003FC00000FFC0
00007E000FE000007F00
0000FC0007F000003E00
0000FC0003F800000000
0000FC0001FC00000000
0001FC0000FC00000000
0001F80000FE00000000
0001F800007E00000000
0001F800007E00000000
0003F000007F001FC000
0003F000007F007FF00E
0003F000007F00FFF81E
0003F000007F01FFFC3E
0007E000007F0383FFFC
0007E000007F0380FFF8
0007E000007F03C07FF0
0007E000007F07E01FE0
000FC000007F07F003C0
000FC000007F03F00780
000FC000007F03F00F00
001F8000007E01F01E00
001F800000FE00003C00
001F800000FE00007800
001F800000FC0000F000
003F000001FC0001C000
003F000001FC00078000
003F000003F8000F0000
003F000003F8001E0000
007E000007F0003C0000
007E00000FE000780000
007E00001FC000F0000C
007E00001FC001FE001C
00FC00007F8003FF8018
00FC0000FF0007FFE038
01FC0001FE000FFFF8F0
01FE0007F8001E1FFFF0
03FF003FF0001E0FFFE0
7FFFFFFFC0003C07FFC0
7FFFFFFE00003C03FF80
FFFFFFE000003800FF00
00000000000000001000
ENDCHAR
STARTCHAR 01C6
ENCODING 454
SWIDTH 1120 0
DWIDTH 65 0
BBX 63 49 1 -1
BITMAP
000003FFC0000000
000003FF80000000
000003FF80000000
0000001F800E000E
0000001F0007803C
0000001F0003C0F0
0000001F0003F3E0
0000003F0001FFC0
0000003E0000FF80
0000003E0000FF00
0000007E00007C00
0000007C00000000
0000007C00000000
0000007C00000000
000000FC00000000
000000F800000000
000000F800000000
0001F1F8001F8000
0007FDF000FFE01C
001FFFF001FFF03C
003F0FF003DFFC7C
007C07F00703FFF8
00F807E00701FFF0
01F007E007807FE0
03E007E007C03FC0
07C007E007E00780
0FC007C007E00F00
0F8007C007E01E00
1F800FC003E03C00
3F000F8000007800
3F000F800000F000
7E001F800001E000
7E001F800003C000
7C001F0000078000
FC003F00000F0000
FC003F00001E0000
FC007F00003C0000
F8007F0300700000
F800FE0701E00010
F801FE0603F80018
F801FE0E07FF0038
F803BE0C0FFFC070
FC07BE1C1FFFF0F0
FE0F3E383E7FFFE0
7FFE3FF83C1FFFC0
7FFC3FF07C0FFF80
3FF81FE07803FF00
1FE01FC03801FE00
0200020000002000
ENDCHAR
STARTCHAR 01C7
ENCODING 455
SWIDTH 1241 0
DWIDTH 72 0
BBX 78 45 -1 -1
BITMAP
003FFFF80000001FFFFC
003FFFF80000001FFFFC
003FFFF80000003FFFF8
0001FF0000000000FF80
0001FE00000000007F00
0001FC00000000007F00
0001FC00000000007E00
0001F80000000000FE00
0001F80000000000FC00
0001F80000000000FC00
0003F00000000000FC00
0003F00000000001F800
0003F00000000001F800
0003F00000000001F800
0007E00000000001F800
0007E00000000003F000
0007E00000000003F000
0007E00000000003F000
000FC00000000003F000
000FC00000000007E000
000FC00000000007E000
001F800000000007E000
001F80000000000FC000
001F80000000000FC000
001F80000000000FC000
003F00000000000FC000
003F00000000001F8000
003F00000000001F8000
003F00000000001F8000
007E00000000001F8000
007E00000000003F0000
007E00000E1F003F0000
007C00000C3F803F0000
00FC00001C7F807E0000
00FC00001C7F807E0000
00FC000038FF807E0000
00F8000078FF00FC0000
01F80000F0FE00FC0000
01F80001F0FC01F80000
03FC0003F07C03F80000
07FE000FE07C07F00000
3FFF80FFE03F1FE00000
FFFFFFFFE01FFF800000
FFFFFFFFC00FFE000000
000000000000C0000000
ENDCHAR
STARTCHAR 01C8
ENCODING 456
SWIDTH 982 0
DWIDTH 57 0
BBX 58 63 -1 -15
BITMAP
0000000000000F00
0000000000001F80
0000000000001FC0
0000000000003FC0
003FFFF800001FC0
003FFFF800001F80
003FFFF800000F00
0001FF0000000000
0001FE0000000000
0001FC0000000000
0001FC0000000000
0001F80000000000
0001F80000000000
0001F80000000000
0003F00000000000
0003F00000000000
0003F00000000000
0003F00000003C00
0007E0000000FE00
0007E0000001FE00
0007E0000007FE00
0007C000000FFE00
000FC000001C7E00
000FC00000187E00
000FC0000030FE00
001F80000070FC00
001F80000020FC00
001F80000000FC00
001F80000001FC00
003F00000001F800
003F00000001F800
003F00000001F800
003E00000003F000
007E00000003F000
007E00000E03F000
007E00000E03F000
007C00001C07E000
00FC00001C07E000
00FC00003C07E000
00FC00003807C000
01F80000780FC000
01F80000F00FC000
01FC0001F00FC000
03FC0007F00F8000
07FE003FE01F8000
FFFFFFFFE01F8000
FFFFFFFFE01F0000
FFFFFFFFC01F0000
00000000003F0000
00000000003F0000
00000000003E0000
00000000003E0000
00000000007E0000
00000000007C0000
00000000007C0000
0000000180780000
00000003C0F00000
00000007E0E00000
00000007E1E00000
00000007FFC00000
00000003FF000000
00000001FE000000
0000000020000000
ENDCHAR
STARTCHAR 01C9
ENCODING 457
SWIDTH 620 0
DWIDTH 36 0
BBX 35 63 1 -15
BITMAP
03FF800780
03FF800FC0
007F001FC0
003F001FE0
003F001FC0
003F000FC0
003E000780
003E000000
007E000000
007E000000
007C000000
007C000000
00FC000000
00F8000000
00F8000000
01F8000000
01F8000000
01F0001E00
01F0007F00
03F001FF00
03F003FF00
03E007FF00
03E00E7F00
07E00C7F00
07C0187E00
07C0387E00
07C0107E00
0FC0007E00
0F8000FC00
0F8000FC00
1F8000FC00
1F8000FC00
1F0001F800
1F0001F800
3F0001F800
3E0001F000
3E0003F000
3E0003F000
7E0703F000
7C0603E000
7C0E07E000
7C1C07E000
7C3807C000
FC7007C000
FFE00FC000
FFC00FC000
7F800F8000
7F000F8000
08001F8000
00001F0000
00001F0000
00001F0000
00003E0000
00003E0000
00003C0000
00C07C0000
01E0780000
03F0700000
03F0E00000
03FFC00000
01FF800000
00FF000000
0010000000
ENDCHAR
STARTCHAR 01CA
ENCODING 458
SWIDTH 1379 0
DWIDTH 80 0
BBX 86 45 -1 -1
BITMAP
00FFFC0001FFFC001FFFFC
00FFFC0003FFF8001FFFFC
01FFFE0003FFF8003FFFF8
000FFE00007FC00000FFC0
0003FF00003F8000007F00
0001FF00001F0000007F00
0000FF80001F0000007E00
0000FF80001E0000007E00
0000FFC0001E000000FC00
0000FFC0001C000000FC00
0000EFC0001C000000FC00
0001EFE0003C000000FC00
0001E7E0003C000001F800
0001C7F00038000001F800
0001C7F00078000001F800
0003C3F80078000003F000
000383F80070000003F000
000381FC0070000003F000
000781FC00F0000003F000
000780FC00F0000007E000
000700FE00E0000007E000
0007007E00E0000007E000
000F007F01E0000007E000
000F007F01E000000FC000
000E003F81C000000FC000
000E003F81C000000FC000
001E001F83C000000F8000
001C001FC38000001F8000
001C000FC38000001F8000
003C000FE78000001F8000
003C0007E78000003F0000
00380007F7000F003F0000
00380003F7003F803F0000
00780003FF007F803F0000
00780003FF007F807E0000
00700001FE007F807E0000
00F00001FE007F00FC0000
00F00000FE00FE00FC0000
01F00000FC007C01F80000
03F800007C007C03F80000
07FC00007C007E07F00000
3FFF00003C003F1FE00000
7FFFC00038001FFF800000
FFFF800038000FFE000000
0000000000000040000000
ENDCHAR
STARTCHAR 01CB
ENCODING 459
SWIDTH 1137 0
DWIDTH 66 0
BBX 67 63 -1 -15
BITMAP
000000000000000780
000000000000000FC0
000000000000000FE0
000000000000000FE0
00FFFC0001FFFC0FE0
00FFFC0003FFF80FC0
01FFFE0003FFF80780
000FFE00007FC00000
0003FF00003F800000
0001FF00001F000000
0000FF80001F000000
0000FF80001E000000
0000FFC0001E000000
0000EFC0001C000000
0000EFC0001C000000
0001EFE0003C000000
0001C7E0003C000000
0001C7F00038001E00
0003C3F00078007F00
0003C3F8007800FF00
000381F8007001FF00
000381FC007003FF00
000781FC00F0073F00
000700FC00F00E3F00
000700FE00E01C3F00
0007007E00E0387F00
000F007F01E0107E00
000E003F01E0007E00
000E003F81C0007E00
001E001F81C000FC00
001E001F83C000FC00
001C001FC38000FC00
001C000FC38000FC00
003C000FE78001F800
003C0007E78001F800
00380007F70001F800
00380003F70001F800
00780003FF0003F000
00700003FF0003F000
00700001FE0003F000
00F00001FE0003E000
00F00000FE0007E000
01F80000FC0007E000
03F800007C0007E000
0FFC00007C0007C000
7FFFC0003C000FC000
7FFF800038000FC000
FFFF800038000F8000
0000000000000F8000
0000000000001F8000
0000000000001F8000
0000000000001F0000
0000000000001F0000
0000000000003E0000
0000000000003E0000
0000000000E03C0000
0000000001F0780000
0000000001F0780000
0000000003F8F00000
0000000001FFE00000
0000000001FF800000
0000000000FF000000
000000000018000000
ENDCHAR
STARTCHAR 01CC
ENCODING 460
SWIDTH 931 0
DWIDTH 54 0
BBX 53 63 1 -15
BITMAP
000000000001E0
000000000003F0
000000000003F8
000000000003F8
000000000003F8
000000000003F0
000000000001E0
00000000000000
00000000000000
00000000000000
00000000000000
00000000000000
00000000000000
00000000000000
00000000000000
00000000000000
00000000000000
00F003F0000780
03F80FFC001FC0
07FC1FFC003FC0
0E7C3C7E00FFC0
1C7C707E01FFC0
187CE07E038FC0
307DC07E030FC0
307B807C061FC0
60FB00FC0E1F80
60FF00FC041F80
C0FE00FC001F80
C1FC01F8001F80
01FC01F8003F00
01F801F8003F00
03F803F0003F00
03F003F0003E00
03F003F0007E00
07E007E0007E00
07E007E0007E00
07E007E0007C00
07C00FC000FC00
0FC00FC000FC00
0F800FC180F800
0F801F8380F800
1F801F8701F800
1F001F8E01F800
1F001F9C01F000
3F001FF803F000
3E001FF003F000
3E001FE003F000
7C000F8003E000
0000040007E000
0000000007E000
0000000007C000
0000000007C000
000000000FC000
000000000F8000
000000000F8000
000000380F0000
000000781E0000
000000FC1E0000
000000FC3C0000
000000FFF80000
0000007FE00000
0000003FC00000
00000004000000
ENDCHAR
STARTCHAR 01EA
ENCODING 490
SWIDTH 827 0
DWIDTH 48 0
BBX 41 58 4 -13
BITMAP
000000400000
00001FFE0000
0000FFFFC000
0003FE0FE000
0007F003F000
001FC001F800
003F0000FC00
007E00007E00
00FC00007E00
01F800003F00
03F000003F00
07F000003F80
07E000003F80
0FE000003F80
0FC000003F80
1FC000003F80
1F8000003F80
3F8000003F80
3F8000003F80
3F0000003F80
7F0000003F80
7F0000003F80
7F0000003F80
7F0000003F80
FE0000003F80
FE0000003F80
FE0000007F00
FE0000007F00
FE0000007F00
FE000000FE00
FE000000FE00
7E000000FC00
7F000001FC00
7F000001F800
7F000003F000
3F000007F000
3F800007E000
3F80000FC000
1FC0001F8000
0FC0003F0000
07E0007E0000
03F001F80000
01FE1FF00000
00FFFFC00000
003FFE000000
001F80000000
003C00000000
00F800000000
01F000000000
03E000000000
03C000000000
07C000000000
07C020000000
07C0F0000000
07E1E0000000
03FFC0000000
03FF80000000
00FC00000000
ENDCHAR
STARTCHAR 01EB
ENCODING 491
SWIDTH 517 0
DWIDTH 30 0
BBX 27 44 1 -13
BITMAP
0003F000
001FFC00
003FFE00
00FE1F00
01F80F80
03F00780
07F007C0
07E007C0
0FC007C0
1FC007E0
1F8007E0
3F8007E0
3F8007E0
3F000FC0
7F000FC0
7F000FC0
7E000FC0
7E001F80
FE001F80
FE001F80
FE003F00
FE003F00
7C007E00
7C007C00
7E00FC00
7E01F800
3E03F000
3F07E000
1F9FC000
0FFF0000
07FE0000
01E00000
07800000
0F000000
1E000000
3C000000
7C000000
78000000
78040000
7C0E0000
7E3E0000
7FFC0000
3FF00000
1FC00000
ENDCHAR
STARTCHAR 01F1
ENCODING 497
SWIDTH 1500 0
DWIDTH 87 0
BBX 90 44 -2 0
BITMAP
001FFFFF80000003FFFFFFC0
001FFFFFF8000007FFFFFFC0
0003FFFFFE000007FFFFFF80
0000FF00FF80000FF0007F00
00007E003FC0000F8000FF00
00007E000FE0001F0001FE00
0000FC0007F0001C0003FC00
0000FC0003F8003C0007F800
0000FC0001FC00380007F800
0001FC0000FC0070000FF000
0001F80000FE0060001FE000
0001F800007E0080003FC000
0001F800007E0000007F8000
0003F000007F0000007F8000
0003F000007F000000FF0000
0003F000007F000001FE0000
0003F000007F000003FC0000
0007E000007F000007FC0000
0007E000007F000007F80000
0007E000007F00000FF00000
0007E000007F00001FE00000
000FC000007F00003FC00000
000FC000007F00007FC00000
000FC000007F00007F800000
001F8000007E0000FF000000
001F800000FE0001FE000000
001F800000FE0003FE000000
001F800000FC0007FC000000
003F000001FC0007F8000000
003F000001FC000FF0000000
003F000003F8001FE0000000
003F000003F8003FE0001800
007E000007F0003FC0003800
007E00000FE0007F80003000
007E00001FC000FF00007000
007E00001FC001FF0000F000
00FC00007F8003FE0001E000
00FC0000FF0003FC0003E000
01FC0001FE0007F80007E000
01FE0007F8000FF0001FC000
03FF003FF0001FF000FFC000
7FFFFFFFC0003FFFFFFF8000
7FFFFFFE00003FFFFFFF8000
FFFFFFE000003FFFFFFF8000
ENDCHAR
STARTCHAR 01F2
ENCODING 498
SWIDTH 1344 0
DWIDTH 78 0
BBX 79 45 -2 -1
BITMAP
001FFFFF800000000000
001FFFFFF80000000000
0003FFFFFE0000000000
0000FF00FF8000000000
00007E003FC000000000
00007E000FE000000000
0000FC0007F000000000
0000FC0003F800000000
0000FC0001FC00000000
0001FC0000FC00000000
0001F80000FE00000000
0001F800007E00000000
0001F800007E00000000
0003F000007F001F8000
0003F000007F007FE01C
0003F000007F00FFF81E
0003F000007F01FFFC3C
0007E000007F0383FFFC
0007E000007F0780FFF8
0007E000007F07807FF0
0007E000007F07E01FE0
000FC000007F07F003C0
000FC000007F07F00F80
000FC000007F03F01F00
001F8000007E03E03C00
001F800000FE00007800
001F800000FE0000F000
001F800000FC0001E000
003F000001FC0003C000
003F000001FC00078000
003F000003F8000F0000
003F000003F8001E0000
007E000007F0003C0000
007E00000FE000780000
007E00001FC000F0001C
007E00001FC001FC0018
00FC00007F8003FF0038
00FC0000FF0007FFC038
01FC0001FE000FFFF8F0
01FE0007F8001E3FFFE0
03FF003FF0003C0FFFE0
7FFFFFFFC0003C07FFC0
7FFFFFFE00003C03FF80
FFFFFFE000003800FE00
00000000000000001000
ENDCHAR
STARTCHAR 01F3
ENCODING 499
SWIDTH 1120 0
DWIDTH 65 0
BBX 62 49 1 -1
BITMAP
000003FFC0000000
000003FF80000000
000003FF80000000
0000001F80000000
0000001F00000000
0000001F00000000
0000001F00000000
0000003F00000000
0000003E00000000
0000003E00000000
0000007E00000000
0000007C00000000
0000007C00000000
0000007C00000000
000000FC00000000
000000F800000000
000000F800000000
0001F1F8001F8000
0007FDF000FFE01C
001FFFF001FFF03C
003F0FF003DFFC7C
007C07F00703FFF8
00F807E00701FFF0
01F007E007807FE0
03E007E007C03FC0
07C007E007E00780
0FC007C007E00F00
0F8007C007E01E00
1F800FC003E03C00
3F000F8000007800
3F000F800000F000
7E001F800001E000
7E001F800003C000
7C001F0000078000
FC003F00000F0000
FC003F00001E0000
FC007F00003C0000
F8007F0300700000
F800FE0701E00010
F801FE0603F80018
F801FE0E07FF0038
F803BE0C0FFFC070
FC07BE1C1FFFF0F0
FE0F3E383E7FFFE0
7FFE3FF83C1FFFC0
7FFC3FF07C0FFF80
3FF81FE07803FF00
1FE01FC03801FE00
0200020000002000
ENDCHAR
STARTCHAR 01FA
ENCODING 506
SWIDTH 758 0
DWIDTH 44 0
BBX 54 55 -6 0
BITMAP
00000000000798
00000000001FFC
000000000038F8
000000000030E0
0000000001F180
000000000FBF80
00000000001E00
00000000000000
00000000000000
00000000000000
00000000007C00
0000000000FC00
0000000001F800
0000000003F800
0000000007F800
000000000FF800
000000000FF800
000000001FF000
000000003DF000
0000000079F000
00000000F3F000
00000001F3E000
00000001E3E000
00000003C3E000
0000000787E000
0000000F07C000
0000001E07C000
0000003E07C000
0000007C0FC000
000000780FC000
000000F00F8000
000001E01F8000
000003C01F8000
000007801F8000
00000F801F0000
00000FFFFF0000
00001FFFFF0000
00003FFFFF0000
000078003F0000
0000F0003E0000
0001E0007E0000
0001C0007E0000
000380007E0000
000700007C0000
000E00007C0000
001E0000FC0000
003C0000FC0000
00780000FC0000
00F00000F80000
01E00001F80000
03E00001F80000
0FE00003FC0000
3FFC000FFF0000
FFFE007FFFE000
FFFE007FFFC000
ENDCHAR
STARTCHAR 01FB
ENCODING 507
SWIDTH 568 0
DWIDTH 33 0
BBX 32 55 1 -1
BITMAP
0000000E
0000003F
0000007F
000000FE
000001FC
000003E0
00000F80
00001E00
00003800
00000000
00000780
00001FC0
00003FE0
000078E0
000060E0
000060E0
0000E0C0
0000F1C0
00007F80
00007F00
00001C00
00000000
00000000
0001F000
0007FCF8
001FFDF0
003F0FF0
007C0FF0
01F807E0
01F007E0
03E007C0
07C00FC0
0FC00FC0
0F800F80
1F000F80
3F001F80
3E001F00
7E001F00
7E003F00
7C003E00
FC003E00
FC007E00
F8007E00
F800FC00
F801FC08
F801FC0C
F803FC18
F8077C38
FC0FF870
FC1EFCE0
FFFCFFC0
7FF8FF80
7FF07F00
3FC07E00
04001000
ENDCHAR
ENDFONT
